<?xml version="1.0" standalone="no"?>
<!DOCTYPE svg PUBLIC "-//W3C//DTD SVG 20010904//EN"
 "http://www.w3.org/TR/2001/REC-SVG-20010904/DTD/svg10.dtd">
<svg version="1.0" xmlns="http://www.w3.org/2000/svg"
 width="358.000000pt" height="659.000000pt" viewBox="0 0 358.000000 659.000000"
 preserveAspectRatio="xMidYMid meet">

<g transform="translate(0.000000,659.000000) scale(0.100000,-0.100000)"
fill="#000000" stroke="none">
<path d="M1744 6498 l-19 -23 23 19 c21 18 27 26 19 26 -2 0 -12 -10 -23 -22z"/>
<path d="M1796 6092 c-3 -5 1 -9 9 -9 8 0 12 4 9 9 -3 4 -7 8 -9 8 -2 0 -6 -4
-9 -8z"/>
<path d="M1662 5867 c-2 -36 2 -49 14 -54 30 -11 49 11 50 58 l2 44 -7 -45
c-5 -36 -10 -45 -26 -45 -16 0 -21 9 -26 45 l-6 45 -1 -48z"/>
<path d="M1757 5883 c-13 -13 -7 -30 16 -40 l22 -11 -25 -11 -25 -11 25 3 c31
3 39 33 11 42 -26 8 -27 22 -3 28 14 4 14 5 1 6 -9 0 -19 -2 -22 -6z"/>
<path d="M1833 5884 c-16 -7 -17 -46 -1 -62 7 -7 21 -12 33 -11 17 1 17 2 -4
8 -38 10 -38 31 -1 31 25 0 31 4 28 18 -3 17 -32 25 -55 16z m42 -14 c4 -6 -5
-10 -20 -10 -15 0 -24 4 -20 10 3 6 12 10 20 10 8 0 17 -4 20 -10z"/>
<path d="M1921 5845 c2 -33 3 -35 6 -10 2 17 11 35 20 42 13 10 13 12 -6 10
-18 -1 -21 -7 -20 -42z"/>
<path d="M1802 5658 l-2 -128 -860 0 -860 0 -5 -22 c-3 -13 -4 -1247 -3 -2743
l3 -2720 1710 -3 c941 -1 1720 0 1733 3 l22 5 0 2728 c0 2108 -3 2731 -12
2740 -9 9 -215 12 -865 12 l-852 0 -4 128 -3 127 -2 -127z m-2 -168 c0 -17 -5
-39 -12 -50 -9 -14 -9 -24 0 -42 7 -13 13 -70 15 -128 l3 -105 2 108 c2 99 3
107 22 107 27 0 44 34 30 60 -6 11 -20 20 -30 20 -16 0 -20 7 -20 30 l0 30
858 -2 857 -3 0 -2730 0 -2730 -1722 -3 -1723 -2 0 2728 c0 1501 3 2732 7
2735 3 4 390 7 860 7 l853 0 0 -30z m40 -70 c0 -11 -7 -20 -15 -20 -8 0 -15 9
-15 20 0 11 7 20 15 20 8 0 15 -9 15 -20z"/>
<path d="M1010 5480 c0 -5 4 -10 9 -10 6 0 13 5 16 10 3 6 -1 10 -9 10 -9 0
-16 -4 -16 -10z"/>
<path d="M1650 5480 c0 -5 4 -10 9 -10 6 0 13 5 16 10 3 6 -1 10 -9 10 -9 0
-16 -4 -16 -10z"/>
<path d="M1950 5480 c0 -5 4 -10 9 -10 6 0 13 5 16 10 3 6 -1 10 -9 10 -9 0
-16 -4 -16 -10z"/>
<path d="M830 5430 l0 -50 35 0 c26 0 39 6 51 25 15 23 15 27 0 50 -12 19 -25
25 -51 25 l-35 0 0 -50z m65 0 c0 -16 -6 -26 -17 -28 -14 -3 -18 3 -18 28 0
25 4 31 18 28 11 -2 17 -12 17 -28z"/>
<path d="M1310 5430 c0 -38 4 -50 15 -50 10 0 15 10 15 28 1 23 2 24 11 10 13
-24 24 -23 37 5 10 21 11 20 11 -10 1 -22 6 -33 16 -33 11 0 15 12 15 50 0 44
-3 50 -20 50 -13 0 -25 -10 -31 -27 l-11 -28 -10 28 c-6 17 -17 27 -29 27 -16
0 -19 -7 -19 -50z"/>
<path d="M1707 5467 c-3 -8 -2 -29 2 -48 5 -25 13 -35 29 -37 12 -2 22 1 22 7
0 6 -4 11 -10 11 -14 0 -12 38 2 42 9 3 8 9 -4 21 -20 20 -34 22 -41 4z"/>
<path d="M2207 5473 c-16 -15 -6 -43 18 -49 14 -3 25 -11 25 -16 0 -6 -11 -8
-25 -6 -14 3 -25 1 -25 -4 0 -14 28 -21 56 -14 33 9 30 49 -3 54 -28 4 -30 22
-3 22 11 0 20 5 20 10 0 11 -53 14 -63 3z"/>
<path d="M2487 5467 c-3 -8 -2 -29 2 -48 5 -25 13 -35 29 -37 12 -2 22 1 22 7
0 6 -4 11 -10 11 -14 0 -12 38 2 42 9 3 8 9 -4 21 -20 20 -34 22 -41 4z"/>
<path d="M940 5420 c0 -29 4 -40 15 -40 10 0 15 10 15 26 0 15 8 33 18 40 15
12 14 13 -15 14 -32 0 -33 -1 -33 -40z"/>
<path d="M1010 5420 c0 -29 4 -40 15 -40 11 0 15 11 15 40 0 29 -4 40 -15 40
-11 0 -15 -11 -15 -40z"/>
<path d="M1067 5420 c9 -22 22 -40 30 -40 7 0 13 2 13 4 0 2 7 20 15 40 13 30
13 36 1 36 -8 0 -17 -12 -21 -27 l-7 -28 -10 28 c-5 15 -16 27 -23 27 -11 0
-10 -8 2 -40z"/>
<path d="M1154 5446 c-3 -8 -4 -25 -2 -38 2 -18 10 -24 36 -26 39 -4 43 15 5
21 l-28 4 28 2 c23 1 28 5 25 24 -4 27 -55 38 -64 13z m43 -12 c-3 -3 -12 -4
-19 -1 -8 3 -5 6 6 6 11 1 17 -2 13 -5z"/>
<path d="M1240 5420 c0 -29 4 -40 15 -40 10 0 15 10 15 26 0 15 8 33 18 40 15
12 14 13 -15 14 -32 0 -33 -1 -33 -40z"/>
<path d="M1462 5448 c-27 -27 -6 -68 35 -68 29 0 48 33 33 60 -12 22 -49 27
-68 8z m48 -28 c0 -11 -7 -20 -15 -20 -8 0 -15 9 -15 20 0 11 7 20 15 20 8 0
15 -9 15 -20z"/>
<path d="M1550 5420 c0 -29 4 -40 15 -40 10 0 15 10 15 30 0 17 5 30 10 30 6
0 10 -13 10 -30 0 -20 5 -30 15 -30 17 0 20 32 5 61 -7 12 -21 19 -40 19 -28
0 -30 -2 -30 -40z"/>
<path d="M1650 5420 c0 -29 4 -40 15 -40 11 0 15 11 15 40 0 29 -4 40 -15 40
-11 0 -15 -11 -15 -40z"/>
<path d="M1880 5420 c0 -29 4 -40 15 -40 10 0 15 10 15 26 0 15 8 33 18 40 15
12 14 13 -15 14 -32 0 -33 -1 -33 -40z"/>
<path d="M1950 5420 c0 -29 4 -40 15 -40 11 0 15 11 15 40 0 29 -4 40 -15 40
-11 0 -15 -11 -15 -40z"/>
<path d="M2000 5420 c0 -29 4 -40 15 -40 10 0 15 10 15 30 0 17 5 30 10 30 6
0 10 -13 10 -30 0 -20 5 -30 15 -30 17 0 20 32 5 61 -7 12 -21 19 -40 19 -28
0 -30 -2 -30 -40z"/>
<path d="M2110 5445 c-17 -21 -9 -48 20 -62 25 -12 25 -13 3 -13 -13 0 -23 -4
-23 -10 0 -14 43 -13 58 2 7 7 12 31 12 55 0 41 -2 43 -29 43 -16 0 -34 -7
-41 -15z m40 -25 c0 -11 -4 -20 -10 -20 -5 0 -10 9 -10 20 0 11 5 20 10 20 6
0 10 -9 10 -20z"/>
<path d="M2290 5456 c0 -2 7 -21 16 -42 11 -26 13 -39 5 -42 -16 -5 -13 -22 4
-22 14 0 55 76 55 101 0 20 -20 7 -26 -17 l-7 -27 -14 27 c-11 21 -33 36 -33
22z"/>
<path d="M2397 5453 c-13 -13 -7 -30 16 -41 l22 -11 -22 0 c-13 -1 -23 -6 -23
-12 0 -6 14 -9 32 -7 40 4 49 30 16 46 -18 8 -19 11 -5 11 9 1 17 6 17 11 0
11 -43 14 -53 3z"/>
<path d="M2564 5446 c-3 -8 -4 -25 -2 -38 2 -18 10 -24 36 -26 39 -4 43 15 5
21 l-28 4 28 2 c23 1 28 5 25 24 -4 27 -55 38 -64 13z m43 -12 c-3 -3 -12 -4
-19 -1 -8 3 -5 6 6 6 11 1 17 -2 13 -5z"/>
<path d="M2650 5420 c0 -29 4 -40 15 -40 10 0 15 10 15 30 0 17 5 30 10 30 6
0 10 -13 10 -30 0 -20 5 -30 15 -30 10 0 15 10 15 30 0 17 5 30 10 30 6 0 10
-13 10 -30 0 -20 5 -30 15 -30 17 0 20 32 6 59 -7 13 -24 18 -65 19 l-56 1 0
-39z"/>
<path d="M1482 4995 c1 -47 2 -52 7 -25 4 22 12 35 21 35 9 0 18 -13 22 -35
l6 -35 -1 40 c-2 33 -6 40 -22 40 -11 0 -23 9 -27 20 -3 11 -6 -7 -6 -40z"/>
<path d="M1983 4995 c0 -33 2 -45 4 -27 2 18 2 45 0 60 -2 15 -4 0 -4 -33z"/>
<path d="M1114 4995 c1 -49 2 -50 31 -50 29 0 30 1 31 50 l2 50 -7 -45 c-5
-36 -10 -45 -26 -45 -16 0 -21 9 -26 45 l-7 45 2 -50z"/>
<path d="M1409 5031 c-3 -7 -3 -30 -1 -52 3 -33 8 -39 26 -38 16 1 17 2 4 6
-12 3 -18 14 -18 34 0 21 5 29 18 30 13 0 14 2 2 6 -8 3 -18 10 -21 16 -4 5
-8 5 -10 -2z"/>
<path d="M2219 5031 c-3 -7 -3 -30 -1 -52 3 -33 8 -39 26 -38 16 1 17 2 4 6
-12 3 -18 14 -18 34 0 21 5 29 18 30 13 0 14 2 2 6 -8 3 -18 10 -21 16 -4 5
-8 5 -10 -2z"/>
<path d="M1207 5013 c-13 -13 -7 -30 16 -40 l22 -11 -25 -11 -25 -11 25 3 c31
3 39 33 11 42 -26 8 -27 22 -3 28 14 4 14 5 1 6 -9 0 -19 -2 -22 -6z"/>
<path d="M1283 5014 c-7 -3 -13 -19 -13 -35 0 -22 5 -30 26 -35 14 -4 30 -2
35 3 5 5 -2 9 -18 8 -14 0 -28 6 -30 13 -3 8 6 12 27 12 25 0 31 4 28 18 -3
17 -32 25 -55 16z m42 -14 c4 -6 -5 -10 -20 -10 -15 0 -24 4 -20 10 3 6 12 10
20 10 8 0 17 -4 20 -10z"/>
<path d="M1573 5014 c-7 -3 -13 -19 -13 -35 0 -22 5 -30 26 -35 14 -4 30 -2
35 3 5 5 -2 9 -18 8 -14 0 -28 6 -30 13 -3 8 6 12 27 12 25 0 31 4 28 18 -3
17 -32 25 -55 16z m42 -14 c4 -6 -5 -10 -20 -10 -15 0 -24 4 -20 10 3 6 12 10
20 10 8 0 17 -4 20 -10z"/>
<path d="M1720 5009 l25 -12 -25 -6 c-36 -10 -34 -46 3 -47 26 -1 28 1 25 35
-3 30 -7 36 -28 38 l-25 3 25 -11z m20 -38 c0 -14 -18 -23 -30 -16 -6 4 -8 11
-5 16 8 12 35 12 35 0z"/>
<path d="M1781 4961 c1 -32 4 -48 7 -36 4 11 16 20 26 20 51 0 43 69 -8 71
-25 1 -26 -1 -25 -55z m53 34 c8 -21 -3 -45 -20 -45 -18 0 -28 24 -20 45 3 8
12 15 20 15 7 0 16 -7 20 -15z"/>
<path d="M1881 4961 c1 -32 4 -48 7 -36 4 11 16 20 26 20 51 0 43 69 -8 71
-25 1 -26 -1 -25 -55z m53 34 c8 -21 -3 -45 -20 -45 -18 0 -28 24 -20 45 3 8
12 15 20 15 7 0 16 -7 20 -15z"/>
<path d="M2023 4980 c0 -25 2 -35 4 -22 2 12 2 32 0 45 -2 12 -4 2 -4 -23z"/>
<path d="M2062 5011 c-8 -5 -12 -21 -10 -37 2 -24 8 -29 33 -31 28 -2 28 -1 5
5 -18 6 -25 15 -25 32 0 17 7 26 25 31 20 6 21 7 5 8 -11 0 -26 -3 -33 -8z"/>
<path d="M2160 5009 l25 -12 -25 -6 c-36 -10 -34 -46 3 -47 26 -1 28 1 25 35
-3 30 -7 36 -28 38 l-25 3 25 -11z m20 -38 c0 -14 -18 -23 -30 -16 -6 4 -8 11
-5 16 8 12 35 12 35 0z"/>
<path d="M2293 4980 c0 -25 2 -35 4 -22 2 12 2 32 0 45 -2 12 -4 2 -4 -23z"/>
<path d="M2324 5006 c-12 -31 0 -61 25 -61 31 0 50 28 35 53 -14 22 -52 28
-60 8z m50 -11 c8 -21 -3 -45 -20 -45 -18 0 -28 24 -20 45 3 8 12 15 20 15 7
0 16 -7 20 -15z"/>
<path d="M2421 4976 l2 -41 6 35 c4 22 12 35 21 35 9 0 18 -13 22 -35 l6 -35
-1 40 c-2 36 -5 40 -29 41 -26 1 -28 -1 -27 -40z"/>
<path d="M2654 4928 l-19 -23 23 19 c21 18 27 26 19 26 -2 0 -12 -10 -23 -22z"/>
<path d="M1802 4511 l-2 -274 -21 19 c-16 14 -20 15 -16 4 3 -8 11 -32 18 -52
7 -22 19 -38 27 -38 9 0 13 3 9 6 -3 4 3 24 13 45 25 48 25 57 0 34 -20 -18
-20 -16 -23 256 l-2 274 -3 -274z"/>
<path d="M492 3865 c1 -47 2 -52 7 -25 4 22 12 35 21 35 9 0 18 -13 22 -35 l6
-35 -1 40 c-2 33 -6 40 -22 40 -11 0 -23 9 -27 20 -3 11 -6 -7 -6 -40z"/>
<path d="M1032 3865 c1 -47 2 -52 7 -25 4 22 12 35 21 35 9 0 18 -13 22 -35
l6 -35 -1 40 c-2 33 -6 40 -22 40 -11 0 -23 9 -27 20 -3 11 -6 -7 -6 -40z"/>
<path d="M1680 3902 c0 -13 -8 -18 -27 -17 -25 0 -28 -3 -28 -35 0 -33 2 -35
33 -36 l32 -1 0 54 c0 29 -2 53 -5 53 -3 0 -5 -8 -5 -18z m-6 -37 c8 -21 -3
-45 -20 -45 -8 0 -17 7 -20 15 -8 21 2 45 20 45 7 0 16 -7 20 -15z"/>
<path d="M2260 3902 c0 -13 -8 -18 -27 -17 -25 0 -28 -3 -28 -35 0 -33 2 -35
33 -36 l32 -1 0 54 c0 29 -2 53 -5 53 -3 0 -5 -8 -5 -18z m-6 -37 c8 -21 -3
-45 -20 -45 -8 0 -17 7 -20 15 -8 21 2 45 20 45 7 0 16 -7 20 -15z"/>
<path d="M2710 3902 c0 -13 -8 -18 -27 -17 -25 0 -28 -3 -28 -35 0 -33 2 -35
33 -36 l32 -1 0 54 c0 29 -2 53 -5 53 -3 0 -5 -8 -5 -18z m-6 -37 c8 -21 -3
-45 -20 -45 -8 0 -17 7 -20 15 -8 21 2 45 20 45 7 0 16 -7 20 -15z"/>
<path d="M3123 3865 c0 -33 2 -45 4 -27 2 18 2 45 0 60 -2 15 -4 0 -4 -33z"/>
<path d="M392 3898 c-7 -7 -12 -24 -12 -38 0 -14 5 -31 12 -38 14 -14 54 -16
63 -3 3 6 -6 9 -21 8 -33 -3 -54 25 -38 51 7 10 22 16 38 15 15 -1 24 2 21 8
-9 13 -49 11 -63 -3z"/>
<path d="M959 3901 c-3 -7 -3 -30 -1 -52 3 -33 8 -39 26 -38 16 1 17 2 4 6
-12 3 -18 14 -18 34 0 21 5 29 18 30 13 0 14 2 2 6 -8 3 -18 10 -21 16 -4 5
-8 5 -10 -2z"/>
<path d="M2490 3885 c-6 -14 -14 -36 -20 -50 -6 -16 -6 -25 0 -25 6 0 10 7 10
15 0 21 47 19 59 -2 16 -27 13 -4 -5 44 -19 49 -30 54 -44 18z m30 -21 c0 -8
-6 -14 -14 -14 -9 0 -12 7 -9 20 6 22 23 18 23 -6z"/>
<path d="M2922 3898 c-7 -7 -12 -24 -12 -38 0 -31 17 -50 45 -50 28 0 45 19
45 50 0 31 -17 50 -45 50 -12 0 -26 -5 -33 -12z m56 -10 c17 -17 15 -43 -4
-59 -31 -26 -70 25 -44 56 15 18 32 19 48 3z"/>
<path d="M574 3876 c-12 -31 0 -61 25 -61 31 0 50 28 35 53 -14 22 -52 28 -60
8z m50 -11 c8 -21 -3 -45 -20 -45 -18 0 -28 24 -20 45 3 8 12 15 20 15 7 0 16
-7 20 -15z"/>
<path d="M664 3876 c-12 -31 0 -61 25 -61 31 0 50 28 35 53 -14 22 -52 28 -60
8z m50 -11 c8 -21 -3 -45 -20 -45 -8 0 -17 7 -20 15 -8 21 2 45 20 45 7 0 16
-7 20 -15z"/>
<path d="M757 3883 c-13 -13 -7 -30 16 -40 l22 -11 -25 -11 -25 -11 25 3 c31
3 39 33 11 42 -26 8 -27 22 -3 28 14 4 14 5 1 6 -9 0 -19 -2 -22 -6z"/>
<path d="M833 3884 c-7 -3 -13 -19 -13 -35 0 -22 5 -30 26 -35 14 -4 30 -2 35
3 5 5 -2 9 -18 8 -14 0 -28 6 -30 13 -3 8 6 12 27 12 25 0 31 4 28 18 -3 17
-32 25 -55 16z m42 -14 c4 -6 -5 -10 -20 -10 -15 0 -24 4 -20 10 3 6 12 10 20
10 8 0 17 -4 20 -10z"/>
<path d="M1123 3884 c-7 -3 -13 -19 -13 -35 0 -22 5 -30 26 -35 14 -4 30 -2
35 3 5 5 -2 9 -18 8 -14 0 -28 6 -30 13 -3 8 6 12 27 12 25 0 31 4 28 18 -3
17 -32 25 -55 16z m42 -14 c4 -6 -5 -10 -20 -10 -15 0 -24 4 -20 10 3 6 12 10
20 10 8 0 17 -4 20 -10z"/>
<path d="M1251 3845 c2 -33 3 -35 6 -10 2 17 11 35 20 42 13 10 13 12 -6 10
-18 -1 -21 -7 -20 -42z"/>
<path d="M1313 3884 c-7 -3 -13 -19 -13 -35 0 -22 5 -30 26 -35 14 -4 30 -2
35 3 5 5 -2 9 -18 8 -14 0 -28 6 -30 13 -3 8 6 12 27 12 25 0 31 4 28 18 -3
17 -32 25 -55 16z m42 -14 c4 -6 -5 -10 -20 -10 -15 0 -24 4 -20 10 3 6 12 10
20 10 8 0 17 -4 20 -10z"/>
<path d="M1402 3881 c-8 -5 -12 -21 -10 -37 2 -24 8 -29 33 -31 28 -2 28 -1 5
5 -18 6 -25 15 -25 32 0 17 7 26 25 31 20 6 21 7 5 8 -11 0 -26 -3 -33 -8z"/>
<path d="M1474 3876 c-12 -31 0 -61 25 -61 31 0 50 28 35 53 -14 22 -52 28
-60 8z m50 -11 c8 -21 -3 -45 -20 -45 -8 0 -17 7 -20 15 -8 21 2 45 20 45 7 0
16 -7 20 -15z"/>
<path d="M1571 3845 c2 -33 3 -35 6 -10 2 17 11 35 20 42 13 10 13 12 -6 10
-18 -1 -21 -7 -20 -42z"/>
<path d="M1723 3850 c0 -25 2 -35 4 -22 2 12 2 32 0 45 -2 12 -4 2 -4 -23z"/>
<path d="M1761 3846 l2 -41 6 35 c4 22 12 35 21 35 9 0 18 -13 22 -35 l6 -35
-1 40 c-2 36 -5 40 -29 41 -26 1 -28 -1 -27 -40z"/>
<path d="M1844 3876 c-11 -29 0 -61 24 -64 12 -2 22 -8 22 -13 0 -5 -10 -10
-22 -10 -18 -1 -19 -2 -5 -6 29 -8 47 16 47 61 0 39 -2 42 -30 44 -19 1 -33
-3 -36 -12z m47 -3 c8 -44 4 -60 -14 -55 -22 6 -32 26 -23 47 5 15 35 21 37 8z"/>
<path d="M1981 3846 l2 -41 6 35 c4 22 12 35 21 35 9 0 17 -13 21 -35 l6 -35
4 35 c2 23 9 35 19 35 9 0 18 -13 22 -35 l6 -35 -1 40 -2 40 -52 1 -53 1 1
-41z"/>
<path d="M2114 3876 c-12 -31 0 -61 25 -61 31 0 50 28 35 53 -14 22 -52 28
-60 8z m50 -11 c8 -21 -3 -45 -20 -45 -8 0 -17 7 -20 15 -8 21 2 45 20 45 7 0
16 -7 20 -15z"/>
<path d="M2303 3884 c-7 -3 -13 -19 -13 -35 0 -22 5 -30 26 -35 14 -4 30 -2
35 3 5 5 -2 9 -18 8 -14 0 -28 6 -30 13 -3 8 6 12 27 12 25 0 31 4 28 18 -3
17 -32 25 -55 16z m42 -14 c4 -6 -5 -10 -20 -10 -15 0 -24 4 -20 10 3 6 12 10
20 10 8 0 17 -4 20 -10z"/>
<path d="M2573 3855 c2 -36 5 -40 30 -41 25 -1 27 1 26 40 l-2 41 -6 -35 c-4
-22 -12 -35 -21 -35 -9 0 -18 13 -22 35 l-6 35 1 -40z"/>
<path d="M2753 3850 c0 -25 2 -35 4 -22 2 12 2 32 0 45 -2 12 -4 2 -4 -23z"/>
<path d="M2784 3876 c-12 -31 0 -61 25 -61 31 0 50 28 35 53 -14 22 -52 28
-60 8z m50 -11 c8 -21 -3 -45 -20 -45 -8 0 -17 7 -20 15 -8 21 2 45 20 45 7 0
16 -7 20 -15z"/>
<path d="M3031 3846 l2 -41 6 35 c4 22 12 35 21 35 9 0 18 -13 22 -35 l6 -35
-1 40 c-2 36 -5 40 -29 41 -26 1 -28 -1 -27 -40z"/>
<path d="M3159 3845 c14 -41 14 -47 1 -56 -13 -9 -13 -10 0 -7 16 5 65 108 50
108 -5 0 -12 -11 -16 -25 -3 -14 -10 -25 -14 -25 -4 0 -11 11 -14 25 -4 14
-10 25 -15 25 -5 0 -1 -20 8 -45z"/>
<path d="M1802 3231 l-2 -274 -21 19 c-16 14 -20 15 -16 4 3 -8 11 -32 18 -52
7 -22 19 -38 27 -38 9 0 13 3 9 6 -3 4 3 24 13 45 25 48 25 57 0 34 -20 -18
-20 -16 -23 256 l-2 274 -3 -274z"/>
<path d="M1360 2762 c0 -13 -8 -18 -27 -17 -25 0 -28 -3 -28 -35 0 -33 2 -35
33 -36 l32 -1 0 54 c0 29 -2 53 -5 53 -3 0 -5 -8 -5 -18z m-6 -37 c8 -21 -3
-45 -20 -45 -8 0 -17 7 -20 15 -8 21 2 45 20 45 7 0 16 -7 20 -15z"/>
<path d="M1140 2745 c-6 -14 -14 -36 -20 -50 -6 -16 -6 -25 0 -25 6 0 10 7 10
15 0 21 47 19 59 -2 16 -27 13 -4 -5 44 -19 49 -30 54 -44 18z m30 -21 c0 -8
-6 -14 -14 -14 -9 0 -12 7 -9 20 6 22 23 18 23 -6z"/>
<path d="M1571 2718 c2 -53 2 -53 9 -13 6 39 6 39 14 13 10 -35 23 -35 39 -1
l12 27 6 -39 c6 -39 6 -39 8 13 1 59 -13 68 -32 20 l-13 -32 -13 32 c-20 47
-31 39 -30 -20z"/>
<path d="M2439 2761 c-3 -7 -3 -30 -1 -52 3 -33 8 -39 26 -38 16 1 17 2 4 6
-12 3 -18 14 -18 34 0 21 5 29 18 30 13 0 14 2 2 6 -8 3 -18 10 -21 16 -4 5
-8 5 -10 -2z"/>
<path d="M1223 2715 c2 -36 5 -40 30 -41 25 -1 27 1 26 40 l-2 41 -6 -35 c-4
-22 -12 -35 -21 -35 -9 0 -18 13 -22 35 l-6 35 1 -40z"/>
<path d="M1403 2710 c0 -25 2 -35 4 -22 2 12 2 32 0 45 -2 12 -4 2 -4 -23z"/>
<path d="M1434 2736 c-12 -31 0 -61 25 -61 31 0 50 28 35 53 -14 22 -52 28
-60 8z m50 -11 c8 -21 -3 -45 -20 -45 -8 0 -17 7 -20 15 -8 21 2 45 20 45 7 0
16 -7 20 -15z"/>
<path d="M1710 2739 l25 -12 -25 -6 c-36 -10 -34 -46 3 -47 26 -1 28 1 25 35
-3 30 -7 36 -28 38 l-25 3 25 -11z m20 -38 c0 -14 -18 -23 -30 -16 -6 4 -8 11
-5 16 8 12 35 12 35 0z"/>
<path d="M1771 2706 l2 -41 6 35 c4 22 12 35 21 35 9 0 18 -13 22 -35 l6 -35
-1 40 c-2 36 -5 40 -29 41 -26 1 -28 -1 -27 -40z"/>
<path d="M1880 2739 l25 -12 -25 -6 c-36 -10 -34 -46 3 -47 26 -1 28 1 25 35
-3 30 -7 36 -28 38 l-25 3 25 -11z m20 -38 c0 -14 -18 -23 -30 -16 -6 4 -8 11
-5 16 8 12 35 12 35 0z"/>
<path d="M1934 2736 c-11 -29 0 -61 24 -64 12 -2 22 -8 22 -13 0 -5 -10 -10
-22 -10 -18 -1 -19 -2 -5 -6 29 -8 47 16 47 61 0 39 -2 42 -30 44 -19 1 -33
-3 -36 -12z m47 -3 c8 -44 4 -60 -14 -55 -22 6 -32 26 -23 47 5 15 35 21 37 8z"/>
<path d="M2033 2744 c-7 -3 -13 -19 -13 -35 0 -22 5 -30 26 -35 14 -4 30 -2
35 3 5 5 -2 9 -18 8 -14 0 -28 6 -30 13 -3 8 6 12 27 12 25 0 31 4 28 18 -3
17 -32 25 -55 16z m42 -14 c4 -6 -5 -10 -20 -10 -15 0 -24 4 -20 10 3 6 12 10
20 10 8 0 17 -4 20 -10z"/>
<path d="M2121 2706 l2 -41 6 35 c4 22 12 35 21 35 9 0 17 -13 21 -35 l6 -35
4 35 c2 23 9 35 19 35 9 0 18 -13 22 -35 l6 -35 -1 40 -2 40 -52 1 -53 1 1
-41z"/>
<path d="M2263 2744 c-7 -3 -13 -19 -13 -35 0 -22 5 -30 26 -35 14 -4 30 -2
35 3 5 5 -2 9 -18 8 -14 0 -28 6 -30 13 -3 8 6 12 27 12 25 0 31 4 28 18 -3
17 -32 25 -55 16z m42 -14 c4 -6 -5 -10 -20 -10 -15 0 -24 4 -20 10 3 6 12 10
20 10 8 0 17 -4 20 -10z"/>
<path d="M2351 2706 l2 -41 6 35 c4 22 12 35 21 35 9 0 18 -13 22 -35 l6 -35
-1 40 c-2 36 -5 40 -29 41 -26 1 -28 -1 -27 -40z"/>
<path d="M1787 2456 c-9 -27 -15 -51 -13 -53 2 -3 10 13 17 34 l12 38 19 -40
c19 -42 14 -12 -6 40 l-12 30 -17 -49z"/>
<path d="M1746 2344 c-9 -26 -16 -49 -16 -51 0 -2 16 -3 35 -3 l35 0 3 -202 2
-203 3 203 2 202 35 0 c19 0 35 1 35 3 0 12 -33 97 -36 94 -2 -2 2 -23 10 -45
l15 -42 -64 0 -64 0 15 42 c8 22 12 43 10 45 -2 2 -11 -17 -20 -43z"/>
<path d="M1410 1722 c0 -13 -8 -18 -27 -17 -25 0 -28 -3 -28 -35 0 -33 2 -35
33 -36 l32 -1 0 54 c0 29 -2 53 -5 53 -3 0 -5 -8 -5 -18z m-6 -37 c8 -21 -3
-45 -20 -45 -8 0 -17 7 -20 15 -8 21 2 45 20 45 7 0 16 -7 20 -15z"/>
<path d="M1720 1722 c0 -13 -8 -18 -27 -17 -25 0 -28 -3 -28 -35 0 -33 2 -35
33 -36 l32 -1 0 54 c0 29 -2 53 -5 53 -3 0 -5 -8 -5 -18z m-6 -37 c8 -21 -3
-45 -20 -45 -8 0 -17 7 -20 15 -8 21 2 45 20 45 7 0 16 -7 20 -15z"/>
<path d="M2022 1723 c-4 -10 -5 -36 -1 -58 l6 -40 2 37 c1 26 6 38 19 41 16 4
16 5 0 6 -10 0 -18 5 -18 10 0 5 8 12 18 14 16 4 16 5 0 6 -10 0 -21 -7 -26
-16z"/>
<path d="M2593 1685 c0 -33 2 -45 4 -27 2 18 2 45 0 60 -2 15 -4 0 -4 -33z"/>
<path d="M2632 1723 c-4 -10 -5 -36 -1 -58 l6 -40 2 37 c1 26 6 38 19 41 16 4
16 5 0 6 -10 0 -18 5 -18 10 0 5 8 12 18 14 16 4 16 5 0 6 -10 0 -21 -7 -26
-16z"/>
<path d="M941 1678 c1 -29 4 -41 6 -25 4 23 33 41 33 19 0 -5 7 -17 16 -28 15
-19 16 -19 8 1 -4 11 -7 34 -8 50 -1 25 -6 31 -28 33 -28 3 -28 3 -27 -50z
m42 27 c1 -5 -6 -11 -15 -13 -11 -2 -18 3 -18 13 0 17 30 18 33 0z"/>
<path d="M1500 1705 c-6 -14 -14 -36 -20 -50 -6 -16 -6 -25 0 -25 6 0 10 7 10
15 0 21 47 19 59 -2 16 -27 13 -4 -5 44 -19 49 -30 54 -44 18z m30 -21 c0 -8
-6 -14 -14 -14 -9 0 -12 7 -9 20 6 22 23 18 23 -6z"/>
<path d="M1043 1704 c-7 -3 -13 -19 -13 -35 0 -22 5 -30 26 -35 14 -4 30 -2
35 3 5 5 -2 9 -18 8 -14 0 -28 6 -30 13 -3 8 6 12 27 12 25 0 31 4 28 18 -3
17 -32 25 -55 16z m42 -14 c4 -6 -5 -10 -20 -10 -15 0 -24 4 -20 10 3 6 12 10
20 10 8 0 17 -4 20 -10z"/>
<path d="M1132 1701 c-8 -5 -12 -21 -10 -37 2 -24 8 -29 33 -31 28 -2 28 -1 5
5 -18 6 -25 15 -25 32 0 17 7 26 25 31 20 6 21 7 5 8 -11 0 -26 -3 -33 -8z"/>
<path d="M1204 1696 c-12 -31 0 -61 25 -61 31 0 50 28 35 53 -14 22 -52 28
-60 8z m50 -11 c8 -21 -3 -45 -20 -45 -18 0 -28 24 -20 45 3 8 12 15 20 15 7
0 16 -7 20 -15z"/>
<path d="M1301 1665 c2 -33 3 -35 6 -10 2 17 11 35 20 42 13 10 13 12 -6 10
-18 -1 -21 -7 -20 -42z"/>
<path d="M1583 1675 c2 -36 5 -40 30 -41 25 -1 27 1 26 40 l-2 41 -6 -35 c-4
-22 -12 -35 -21 -35 -9 0 -18 13 -22 35 l-6 35 1 -40z"/>
<path d="M1763 1670 c0 -25 2 -35 4 -22 2 12 2 32 0 45 -2 12 -4 2 -4 -23z"/>
<path d="M1794 1696 c-12 -31 0 -61 25 -61 31 0 50 28 35 53 -14 22 -52 28
-60 8z m50 -11 c8 -21 -3 -45 -20 -45 -18 0 -28 24 -20 45 3 8 12 15 20 15 7
0 16 -7 20 -15z"/>
<path d="M1924 1696 c-12 -31 0 -61 25 -61 31 0 50 28 35 53 -14 22 -52 28
-60 8z m50 -11 c8 -21 -3 -45 -20 -45 -8 0 -17 7 -20 15 -8 21 2 45 20 45 7 0
16 -7 20 -15z"/>
<path d="M2119 1665 c14 -41 14 -47 1 -56 -13 -9 -13 -10 0 -7 16 5 65 108 50
108 -5 0 -12 -11 -16 -25 -3 -14 -10 -25 -14 -25 -4 0 -11 11 -14 25 -4 14
-10 25 -15 25 -5 0 -1 -20 8 -45z"/>
<path d="M2194 1696 c-12 -31 0 -61 25 -61 31 0 50 28 35 53 -14 22 -52 28
-60 8z m50 -11 c8 -21 -3 -45 -20 -45 -8 0 -17 7 -20 15 -8 21 2 45 20 45 7 0
16 -7 20 -15z"/>
<path d="M2283 1675 c2 -36 5 -40 30 -41 25 -1 27 1 26 40 l-2 41 -6 -35 c-4
-22 -12 -35 -21 -35 -9 0 -18 13 -22 35 l-6 35 1 -40z"/>
<path d="M2371 1665 c2 -33 3 -35 6 -10 2 17 11 35 20 42 13 10 13 12 -6 10
-18 -1 -21 -7 -20 -42z"/>
<path d="M2427 1703 c-13 -13 -7 -30 16 -40 l22 -11 -25 -11 -25 -11 25 3 c31
3 39 33 11 42 -26 8 -27 22 -3 28 14 4 14 5 1 6 -9 0 -19 -2 -22 -6z"/>
<path d="M2503 1704 c-7 -3 -13 -19 -13 -35 0 -22 5 -30 26 -35 14 -4 30 -2
35 3 5 5 -2 9 -18 8 -14 0 -28 6 -30 13 -3 8 6 12 27 12 25 0 31 4 28 18 -3
17 -32 25 -55 16z m42 -14 c4 -6 -5 -10 -20 -10 -15 0 -24 4 -20 10 3 6 12 10
20 10 8 0 17 -4 20 -10z"/>
<path d="M1802 1161 l-2 -274 -22 19 c-21 19 -21 19 -13 -1 4 -11 13 -35 19
-52 6 -18 17 -33 25 -33 8 0 12 3 8 6 -3 4 3 24 13 45 25 48 25 52 0 39 -19
-10 -20 -6 -23 257 l-2 268 -3 -274z"/>
<path d="M1152 535 c1 -47 2 -52 7 -25 4 22 12 35 21 35 9 0 18 -13 22 -35 l6
-35 -1 40 c-2 33 -6 40 -22 40 -11 0 -23 9 -27 20 -3 11 -6 -7 -6 -40z"/>
<path d="M2172 573 c-4 -10 -5 -36 -1 -58 l6 -40 2 37 c1 26 6 38 19 41 16 4
16 5 0 6 -10 0 -18 5 -18 10 0 5 8 12 18 14 16 4 16 5 0 6 -10 0 -21 -7 -26
-16z"/>
<path d="M2393 535 c0 -33 2 -45 4 -27 2 18 2 45 0 60 -2 15 -4 0 -4 -33z"/>
<path d="M2650 572 c0 -13 -8 -18 -27 -17 -25 0 -28 -3 -28 -35 0 -33 2 -35
33 -36 l32 -1 0 54 c0 29 -2 53 -5 53 -3 0 -5 -8 -5 -18z m-6 -37 c8 -21 -3
-45 -20 -45 -8 0 -17 7 -20 15 -8 21 2 45 20 45 7 0 16 -7 20 -15z"/>
<path d="M530 530 c0 -48 1 -50 28 -50 35 0 52 16 52 50 0 34 -17 50 -52 50
-27 0 -28 -2 -28 -50z m64 18 c14 -23 -3 -52 -33 -56 -19 -3 -21 1 -21 38 0
37 2 41 21 38 12 -2 27 -11 33 -20z"/>
<path d="M729 571 c-3 -7 -3 -30 -1 -52 3 -33 8 -39 26 -38 16 1 17 2 4 6 -25
6 -25 63 0 64 13 0 14 2 2 6 -8 3 -18 10 -21 16 -4 5 -8 5 -10 -2z"/>
<path d="M969 571 c-3 -7 -3 -30 -1 -52 3 -33 8 -39 26 -38 16 1 17 2 4 6 -25
6 -25 63 0 64 13 0 14 2 2 6 -8 3 -18 10 -21 16 -4 5 -8 5 -10 -2z"/>
<path d="M1079 571 c-3 -7 -3 -30 -1 -52 3 -33 8 -39 26 -38 16 1 17 2 4 6
-25 6 -25 63 0 64 13 0 14 2 2 6 -8 3 -18 10 -21 16 -4 5 -8 5 -10 -2z"/>
<path d="M643 554 c-7 -3 -13 -19 -13 -35 0 -22 5 -30 26 -35 14 -4 30 -2 35
3 5 5 -2 9 -18 8 -14 0 -28 6 -30 13 -3 8 6 12 27 12 25 0 31 4 28 18 -3 17
-32 25 -55 16z m42 -14 c4 -6 -5 -10 -20 -10 -15 0 -24 4 -20 10 3 6 12 10 20
10 8 0 17 -4 20 -10z"/>
<path d="M803 554 c-7 -3 -13 -19 -13 -35 0 -22 5 -30 26 -35 14 -4 30 -2 35
3 5 5 -2 9 -18 8 -14 0 -28 6 -30 13 -3 8 6 12 27 12 25 0 31 4 28 18 -3 17
-32 25 -55 16z m42 -14 c4 -6 -5 -10 -20 -10 -15 0 -24 4 -20 10 3 6 12 10 20
10 8 0 17 -4 20 -10z"/>
<path d="M892 551 c-8 -5 -12 -21 -10 -37 2 -24 8 -29 33 -31 28 -2 28 -1 5 5
-18 6 -25 15 -25 32 0 17 7 26 25 31 20 6 21 7 5 8 -11 0 -26 -3 -33 -8z"/>
<path d="M1243 554 c-7 -3 -13 -19 -13 -35 0 -22 5 -30 26 -35 14 -4 30 -2 35
3 5 5 -2 9 -18 8 -14 0 -28 6 -30 13 -3 8 6 12 27 12 25 0 31 4 28 18 -3 17
-32 25 -55 16z m42 -14 c4 -6 -5 -10 -20 -10 -15 0 -24 4 -20 10 3 6 12 10 20
10 8 0 17 -4 20 -10z"/>
<path d="M1371 501 c1 -32 4 -48 7 -36 4 11 16 20 26 20 51 0 43 69 -8 71 -25
1 -26 -1 -25 -55z m53 34 c8 -21 -3 -45 -20 -45 -8 0 -17 7 -20 15 -8 21 2 45
20 45 7 0 16 -7 20 -15z"/>
<path d="M1471 515 c2 -33 3 -35 6 -10 2 17 11 35 20 42 13 10 13 12 -6 10
-18 -1 -21 -7 -20 -42z"/>
<path d="M1533 554 c-7 -3 -13 -19 -13 -35 0 -22 5 -30 26 -35 14 -4 30 -2 35
3 5 5 -2 9 -18 8 -14 0 -28 6 -30 13 -3 8 6 12 27 12 25 0 31 4 28 18 -3 17
-32 25 -55 16z m42 -14 c4 -6 -5 -10 -20 -10 -15 0 -24 4 -20 10 3 6 12 10 20
10 8 0 17 -4 20 -10z"/>
<path d="M1617 553 c-13 -13 -7 -30 16 -40 l22 -11 -25 -11 -25 -11 25 3 c31
3 39 33 11 42 -26 8 -27 22 -3 28 14 4 14 5 1 6 -9 0 -19 -2 -22 -6z"/>
<path d="M1693 554 c-7 -3 -13 -19 -13 -35 0 -22 5 -30 26 -35 14 -4 30 -2 35
3 5 5 -2 9 -18 8 -14 0 -28 6 -30 13 -3 8 6 12 27 12 25 0 31 4 28 18 -3 17
-32 25 -55 16z m42 -14 c4 -6 -5 -10 -20 -10 -15 0 -24 4 -20 10 3 6 12 10 20
10 8 0 17 -4 20 -10z"/>
<path d="M1781 516 l2 -41 6 35 c4 22 12 35 21 35 9 0 18 -13 22 -35 l6 -35
-1 40 c-2 36 -5 40 -29 41 -26 1 -28 -1 -27 -40z"/>
<path d="M1872 551 c-8 -5 -12 -21 -10 -37 2 -24 8 -29 33 -31 28 -2 28 -1 5
5 -18 6 -25 15 -25 32 0 17 7 26 25 31 20 6 21 7 5 8 -11 0 -26 -3 -33 -8z"/>
<path d="M1953 554 c-7 -3 -13 -19 -13 -35 0 -22 5 -30 26 -35 14 -4 30 -2 35
3 5 5 -2 9 -18 8 -14 0 -28 6 -30 13 -3 8 6 12 27 12 25 0 31 4 28 18 -3 17
-32 25 -55 16z m42 -14 c4 -6 -5 -10 -20 -10 -15 0 -24 4 -20 10 3 6 12 10 20
10 8 0 17 -4 20 -10z"/>
<path d="M2074 546 c-12 -31 0 -61 25 -61 31 0 50 28 35 53 -14 22 -52 28 -60
8z m50 -11 c8 -21 -3 -45 -20 -45 -18 0 -28 24 -20 45 3 8 12 15 20 15 7 0 16
-7 20 -15z"/>
<path d="M2290 549 l25 -12 -25 -6 c-36 -10 -34 -46 3 -47 26 -1 28 1 25 35
-3 30 -7 36 -28 38 l-25 3 25 -11z m20 -38 c0 -14 -18 -23 -30 -16 -6 4 -8 11
-5 16 8 12 35 12 35 0z"/>
<path d="M2424 546 c-12 -31 0 -61 25 -61 31 0 50 28 35 53 -14 22 -52 28 -60
8z m50 -11 c8 -21 -3 -45 -20 -45 -8 0 -17 7 -20 15 -8 21 2 45 20 45 7 0 16
-7 20 -15z"/>
<path d="M2513 525 c2 -36 5 -40 30 -41 25 -1 27 1 26 40 l-2 41 -6 -35 c-4
-22 -12 -35 -21 -35 -9 0 -18 13 -22 35 l-6 35 1 -40z"/>
<path d="M2731 516 l2 -41 6 35 c4 22 12 35 21 35 9 0 18 -13 22 -35 l6 -35
-1 40 c-2 36 -5 40 -29 41 -26 1 -28 -1 -27 -40z"/>
<path d="M2814 546 c-12 -31 0 -61 25 -61 31 0 50 28 35 53 -14 22 -52 28 -60
8z m50 -11 c8 -21 -3 -45 -20 -45 -8 0 -17 7 -20 15 -8 21 2 45 20 45 7 0 16
-7 20 -15z"/>
<path d="M2913 520 c0 -25 2 -35 4 -22 2 12 2 32 0 45 -2 12 -4 2 -4 -23z"/>
<path d="M2947 553 c-13 -13 -7 -30 16 -40 l22 -11 -25 -11 -25 -11 25 3 c31
3 39 33 11 42 -26 8 -27 22 -3 28 14 4 14 5 1 6 -9 0 -19 -2 -22 -6z"/>
<path d="M3023 554 c-7 -3 -13 -19 -13 -35 0 -22 5 -30 26 -35 14 -4 30 -2 35
3 5 5 -2 9 -18 8 -14 0 -28 6 -30 13 -3 8 6 12 27 12 25 0 31 4 28 18 -3 17
-32 25 -55 16z m42 -14 c4 -6 -5 -10 -20 -10 -15 0 -24 4 -20 10 3 6 12 10 20
10 8 0 17 -4 20 -10z"/>
<path d="M2408 233 c7 -3 16 -2 19 1 4 3 -2 6 -13 5 -11 0 -14 -3 -6 -6z"/>
<path d="M2288 223 c7 -3 16 -2 19 1 4 3 -2 6 -13 5 -11 0 -14 -3 -6 -6z"/>
</g>
</svg>
