<?xml version="1.0" encoding="us-ascii" standalone="no"?><svg xmlns="http://www.w3.org/2000/svg" xmlns:xlink="http://www.w3.org/1999/xlink" contentStyleType="text/css" height="1247px" preserveAspectRatio="none" style="width:1662px;height:1247px;background:#FFFFFF;" version="1.1" viewBox="0 0 1662 1247" width="1662px" zoomAndPan="magnify"><defs/><g><rect fill="#FFFFFF" height="1045.1875" style="stroke:#181818;stroke-width:1.0;" width="10" x="169.5" y="112.4297"/><rect fill="#FFFFFF" height="1016.0547" style="stroke:#181818;stroke-width:1.0;" width="10" x="350.5" y="141.5625"/><rect fill="#FFFFFF" height="986.9219" style="stroke:#181818;stroke-width:1.0;" width="10" x="509" y="170.6953"/><rect fill="#FFFFFF" height="73.3984" style="stroke:#181818;stroke-width:1.0;" width="10" x="670" y="263.7031"/><rect fill="#FFFFFF" height="848.7813" style="stroke:#181818;stroke-width:1.0;" width="10" x="840" y="234.5703"/><rect fill="#FFFFFF" height="101.5313" style="stroke:#181818;stroke-width:1.0;" width="10" x="999" y="366.2344"/><rect fill="#FFFFFF" height="101.5313" style="stroke:#181818;stroke-width:1.0;" width="10" x="1144" y="496.8984"/><rect fill="#FFFFFF" height="101.5313" style="stroke:#181818;stroke-width:1.0;" width="10" x="1306" y="657.8281"/><rect fill="#FFFFFF" height="101.5313" style="stroke:#181818;stroke-width:1.0;" width="10" x="1473" y="818.7578"/><rect fill="none" height="963.9219" style="stroke:#000000;stroke-width:1.5;" width="1646" x="10" y="185.6953"/><line style="stroke:#181818;stroke-width:0.5;stroke-dasharray:5.0,5.0;" x1="38" x2="38" y1="81.2969" y2="1166.6172"/><line style="stroke:#181818;stroke-width:0.5;stroke-dasharray:5.0,5.0;" x1="174.5" x2="174.5" y1="81.2969" y2="1166.6172"/><line style="stroke:#181818;stroke-width:0.5;stroke-dasharray:5.0,5.0;" x1="355.5" x2="355.5" y1="81.2969" y2="1166.6172"/><line style="stroke:#181818;stroke-width:0.5;stroke-dasharray:5.0,5.0;" x1="513.5" x2="513.5" y1="81.2969" y2="1166.6172"/><line style="stroke:#181818;stroke-width:0.5;stroke-dasharray:5.0,5.0;" x1="675" x2="675" y1="81.2969" y2="1166.6172"/><line style="stroke:#181818;stroke-width:0.5;stroke-dasharray:5.0,5.0;" x1="845" x2="845" y1="81.2969" y2="1166.6172"/><line style="stroke:#181818;stroke-width:0.5;stroke-dasharray:5.0,5.0;" x1="1004" x2="1004" y1="81.2969" y2="1166.6172"/><line style="stroke:#181818;stroke-width:0.5;stroke-dasharray:5.0,5.0;" x1="1149" x2="1149" y1="81.2969" y2="1166.6172"/><line style="stroke:#181818;stroke-width:0.5;stroke-dasharray:5.0,5.0;" x1="1311" x2="1311" y1="81.2969" y2="1166.6172"/><line style="stroke:#181818;stroke-width:0.5;stroke-dasharray:5.0,5.0;" x1="1478" x2="1478" y1="81.2969" y2="1166.6172"/><text fill="#000000" font-family="sans-serif" font-size="14" lengthAdjust="spacing" textLength="31" x="20" y="77.9951">User</text><ellipse cx="38.5" cy="13.5" fill="#E2E2F0" rx="8" ry="8" style="stroke:#181818;stroke-width:0.5;"/><path d="M38.5,21.5 L38.5,48.5 M25.5,29.5 L51.5,29.5 M38.5,48.5 L25.5,63.5 M38.5,48.5 L51.5,63.5 " fill="none" style="stroke:#181818;stroke-width:0.5;"/><text fill="#000000" font-family="sans-serif" font-size="14" lengthAdjust="spacing" textLength="31" x="20" y="1178.6123">User</text><ellipse cx="38.5" cy="1190.4141" fill="#E2E2F0" rx="8" ry="8" style="stroke:#181818;stroke-width:0.5;"/><path d="M38.5,1198.4141 L38.5,1225.4141 M25.5,1206.4141 L51.5,1206.4141 M38.5,1225.4141 L25.5,1240.4141 M38.5,1225.4141 L51.5,1240.4141 " fill="none" style="stroke:#181818;stroke-width:0.5;"/><rect fill="#E2E2F0" height="36" rx="2.5" ry="2.5" style="stroke:#181818;stroke-width:0.5;" width="108" x="120.5" y="44.2969"/><ellipse cx="138.5" cy="62.2969" fill="#ADD1B2" rx="11" ry="11" style="stroke:#181818;stroke-width:1.0;"/><path d="M140.8438,57.9688 C139.9063,57.5313 139.3125,57.3906 138.4375,57.3906 C135.8125,57.3906 133.8125,59.4688 133.8125,62.1875 L133.8125,63.3125 C133.8125,65.8906 135.9219,67.7813 138.8125,67.7813 C140.0313,67.7813 141.1875,67.4844 141.9375,66.9375 C142.5156,66.5313 142.8438,66.0781 142.8438,65.6875 C142.8438,65.2344 142.4531,64.8438 141.9844,64.8438 C141.7656,64.8438 141.5625,64.9219 141.375,65.1094 C140.9219,65.5938 140.9219,65.5938 140.7344,65.6875 C140.3125,65.9531 139.625,66.0781 138.8594,66.0781 C136.8125,66.0781 135.5156,64.9844 135.5156,63.2813 L135.5156,62.1875 C135.5156,60.4063 136.7656,59.0938 138.5,59.0938 C139.0781,59.0938 139.6875,59.25 140.1563,59.5 C140.6406,59.7813 140.8125,60 140.9063,60.4063 C140.9688,60.8125 141,60.9375 141.1406,61.0625 C141.2813,61.2031 141.5156,61.3125 141.7344,61.3125 C142,61.3125 142.2656,61.1719 142.4375,60.9531 C142.5469,60.7969 142.5781,60.6094 142.5781,60.1875 L142.5781,58.7656 C142.5781,58.3281 142.5625,58.2031 142.4688,58.0469 C142.3125,57.7813 142.0313,57.6406 141.7344,57.6406 C141.4375,57.6406 141.2344,57.7344 141.0156,58.0469 L140.8438,57.9688 Z " fill="#000000"/><text fill="#000000" font-family="sans-serif" font-size="14" lengthAdjust="spacing" textLength="66" x="155.5" y="64.292">Recorder</text><rect fill="#E2E2F0" height="36" rx="2.5" ry="2.5" style="stroke:#181818;stroke-width:0.5;" width="108" x="120.5" y="1165.6172"/><ellipse cx="138.5" cy="1183.6172" fill="#ADD1B2" rx="11" ry="11" style="stroke:#181818;stroke-width:1.0;"/><path d="M140.8438,1179.2891 C139.9063,1178.8516 139.3125,1178.7109 138.4375,1178.7109 C135.8125,1178.7109 133.8125,1180.7891 133.8125,1183.5078 L133.8125,1184.6328 C133.8125,1187.2109 135.9219,1189.1016 138.8125,1189.1016 C140.0313,1189.1016 141.1875,1188.8047 141.9375,1188.2578 C142.5156,1187.8516 142.8438,1187.3984 142.8438,1187.0078 C142.8438,1186.5547 142.4531,1186.1641 141.9844,1186.1641 C141.7656,1186.1641 141.5625,1186.2422 141.375,1186.4297 C140.9219,1186.9141 140.9219,1186.9141 140.7344,1187.0078 C140.3125,1187.2734 139.625,1187.3984 138.8594,1187.3984 C136.8125,1187.3984 135.5156,1186.3047 135.5156,1184.6016 L135.5156,1183.5078 C135.5156,1181.7266 136.7656,1180.4141 138.5,1180.4141 C139.0781,1180.4141 139.6875,1180.5703 140.1563,1180.8203 C140.6406,1181.1016 140.8125,1181.3203 140.9063,1181.7266 C140.9688,1182.1328 141,1182.2578 141.1406,1182.3828 C141.2813,1182.5234 141.5156,1182.6328 141.7344,1182.6328 C142,1182.6328 142.2656,1182.4922 142.4375,1182.2734 C142.5469,1182.1172 142.5781,1181.9297 142.5781,1181.5078 L142.5781,1180.0859 C142.5781,1179.6484 142.5625,1179.5234 142.4688,1179.3672 C142.3125,1179.1016 142.0313,1178.9609 141.7344,1178.9609 C141.4375,1178.9609 141.2344,1179.0547 141.0156,1179.3672 L140.8438,1179.2891 Z " fill="#000000"/><text fill="#000000" font-family="sans-serif" font-size="14" lengthAdjust="spacing" textLength="66" x="155.5" y="1185.6123">Recorder</text><rect fill="#E2E2F0" height="36" rx="2.5" ry="2.5" style="stroke:#181818;stroke-width:0.5;" width="148" x="281.5" y="44.2969"/><ellipse cx="299.5" cy="62.2969" fill="#ADD1B2" rx="11" ry="11" style="stroke:#181818;stroke-width:1.0;"/><path d="M301.8438,57.9688 C300.9063,57.5313 300.3125,57.3906 299.4375,57.3906 C296.8125,57.3906 294.8125,59.4688 294.8125,62.1875 L294.8125,63.3125 C294.8125,65.8906 296.9219,67.7813 299.8125,67.7813 C301.0313,67.7813 302.1875,67.4844 302.9375,66.9375 C303.5156,66.5313 303.8438,66.0781 303.8438,65.6875 C303.8438,65.2344 303.4531,64.8438 302.9844,64.8438 C302.7656,64.8438 302.5625,64.9219 302.375,65.1094 C301.9219,65.5938 301.9219,65.5938 301.7344,65.6875 C301.3125,65.9531 300.625,66.0781 299.8594,66.0781 C297.8125,66.0781 296.5156,64.9844 296.5156,63.2813 L296.5156,62.1875 C296.5156,60.4063 297.7656,59.0938 299.5,59.0938 C300.0781,59.0938 300.6875,59.25 301.1563,59.5 C301.6406,59.7813 301.8125,60 301.9063,60.4063 C301.9688,60.8125 302,60.9375 302.1406,61.0625 C302.2813,61.2031 302.5156,61.3125 302.7344,61.3125 C303,61.3125 303.2656,61.1719 303.4375,60.9531 C303.5469,60.7969 303.5781,60.6094 303.5781,60.1875 L303.5781,58.7656 C303.5781,58.3281 303.5625,58.2031 303.4688,58.0469 C303.3125,57.7813 303.0313,57.6406 302.7344,57.6406 C302.4375,57.6406 302.2344,57.7344 302.0156,58.0469 L301.8438,57.9688 Z " fill="#000000"/><text fill="#000000" font-family="sans-serif" font-size="14" lengthAdjust="spacing" textLength="106" x="316.5" y="64.292">AudioRecorder</text><rect fill="#E2E2F0" height="36" rx="2.5" ry="2.5" style="stroke:#181818;stroke-width:0.5;" width="148" x="281.5" y="1165.6172"/><ellipse cx="299.5" cy="1183.6172" fill="#ADD1B2" rx="11" ry="11" style="stroke:#181818;stroke-width:1.0;"/><path d="M301.8438,1179.2891 C300.9063,1178.8516 300.3125,1178.7109 299.4375,1178.7109 C296.8125,1178.7109 294.8125,1180.7891 294.8125,1183.5078 L294.8125,1184.6328 C294.8125,1187.2109 296.9219,1189.1016 299.8125,1189.1016 C301.0313,1189.1016 302.1875,1188.8047 302.9375,1188.2578 C303.5156,1187.8516 303.8438,1187.3984 303.8438,1187.0078 C303.8438,1186.5547 303.4531,1186.1641 302.9844,1186.1641 C302.7656,1186.1641 302.5625,1186.2422 302.375,1186.4297 C301.9219,1186.9141 301.9219,1186.9141 301.7344,1187.0078 C301.3125,1187.2734 300.625,1187.3984 299.8594,1187.3984 C297.8125,1187.3984 296.5156,1186.3047 296.5156,1184.6016 L296.5156,1183.5078 C296.5156,1181.7266 297.7656,1180.4141 299.5,1180.4141 C300.0781,1180.4141 300.6875,1180.5703 301.1563,1180.8203 C301.6406,1181.1016 301.8125,1181.3203 301.9063,1181.7266 C301.9688,1182.1328 302,1182.2578 302.1406,1182.3828 C302.2813,1182.5234 302.5156,1182.6328 302.7344,1182.6328 C303,1182.6328 303.2656,1182.4922 303.4375,1182.2734 C303.5469,1182.1172 303.5781,1181.9297 303.5781,1181.5078 L303.5781,1180.0859 C303.5781,1179.6484 303.5625,1179.5234 303.4688,1179.3672 C303.3125,1179.1016 303.0313,1178.9609 302.7344,1178.9609 C302.4375,1178.9609 302.2344,1179.0547 302.0156,1179.3672 L301.8438,1179.2891 Z " fill="#000000"/><text fill="#000000" font-family="sans-serif" font-size="14" lengthAdjust="spacing" textLength="106" x="316.5" y="1185.6123">AudioRecorder</text><rect fill="#E2E2F0" height="36" rx="2.5" ry="2.5" style="stroke:#181818;stroke-width:0.5;" width="149" x="439.5" y="44.2969"/><ellipse cx="457.5" cy="62.2969" fill="#ADD1B2" rx="11" ry="11" style="stroke:#181818;stroke-width:1.0;"/><path d="M459.8438,57.9688 C458.9063,57.5313 458.3125,57.3906 457.4375,57.3906 C454.8125,57.3906 452.8125,59.4688 452.8125,62.1875 L452.8125,63.3125 C452.8125,65.8906 454.9219,67.7813 457.8125,67.7813 C459.0313,67.7813 460.1875,67.4844 460.9375,66.9375 C461.5156,66.5313 461.8438,66.0781 461.8438,65.6875 C461.8438,65.2344 461.4531,64.8438 460.9844,64.8438 C460.7656,64.8438 460.5625,64.9219 460.375,65.1094 C459.9219,65.5938 459.9219,65.5938 459.7344,65.6875 C459.3125,65.9531 458.625,66.0781 457.8594,66.0781 C455.8125,66.0781 454.5156,64.9844 454.5156,63.2813 L454.5156,62.1875 C454.5156,60.4063 455.7656,59.0938 457.5,59.0938 C458.0781,59.0938 458.6875,59.25 459.1563,59.5 C459.6406,59.7813 459.8125,60 459.9063,60.4063 C459.9688,60.8125 460,60.9375 460.1406,61.0625 C460.2813,61.2031 460.5156,61.3125 460.7344,61.3125 C461,61.3125 461.2656,61.1719 461.4375,60.9531 C461.5469,60.7969 461.5781,60.6094 461.5781,60.1875 L461.5781,58.7656 C461.5781,58.3281 461.5625,58.2031 461.4688,58.0469 C461.3125,57.7813 461.0313,57.6406 460.7344,57.6406 C460.4375,57.6406 460.2344,57.7344 460.0156,58.0469 L459.8438,57.9688 Z " fill="#000000"/><text fill="#000000" font-family="sans-serif" font-size="14" lengthAdjust="spacing" textLength="107" x="474.5" y="64.292">VideoRecorder</text><rect fill="#E2E2F0" height="36" rx="2.5" ry="2.5" style="stroke:#181818;stroke-width:0.5;" width="149" x="439.5" y="1165.6172"/><ellipse cx="457.5" cy="1183.6172" fill="#ADD1B2" rx="11" ry="11" style="stroke:#181818;stroke-width:1.0;"/><path d="M459.8438,1179.2891 C458.9063,1178.8516 458.3125,1178.7109 457.4375,1178.7109 C454.8125,1178.7109 452.8125,1180.7891 452.8125,1183.5078 L452.8125,1184.6328 C452.8125,1187.2109 454.9219,1189.1016 457.8125,1189.1016 C459.0313,1189.1016 460.1875,1188.8047 460.9375,1188.2578 C461.5156,1187.8516 461.8438,1187.3984 461.8438,1187.0078 C461.8438,1186.5547 461.4531,1186.1641 460.9844,1186.1641 C460.7656,1186.1641 460.5625,1186.2422 460.375,1186.4297 C459.9219,1186.9141 459.9219,1186.9141 459.7344,1187.0078 C459.3125,1187.2734 458.625,1187.3984 457.8594,1187.3984 C455.8125,1187.3984 454.5156,1186.3047 454.5156,1184.6016 L454.5156,1183.5078 C454.5156,1181.7266 455.7656,1180.4141 457.5,1180.4141 C458.0781,1180.4141 458.6875,1180.5703 459.1563,1180.8203 C459.6406,1181.1016 459.8125,1181.3203 459.9063,1181.7266 C459.9688,1182.1328 460,1182.2578 460.1406,1182.3828 C460.2813,1182.5234 460.5156,1182.6328 460.7344,1182.6328 C461,1182.6328 461.2656,1182.4922 461.4375,1182.2734 C461.5469,1182.1172 461.5781,1181.9297 461.5781,1181.5078 L461.5781,1180.0859 C461.5781,1179.6484 461.5625,1179.5234 461.4688,1179.3672 C461.3125,1179.1016 461.0313,1178.9609 460.7344,1178.9609 C460.4375,1178.9609 460.2344,1179.0547 460.0156,1179.3672 L459.8438,1179.2891 Z " fill="#000000"/><text fill="#000000" font-family="sans-serif" font-size="14" lengthAdjust="spacing" textLength="107" x="474.5" y="1185.6123">VideoRecorder</text><rect fill="#E2E2F0" height="36" rx="2.5" ry="2.5" style="stroke:#181818;stroke-width:0.5;" width="112" x="619" y="44.2969"/><ellipse cx="637" cy="62.2969" fill="#ADD1B2" rx="11" ry="11" style="stroke:#181818;stroke-width:1.0;"/><path d="M639.3438,57.9688 C638.4063,57.5313 637.8125,57.3906 636.9375,57.3906 C634.3125,57.3906 632.3125,59.4688 632.3125,62.1875 L632.3125,63.3125 C632.3125,65.8906 634.4219,67.7813 637.3125,67.7813 C638.5313,67.7813 639.6875,67.4844 640.4375,66.9375 C641.0156,66.5313 641.3438,66.0781 641.3438,65.6875 C641.3438,65.2344 640.9531,64.8438 640.4844,64.8438 C640.2656,64.8438 640.0625,64.9219 639.875,65.1094 C639.4219,65.5938 639.4219,65.5938 639.2344,65.6875 C638.8125,65.9531 638.125,66.0781 637.3594,66.0781 C635.3125,66.0781 634.0156,64.9844 634.0156,63.2813 L634.0156,62.1875 C634.0156,60.4063 635.2656,59.0938 637,59.0938 C637.5781,59.0938 638.1875,59.25 638.6563,59.5 C639.1406,59.7813 639.3125,60 639.4063,60.4063 C639.4688,60.8125 639.5,60.9375 639.6406,61.0625 C639.7813,61.2031 640.0156,61.3125 640.2344,61.3125 C640.5,61.3125 640.7656,61.1719 640.9375,60.9531 C641.0469,60.7969 641.0781,60.6094 641.0781,60.1875 L641.0781,58.7656 C641.0781,58.3281 641.0625,58.2031 640.9688,58.0469 C640.8125,57.7813 640.5313,57.6406 640.2344,57.6406 C639.9375,57.6406 639.7344,57.7344 639.5156,58.0469 L639.3438,57.9688 Z " fill="#000000"/><text fill="#000000" font-family="sans-serif" font-size="14" lengthAdjust="spacing" textLength="70" x="654" y="64.292">FaceMesh</text><rect fill="#E2E2F0" height="36" rx="2.5" ry="2.5" style="stroke:#181818;stroke-width:0.5;" width="112" x="619" y="1165.6172"/><ellipse cx="637" cy="1183.6172" fill="#ADD1B2" rx="11" ry="11" style="stroke:#181818;stroke-width:1.0;"/><path d="M639.3438,1179.2891 C638.4063,1178.8516 637.8125,1178.7109 636.9375,1178.7109 C634.3125,1178.7109 632.3125,1180.7891 632.3125,1183.5078 L632.3125,1184.6328 C632.3125,1187.2109 634.4219,1189.1016 637.3125,1189.1016 C638.5313,1189.1016 639.6875,1188.8047 640.4375,1188.2578 C641.0156,1187.8516 641.3438,1187.3984 641.3438,1187.0078 C641.3438,1186.5547 640.9531,1186.1641 640.4844,1186.1641 C640.2656,1186.1641 640.0625,1186.2422 639.875,1186.4297 C639.4219,1186.9141 639.4219,1186.9141 639.2344,1187.0078 C638.8125,1187.2734 638.125,1187.3984 637.3594,1187.3984 C635.3125,1187.3984 634.0156,1186.3047 634.0156,1184.6016 L634.0156,1183.5078 C634.0156,1181.7266 635.2656,1180.4141 637,1180.4141 C637.5781,1180.4141 638.1875,1180.5703 638.6563,1180.8203 C639.1406,1181.1016 639.3125,1181.3203 639.4063,1181.7266 C639.4688,1182.1328 639.5,1182.2578 639.6406,1182.3828 C639.7813,1182.5234 640.0156,1182.6328 640.2344,1182.6328 C640.5,1182.6328 640.7656,1182.4922 640.9375,1182.2734 C641.0469,1182.1172 641.0781,1181.9297 641.0781,1181.5078 L641.0781,1180.0859 C641.0781,1179.6484 641.0625,1179.5234 640.9688,1179.3672 C640.8125,1179.1016 640.5313,1178.9609 640.2344,1178.9609 C639.9375,1178.9609 639.7344,1179.0547 639.5156,1179.3672 L639.3438,1179.2891 Z " fill="#000000"/><text fill="#000000" font-family="sans-serif" font-size="14" lengthAdjust="spacing" textLength="70" x="654" y="1185.6123">FaceMesh</text><rect fill="#E2E2F0" height="36" rx="2.5" ry="2.5" style="stroke:#181818;stroke-width:0.5;" width="108" x="791" y="44.2969"/><ellipse cx="809" cy="62.2969" fill="#ADD1B2" rx="11" ry="11" style="stroke:#181818;stroke-width:1.0;"/><path d="M811.3438,57.9688 C810.4063,57.5313 809.8125,57.3906 808.9375,57.3906 C806.3125,57.3906 804.3125,59.4688 804.3125,62.1875 L804.3125,63.3125 C804.3125,65.8906 806.4219,67.7813 809.3125,67.7813 C810.5313,67.7813 811.6875,67.4844 812.4375,66.9375 C813.0156,66.5313 813.3438,66.0781 813.3438,65.6875 C813.3438,65.2344 812.9531,64.8438 812.4844,64.8438 C812.2656,64.8438 812.0625,64.9219 811.875,65.1094 C811.4219,65.5938 811.4219,65.5938 811.2344,65.6875 C810.8125,65.9531 810.125,66.0781 809.3594,66.0781 C807.3125,66.0781 806.0156,64.9844 806.0156,63.2813 L806.0156,62.1875 C806.0156,60.4063 807.2656,59.0938 809,59.0938 C809.5781,59.0938 810.1875,59.25 810.6563,59.5 C811.1406,59.7813 811.3125,60 811.4063,60.4063 C811.4688,60.8125 811.5,60.9375 811.6406,61.0625 C811.7813,61.2031 812.0156,61.3125 812.2344,61.3125 C812.5,61.3125 812.7656,61.1719 812.9375,60.9531 C813.0469,60.7969 813.0781,60.6094 813.0781,60.1875 L813.0781,58.7656 C813.0781,58.3281 813.0625,58.2031 812.9688,58.0469 C812.8125,57.7813 812.5313,57.6406 812.2344,57.6406 C811.9375,57.6406 811.7344,57.7344 811.5156,58.0469 L811.3438,57.9688 Z " fill="#000000"/><text fill="#000000" font-family="sans-serif" font-size="14" lengthAdjust="spacing" textLength="66" x="826" y="64.292">Detector</text><rect fill="#E2E2F0" height="36" rx="2.5" ry="2.5" style="stroke:#181818;stroke-width:0.5;" width="108" x="791" y="1165.6172"/><ellipse cx="809" cy="1183.6172" fill="#ADD1B2" rx="11" ry="11" style="stroke:#181818;stroke-width:1.0;"/><path d="M811.3438,1179.2891 C810.4063,1178.8516 809.8125,1178.7109 808.9375,1178.7109 C806.3125,1178.7109 804.3125,1180.7891 804.3125,1183.5078 L804.3125,1184.6328 C804.3125,1187.2109 806.4219,1189.1016 809.3125,1189.1016 C810.5313,1189.1016 811.6875,1188.8047 812.4375,1188.2578 C813.0156,1187.8516 813.3438,1187.3984 813.3438,1187.0078 C813.3438,1186.5547 812.9531,1186.1641 812.4844,1186.1641 C812.2656,1186.1641 812.0625,1186.2422 811.875,1186.4297 C811.4219,1186.9141 811.4219,1186.9141 811.2344,1187.0078 C810.8125,1187.2734 810.125,1187.3984 809.3594,1187.3984 C807.3125,1187.3984 806.0156,1186.3047 806.0156,1184.6016 L806.0156,1183.5078 C806.0156,1181.7266 807.2656,1180.4141 809,1180.4141 C809.5781,1180.4141 810.1875,1180.5703 810.6563,1180.8203 C811.1406,1181.1016 811.3125,1181.3203 811.4063,1181.7266 C811.4688,1182.1328 811.5,1182.2578 811.6406,1182.3828 C811.7813,1182.5234 812.0156,1182.6328 812.2344,1182.6328 C812.5,1182.6328 812.7656,1182.4922 812.9375,1182.2734 C813.0469,1182.1172 813.0781,1181.9297 813.0781,1181.5078 L813.0781,1180.0859 C813.0781,1179.6484 813.0625,1179.5234 812.9688,1179.3672 C812.8125,1179.1016 812.5313,1178.9609 812.2344,1178.9609 C811.9375,1178.9609 811.7344,1179.0547 811.5156,1179.3672 L811.3438,1179.2891 Z " fill="#000000"/><text fill="#000000" font-family="sans-serif" font-size="14" lengthAdjust="spacing" textLength="66" x="826" y="1185.6123">Detector</text><rect fill="#E2E2F0" height="36" rx="2.5" ry="2.5" style="stroke:#181818;stroke-width:0.5;" width="108" x="950" y="44.2969"/><ellipse cx="968" cy="62.2969" fill="#ADD1B2" rx="11" ry="11" style="stroke:#181818;stroke-width:1.0;"/><path d="M970.3438,57.9688 C969.4063,57.5313 968.8125,57.3906 967.9375,57.3906 C965.3125,57.3906 963.3125,59.4688 963.3125,62.1875 L963.3125,63.3125 C963.3125,65.8906 965.4219,67.7813 968.3125,67.7813 C969.5313,67.7813 970.6875,67.4844 971.4375,66.9375 C972.0156,66.5313 972.3438,66.0781 972.3438,65.6875 C972.3438,65.2344 971.9531,64.8438 971.4844,64.8438 C971.2656,64.8438 971.0625,64.9219 970.875,65.1094 C970.4219,65.5938 970.4219,65.5938 970.2344,65.6875 C969.8125,65.9531 969.125,66.0781 968.3594,66.0781 C966.3125,66.0781 965.0156,64.9844 965.0156,63.2813 L965.0156,62.1875 C965.0156,60.4063 966.2656,59.0938 968,59.0938 C968.5781,59.0938 969.1875,59.25 969.6563,59.5 C970.1406,59.7813 970.3125,60 970.4063,60.4063 C970.4688,60.8125 970.5,60.9375 970.6406,61.0625 C970.7813,61.2031 971.0156,61.3125 971.2344,61.3125 C971.5,61.3125 971.7656,61.1719 971.9375,60.9531 C972.0469,60.7969 972.0781,60.6094 972.0781,60.1875 L972.0781,58.7656 C972.0781,58.3281 972.0625,58.2031 971.9688,58.0469 C971.8125,57.7813 971.5313,57.6406 971.2344,57.6406 C970.9375,57.6406 970.7344,57.7344 970.5156,58.0469 L970.3438,57.9688 Z " fill="#000000"/><text fill="#000000" font-family="sans-serif" font-size="14" lengthAdjust="spacing" textLength="66" x="985" y="64.292">Loudness</text><rect fill="#E2E2F0" height="36" rx="2.5" ry="2.5" style="stroke:#181818;stroke-width:0.5;" width="108" x="950" y="1165.6172"/><ellipse cx="968" cy="1183.6172" fill="#ADD1B2" rx="11" ry="11" style="stroke:#181818;stroke-width:1.0;"/><path d="M970.3438,1179.2891 C969.4063,1178.8516 968.8125,1178.7109 967.9375,1178.7109 C965.3125,1178.7109 963.3125,1180.7891 963.3125,1183.5078 L963.3125,1184.6328 C963.3125,1187.2109 965.4219,1189.1016 968.3125,1189.1016 C969.5313,1189.1016 970.6875,1188.8047 971.4375,1188.2578 C972.0156,1187.8516 972.3438,1187.3984 972.3438,1187.0078 C972.3438,1186.5547 971.9531,1186.1641 971.4844,1186.1641 C971.2656,1186.1641 971.0625,1186.2422 970.875,1186.4297 C970.4219,1186.9141 970.4219,1186.9141 970.2344,1187.0078 C969.8125,1187.2734 969.125,1187.3984 968.3594,1187.3984 C966.3125,1187.3984 965.0156,1186.3047 965.0156,1184.6016 L965.0156,1183.5078 C965.0156,1181.7266 966.2656,1180.4141 968,1180.4141 C968.5781,1180.4141 969.1875,1180.5703 969.6563,1180.8203 C970.1406,1181.1016 970.3125,1181.3203 970.4063,1181.7266 C970.4688,1182.1328 970.5,1182.2578 970.6406,1182.3828 C970.7813,1182.5234 971.0156,1182.6328 971.2344,1182.6328 C971.5,1182.6328 971.7656,1182.4922 971.9375,1182.2734 C972.0469,1182.1172 972.0781,1181.9297 972.0781,1181.5078 L972.0781,1180.0859 C972.0781,1179.6484 972.0625,1179.5234 971.9688,1179.3672 C971.8125,1179.1016 971.5313,1178.9609 971.2344,1178.9609 C970.9375,1178.9609 970.7344,1179.0547 970.5156,1179.3672 L970.3438,1179.2891 Z " fill="#000000"/><text fill="#000000" font-family="sans-serif" font-size="14" lengthAdjust="spacing" textLength="66" x="985" y="1185.6123">Loudness</text><rect fill="#E2E2F0" height="36" rx="2.5" ry="2.5" style="stroke:#181818;stroke-width:0.5;" width="122" x="1088" y="44.2969"/><ellipse cx="1106" cy="62.2969" fill="#ADD1B2" rx="11" ry="11" style="stroke:#181818;stroke-width:1.0;"/><path d="M1108.3438,57.9688 C1107.4063,57.5313 1106.8125,57.3906 1105.9375,57.3906 C1103.3125,57.3906 1101.3125,59.4688 1101.3125,62.1875 L1101.3125,63.3125 C1101.3125,65.8906 1103.4219,67.7813 1106.3125,67.7813 C1107.5313,67.7813 1108.6875,67.4844 1109.4375,66.9375 C1110.0156,66.5313 1110.3438,66.0781 1110.3438,65.6875 C1110.3438,65.2344 1109.9531,64.8438 1109.4844,64.8438 C1109.2656,64.8438 1109.0625,64.9219 1108.875,65.1094 C1108.4219,65.5938 1108.4219,65.5938 1108.2344,65.6875 C1107.8125,65.9531 1107.125,66.0781 1106.3594,66.0781 C1104.3125,66.0781 1103.0156,64.9844 1103.0156,63.2813 L1103.0156,62.1875 C1103.0156,60.4063 1104.2656,59.0938 1106,59.0938 C1106.5781,59.0938 1107.1875,59.25 1107.6563,59.5 C1108.1406,59.7813 1108.3125,60 1108.4063,60.4063 C1108.4688,60.8125 1108.5,60.9375 1108.6406,61.0625 C1108.7813,61.2031 1109.0156,61.3125 1109.2344,61.3125 C1109.5,61.3125 1109.7656,61.1719 1109.9375,60.9531 C1110.0469,60.7969 1110.0781,60.6094 1110.0781,60.1875 L1110.0781,58.7656 C1110.0781,58.3281 1110.0625,58.2031 1109.9688,58.0469 C1109.8125,57.7813 1109.5313,57.6406 1109.2344,57.6406 C1108.9375,57.6406 1108.7344,57.7344 1108.5156,58.0469 L1108.3438,57.9688 Z " fill="#000000"/><text fill="#000000" font-family="sans-serif" font-size="14" lengthAdjust="spacing" textLength="80" x="1123" y="64.292">Distraction</text><rect fill="#E2E2F0" height="36" rx="2.5" ry="2.5" style="stroke:#181818;stroke-width:0.5;" width="122" x="1088" y="1165.6172"/><ellipse cx="1106" cy="1183.6172" fill="#ADD1B2" rx="11" ry="11" style="stroke:#181818;stroke-width:1.0;"/><path d="M1108.3438,1179.2891 C1107.4063,1178.8516 1106.8125,1178.7109 1105.9375,1178.7109 C1103.3125,1178.7109 1101.3125,1180.7891 1101.3125,1183.5078 L1101.3125,1184.6328 C1101.3125,1187.2109 1103.4219,1189.1016 1106.3125,1189.1016 C1107.5313,1189.1016 1108.6875,1188.8047 1109.4375,1188.2578 C1110.0156,1187.8516 1110.3438,1187.3984 1110.3438,1187.0078 C1110.3438,1186.5547 1109.9531,1186.1641 1109.4844,1186.1641 C1109.2656,1186.1641 1109.0625,1186.2422 1108.875,1186.4297 C1108.4219,1186.9141 1108.4219,1186.9141 1108.2344,1187.0078 C1107.8125,1187.2734 1107.125,1187.3984 1106.3594,1187.3984 C1104.3125,1187.3984 1103.0156,1186.3047 1103.0156,1184.6016 L1103.0156,1183.5078 C1103.0156,1181.7266 1104.2656,1180.4141 1106,1180.4141 C1106.5781,1180.4141 1107.1875,1180.5703 1107.6563,1180.8203 C1108.1406,1181.1016 1108.3125,1181.3203 1108.4063,1181.7266 C1108.4688,1182.1328 1108.5,1182.2578 1108.6406,1182.3828 C1108.7813,1182.5234 1109.0156,1182.6328 1109.2344,1182.6328 C1109.5,1182.6328 1109.7656,1182.4922 1109.9375,1182.2734 C1110.0469,1182.1172 1110.0781,1181.9297 1110.0781,1181.5078 L1110.0781,1180.0859 C1110.0781,1179.6484 1110.0625,1179.5234 1109.9688,1179.3672 C1109.8125,1179.1016 1109.5313,1178.9609 1109.2344,1178.9609 C1108.9375,1178.9609 1108.7344,1179.0547 1108.5156,1179.3672 L1108.3438,1179.2891 Z " fill="#000000"/><text fill="#000000" font-family="sans-serif" font-size="14" lengthAdjust="spacing" textLength="80" x="1123" y="1185.6123">Distraction</text><rect fill="#E2E2F0" height="36" rx="2.5" ry="2.5" style="stroke:#181818;stroke-width:0.5;" width="122" x="1250" y="44.2969"/><ellipse cx="1268" cy="62.2969" fill="#ADD1B2" rx="11" ry="11" style="stroke:#181818;stroke-width:1.0;"/><path d="M1270.3438,57.9688 C1269.4063,57.5313 1268.8125,57.3906 1267.9375,57.3906 C1265.3125,57.3906 1263.3125,59.4688 1263.3125,62.1875 L1263.3125,63.3125 C1263.3125,65.8906 1265.4219,67.7813 1268.3125,67.7813 C1269.5313,67.7813 1270.6875,67.4844 1271.4375,66.9375 C1272.0156,66.5313 1272.3438,66.0781 1272.3438,65.6875 C1272.3438,65.2344 1271.9531,64.8438 1271.4844,64.8438 C1271.2656,64.8438 1271.0625,64.9219 1270.875,65.1094 C1270.4219,65.5938 1270.4219,65.5938 1270.2344,65.6875 C1269.8125,65.9531 1269.125,66.0781 1268.3594,66.0781 C1266.3125,66.0781 1265.0156,64.9844 1265.0156,63.2813 L1265.0156,62.1875 C1265.0156,60.4063 1266.2656,59.0938 1268,59.0938 C1268.5781,59.0938 1269.1875,59.25 1269.6563,59.5 C1270.1406,59.7813 1270.3125,60 1270.4063,60.4063 C1270.4688,60.8125 1270.5,60.9375 1270.6406,61.0625 C1270.7813,61.2031 1271.0156,61.3125 1271.2344,61.3125 C1271.5,61.3125 1271.7656,61.1719 1271.9375,60.9531 C1272.0469,60.7969 1272.0781,60.6094 1272.0781,60.1875 L1272.0781,58.7656 C1272.0781,58.3281 1272.0625,58.2031 1271.9688,58.0469 C1271.8125,57.7813 1271.5313,57.6406 1271.2344,57.6406 C1270.9375,57.6406 1270.7344,57.7344 1270.5156,58.0469 L1270.3438,57.9688 Z " fill="#000000"/><text fill="#000000" font-family="sans-serif" font-size="14" lengthAdjust="spacing" textLength="80" x="1285" y="64.292">Drowsiness</text><rect fill="#E2E2F0" height="36" rx="2.5" ry="2.5" style="stroke:#181818;stroke-width:0.5;" width="122" x="1250" y="1165.6172"/><ellipse cx="1268" cy="1183.6172" fill="#ADD1B2" rx="11" ry="11" style="stroke:#181818;stroke-width:1.0;"/><path d="M1270.3438,1179.2891 C1269.4063,1178.8516 1268.8125,1178.7109 1267.9375,1178.7109 C1265.3125,1178.7109 1263.3125,1180.7891 1263.3125,1183.5078 L1263.3125,1184.6328 C1263.3125,1187.2109 1265.4219,1189.1016 1268.3125,1189.1016 C1269.5313,1189.1016 1270.6875,1188.8047 1271.4375,1188.2578 C1272.0156,1187.8516 1272.3438,1187.3984 1272.3438,1187.0078 C1272.3438,1186.5547 1271.9531,1186.1641 1271.4844,1186.1641 C1271.2656,1186.1641 1271.0625,1186.2422 1270.875,1186.4297 C1270.4219,1186.9141 1270.4219,1186.9141 1270.2344,1187.0078 C1269.8125,1187.2734 1269.125,1187.3984 1268.3594,1187.3984 C1266.3125,1187.3984 1265.0156,1186.3047 1265.0156,1184.6016 L1265.0156,1183.5078 C1265.0156,1181.7266 1266.2656,1180.4141 1268,1180.4141 C1268.5781,1180.4141 1269.1875,1180.5703 1269.6563,1180.8203 C1270.1406,1181.1016 1270.3125,1181.3203 1270.4063,1181.7266 C1270.4688,1182.1328 1270.5,1182.2578 1270.6406,1182.3828 C1270.7813,1182.5234 1271.0156,1182.6328 1271.2344,1182.6328 C1271.5,1182.6328 1271.7656,1182.4922 1271.9375,1182.2734 C1272.0469,1182.1172 1272.0781,1181.9297 1272.0781,1181.5078 L1272.0781,1180.0859 C1272.0781,1179.6484 1272.0625,1179.5234 1271.9688,1179.3672 C1271.8125,1179.1016 1271.5313,1178.9609 1271.2344,1178.9609 C1270.9375,1178.9609 1270.7344,1179.0547 1270.5156,1179.3672 L1270.3438,1179.2891 Z " fill="#000000"/><text fill="#000000" font-family="sans-serif" font-size="14" lengthAdjust="spacing" textLength="80" x="1285" y="1185.6123">Drowsiness</text><rect fill="#E2E2F0" height="36" rx="2.5" ry="2.5" style="stroke:#181818;stroke-width:0.5;" width="136" x="1410" y="44.2969"/><ellipse cx="1428" cy="62.2969" fill="#ADD1B2" rx="11" ry="11" style="stroke:#181818;stroke-width:1.0;"/><path d="M1430.3438,57.9688 C1429.4063,57.5313 1428.8125,57.3906 1427.9375,57.3906 C1425.3125,57.3906 1423.3125,59.4688 1423.3125,62.1875 L1423.3125,63.3125 C1423.3125,65.8906 1425.4219,67.7813 1428.3125,67.7813 C1429.5313,67.7813 1430.6875,67.4844 1431.4375,66.9375 C1432.0156,66.5313 1432.3438,66.0781 1432.3438,65.6875 C1432.3438,65.2344 1431.9531,64.8438 1431.4844,64.8438 C1431.2656,64.8438 1431.0625,64.9219 1430.875,65.1094 C1430.4219,65.5938 1430.4219,65.5938 1430.2344,65.6875 C1429.8125,65.9531 1429.125,66.0781 1428.3594,66.0781 C1426.3125,66.0781 1425.0156,64.9844 1425.0156,63.2813 L1425.0156,62.1875 C1425.0156,60.4063 1426.2656,59.0938 1428,59.0938 C1428.5781,59.0938 1429.1875,59.25 1429.6563,59.5 C1430.1406,59.7813 1430.3125,60 1430.4063,60.4063 C1430.4688,60.8125 1430.5,60.9375 1430.6406,61.0625 C1430.7813,61.2031 1431.0156,61.3125 1431.2344,61.3125 C1431.5,61.3125 1431.7656,61.1719 1431.9375,60.9531 C1432.0469,60.7969 1432.0781,60.6094 1432.0781,60.1875 L1432.0781,58.7656 C1432.0781,58.3281 1432.0625,58.2031 1431.9688,58.0469 C1431.8125,57.7813 1431.5313,57.6406 1431.2344,57.6406 C1430.9375,57.6406 1430.7344,57.7344 1430.5156,58.0469 L1430.3438,57.9688 Z " fill="#000000"/><text fill="#000000" font-family="sans-serif" font-size="14" lengthAdjust="spacing" textLength="94" x="1445" y="64.292">LookingAway</text><rect fill="#E2E2F0" height="36" rx="2.5" ry="2.5" style="stroke:#181818;stroke-width:0.5;" width="136" x="1410" y="1165.6172"/><ellipse cx="1428" cy="1183.6172" fill="#ADD1B2" rx="11" ry="11" style="stroke:#181818;stroke-width:1.0;"/><path d="M1430.3438,1179.2891 C1429.4063,1178.8516 1428.8125,1178.7109 1427.9375,1178.7109 C1425.3125,1178.7109 1423.3125,1180.7891 1423.3125,1183.5078 L1423.3125,1184.6328 C1423.3125,1187.2109 1425.4219,1189.1016 1428.3125,1189.1016 C1429.5313,1189.1016 1430.6875,1188.8047 1431.4375,1188.2578 C1432.0156,1187.8516 1432.3438,1187.3984 1432.3438,1187.0078 C1432.3438,1186.5547 1431.9531,1186.1641 1431.4844,1186.1641 C1431.2656,1186.1641 1431.0625,1186.2422 1430.875,1186.4297 C1430.4219,1186.9141 1430.4219,1186.9141 1430.2344,1187.0078 C1429.8125,1187.2734 1429.125,1187.3984 1428.3594,1187.3984 C1426.3125,1187.3984 1425.0156,1186.3047 1425.0156,1184.6016 L1425.0156,1183.5078 C1425.0156,1181.7266 1426.2656,1180.4141 1428,1180.4141 C1428.5781,1180.4141 1429.1875,1180.5703 1429.6563,1180.8203 C1430.1406,1181.1016 1430.3125,1181.3203 1430.4063,1181.7266 C1430.4688,1182.1328 1430.5,1182.2578 1430.6406,1182.3828 C1430.7813,1182.5234 1431.0156,1182.6328 1431.2344,1182.6328 C1431.5,1182.6328 1431.7656,1182.4922 1431.9375,1182.2734 C1432.0469,1182.1172 1432.0781,1181.9297 1432.0781,1181.5078 L1432.0781,1180.0859 C1432.0781,1179.6484 1432.0625,1179.5234 1431.9688,1179.3672 C1431.8125,1179.1016 1431.5313,1178.9609 1431.2344,1178.9609 C1430.9375,1178.9609 1430.7344,1179.0547 1430.5156,1179.3672 L1430.3438,1179.2891 Z " fill="#000000"/><text fill="#000000" font-family="sans-serif" font-size="14" lengthAdjust="spacing" textLength="94" x="1445" y="1185.6123">LookingAway</text><rect fill="#FFFFFF" height="1045.1875" style="stroke:#181818;stroke-width:1.0;" width="10" x="169.5" y="112.4297"/><rect fill="#FFFFFF" height="1016.0547" style="stroke:#181818;stroke-width:1.0;" width="10" x="350.5" y="141.5625"/><rect fill="#FFFFFF" height="986.9219" style="stroke:#181818;stroke-width:1.0;" width="10" x="509" y="170.6953"/><rect fill="#FFFFFF" height="73.3984" style="stroke:#181818;stroke-width:1.0;" width="10" x="670" y="263.7031"/><rect fill="#FFFFFF" height="848.7813" style="stroke:#181818;stroke-width:1.0;" width="10" x="840" y="234.5703"/><rect fill="#FFFFFF" height="101.5313" style="stroke:#181818;stroke-width:1.0;" width="10" x="999" y="366.2344"/><rect fill="#FFFFFF" height="101.5313" style="stroke:#181818;stroke-width:1.0;" width="10" x="1144" y="496.8984"/><rect fill="#FFFFFF" height="101.5313" style="stroke:#181818;stroke-width:1.0;" width="10" x="1306" y="657.8281"/><rect fill="#FFFFFF" height="101.5313" style="stroke:#181818;stroke-width:1.0;" width="10" x="1473" y="818.7578"/><polygon fill="#181818" points="157.5,108.4297,167.5,112.4297,157.5,116.4297,161.5,112.4297" style="stroke:#181818;stroke-width:1.0;"/><line style="stroke:#181818;stroke-width:1.0;" x1="38.5" x2="163.5" y1="112.4297" y2="112.4297"/><text fill="#000000" font-family="sans-serif" font-size="13" font-weight="bold" lengthAdjust="spacing" textLength="9" x="45.5" y="107.3638">1</text><text fill="#000000" font-family="sans-serif" font-size="13" lengthAdjust="spacing" textLength="99" x="58.5" y="107.3638">Start Recording</text><polygon fill="#181818" points="338.5,137.5625,348.5,141.5625,338.5,145.5625,342.5,141.5625" style="stroke:#181818;stroke-width:1.0;"/><line style="stroke:#181818;stroke-width:1.0;" x1="179.5" x2="344.5" y1="141.5625" y2="141.5625"/><text fill="#000000" font-family="sans-serif" font-size="13" font-weight="bold" lengthAdjust="spacing" textLength="9" x="186.5" y="136.4966">2</text><text fill="#000000" font-family="sans-serif" font-size="13" lengthAdjust="spacing" textLength="139" x="199.5" y="136.4966">Start Audio Recording</text><polygon fill="#181818" points="497,166.6953,507,170.6953,497,174.6953,501,170.6953" style="stroke:#181818;stroke-width:1.0;"/><line style="stroke:#181818;stroke-width:1.0;" x1="179.5" x2="503" y1="170.6953" y2="170.6953"/><text fill="#000000" font-family="sans-serif" font-size="13" font-weight="bold" lengthAdjust="spacing" textLength="8" x="186.5" y="165.6294">3</text><text fill="#000000" font-family="sans-serif" font-size="13" lengthAdjust="spacing" textLength="139" x="198.5" y="165.6294">Start Video Recording</text><path d="M10,185.6953 L88,185.6953 L88,192.8281 L78,202.8281 L10,202.8281 L10,185.6953 " fill="#EEEEEE" style="stroke:#000000;stroke-width:1.5;"/><rect fill="none" height="963.9219" style="stroke:#000000;stroke-width:1.5;" width="1646" x="10" y="185.6953"/><text fill="#000000" font-family="sans-serif" font-size="13" font-weight="bold" lengthAdjust="spacing" textLength="33" x="25" y="198.7622">loop</text><text fill="#000000" font-family="sans-serif" font-size="11" font-weight="bold" lengthAdjust="spacing" textLength="100" x="103" y="197.9058">[if Video/Audio</text><text fill="#000000" font-family="sans-serif" font-size="11" font-weight="bold" lengthAdjust="spacing" textLength="107" x="103" y="210.7104">Stream is Open]</text><polygon fill="#181818" points="828,230.5703,838,234.5703,828,238.5703,832,234.5703" style="stroke:#181818;stroke-width:1.0;"/><line style="stroke:#181818;stroke-width:1.0;" x1="360.5" x2="834" y1="234.5703" y2="234.5703"/><text fill="#000000" font-family="sans-serif" font-size="13" font-weight="bold" lengthAdjust="spacing" textLength="9" x="367.5" y="229.5044">4</text><text fill="#000000" font-family="sans-serif" font-size="13" lengthAdjust="spacing" textLength="117" x="380.5" y="229.5044">Send Audio Frame</text><polygon fill="#181818" points="658,259.7031,668,263.7031,658,267.7031,662,263.7031" style="stroke:#181818;stroke-width:1.0;"/><line style="stroke:#181818;stroke-width:1.0;" x1="519" x2="664" y1="263.7031" y2="263.7031"/><text fill="#000000" font-family="sans-serif" font-size="13" font-weight="bold" lengthAdjust="spacing" textLength="9" x="526" y="258.6372">5</text><text fill="#000000" font-family="sans-serif" font-size="13" lengthAdjust="spacing" textLength="117" x="539" y="258.6372">Send Video Frame</text><polygon fill="#181818" points="828,303.9688,838,307.9688,828,311.9688,832,307.9688" style="stroke:#181818;stroke-width:1.0;"/><line style="stroke:#181818;stroke-width:1.0;" x1="680" x2="834" y1="307.9688" y2="307.9688"/><text fill="#000000" font-family="sans-serif" font-size="13" font-weight="bold" lengthAdjust="spacing" textLength="9" x="687" y="295.3364">6</text><text fill="#000000" font-family="sans-serif" font-size="13" lengthAdjust="spacing" textLength="123" x="700" y="287.77">Compute and Send</text><text fill="#000000" font-family="sans-serif" font-size="13" lengthAdjust="spacing" textLength="111" x="700" y="302.9028">Facial Landmarks</text><polygon fill="#181818" points="530,333.1016,520,337.1016,530,341.1016,526,337.1016" style="stroke:#181818;stroke-width:1.0;"/><line style="stroke:#181818;stroke-width:1.0;stroke-dasharray:2.0,2.0;" x1="524" x2="674" y1="337.1016" y2="337.1016"/><text fill="#000000" font-family="sans-serif" font-size="13" font-weight="bold" lengthAdjust="spacing" textLength="9" x="536" y="332.0356">7</text><text fill="#000000" font-family="sans-serif" font-size="13" lengthAdjust="spacing" textLength="114" x="549" y="332.0356">No Face Detected</text><polygon fill="#181818" points="987,362.2344,997,366.2344,987,370.2344,991,366.2344" style="stroke:#181818;stroke-width:1.0;"/><line style="stroke:#181818;stroke-width:1.0;" x1="850" x2="993" y1="366.2344" y2="366.2344"/><text fill="#000000" font-family="sans-serif" font-size="13" font-weight="bold" lengthAdjust="spacing" textLength="9" x="857" y="361.1685">8</text><text fill="#000000" font-family="sans-serif" font-size="13" lengthAdjust="spacing" textLength="117" x="870" y="361.1685">Send Audio Frame</text><line style="stroke:#181818;stroke-width:1.0;" x1="1009" x2="1051" y1="410.5" y2="410.5"/><line style="stroke:#181818;stroke-width:1.0;" x1="1051" x2="1051" y1="410.5" y2="423.5"/><line style="stroke:#181818;stroke-width:1.0;" x1="1010" x2="1051" y1="423.5" y2="423.5"/><polygon fill="#181818" points="1020,419.5,1010,423.5,1020,427.5,1016,423.5" style="stroke:#181818;stroke-width:1.0;"/><text fill="#000000" font-family="sans-serif" font-size="13" font-weight="bold" lengthAdjust="spacing" textLength="9" x="1016" y="397.8677">9</text><text fill="#000000" font-family="sans-serif" font-size="13" lengthAdjust="spacing" textLength="108" x="1029" y="390.3013">Detect Loudness</text><text fill="#000000" font-family="sans-serif" font-size="13" lengthAdjust="spacing" textLength="90" x="1029" y="405.4341">and set Alarm</text><polygon fill="#181818" points="861,463.7656,851,467.7656,861,471.7656,857,467.7656" style="stroke:#181818;stroke-width:1.0;"/><line style="stroke:#181818;stroke-width:1.0;" x1="855" x2="1003" y1="467.7656" y2="467.7656"/><text fill="#000000" font-family="sans-serif" font-size="13" font-weight="bold" lengthAdjust="spacing" textLength="19" x="867" y="455.1333">10</text><text fill="#000000" font-family="sans-serif" font-size="13" lengthAdjust="spacing" textLength="43" x="890" y="447.5669">Return</text><text fill="#000000" font-family="sans-serif" font-size="13" lengthAdjust="spacing" textLength="99" x="890" y="462.6997">Loudness State</text><polygon fill="#181818" points="1132,492.8984,1142,496.8984,1132,500.8984,1136,496.8984" style="stroke:#181818;stroke-width:1.0;"/><line style="stroke:#181818;stroke-width:1.0;" x1="850" x2="1138" y1="496.8984" y2="496.8984"/><text fill="#000000" font-family="sans-serif" font-size="13" font-weight="bold" lengthAdjust="spacing" textLength="18" x="857" y="491.8325">11</text><text fill="#000000" font-family="sans-serif" font-size="13" lengthAdjust="spacing" textLength="117" x="879" y="491.8325">Send Video Frame</text><line style="stroke:#181818;stroke-width:1.0;" x1="1154" x2="1196" y1="541.1641" y2="541.1641"/><line style="stroke:#181818;stroke-width:1.0;" x1="1196" x2="1196" y1="541.1641" y2="554.1641"/><line style="stroke:#181818;stroke-width:1.0;" x1="1155" x2="1196" y1="554.1641" y2="554.1641"/><polygon fill="#181818" points="1165,550.1641,1155,554.1641,1165,558.1641,1161,554.1641" style="stroke:#181818;stroke-width:1.0;"/><text fill="#000000" font-family="sans-serif" font-size="13" font-weight="bold" lengthAdjust="spacing" textLength="18" x="1161" y="528.5317">12</text><text fill="#000000" font-family="sans-serif" font-size="13" lengthAdjust="spacing" textLength="116" x="1183" y="520.9653">Detect Distraction</text><text fill="#000000" font-family="sans-serif" font-size="13" lengthAdjust="spacing" textLength="90" x="1183" y="536.0981">and set Alarm</text><polygon fill="#181818" points="861,594.4297,851,598.4297,861,602.4297,857,598.4297" style="stroke:#181818;stroke-width:1.0;"/><line style="stroke:#181818;stroke-width:1.0;" x1="855" x2="1148" y1="598.4297" y2="598.4297"/><text fill="#000000" font-family="sans-serif" font-size="13" font-weight="bold" lengthAdjust="spacing" textLength="17" x="867" y="585.7974">13</text><text fill="#000000" font-family="sans-serif" font-size="13" lengthAdjust="spacing" textLength="43" x="888" y="578.231">Return</text><text fill="#000000" font-family="sans-serif" font-size="13" lengthAdjust="spacing" textLength="107" x="888" y="593.3638">Distraction State</text><polygon fill="#181818" points="1294,653.8281,1304,657.8281,1294,661.8281,1298,657.8281" style="stroke:#181818;stroke-width:1.0;"/><line style="stroke:#181818;stroke-width:1.0;" x1="850" x2="1300" y1="657.8281" y2="657.8281"/><text fill="#000000" font-family="sans-serif" font-size="13" font-weight="bold" lengthAdjust="spacing" textLength="18" x="857" y="637.6294">14</text><text fill="#000000" font-family="sans-serif" font-size="13" lengthAdjust="spacing" textLength="117" x="879" y="622.4966">Send Video Frame</text><text fill="#000000" font-family="sans-serif" font-size="13" lengthAdjust="spacing" textLength="64" x="879" y="637.6294">and Facial</text><text fill="#000000" font-family="sans-serif" font-size="13" lengthAdjust="spacing" textLength="71" x="879" y="652.7622">Landmarks</text><line style="stroke:#181818;stroke-width:1.0;" x1="1316" x2="1358" y1="702.0938" y2="702.0938"/><line style="stroke:#181818;stroke-width:1.0;" x1="1358" x2="1358" y1="702.0938" y2="715.0938"/><line style="stroke:#181818;stroke-width:1.0;" x1="1317" x2="1358" y1="715.0938" y2="715.0938"/><polygon fill="#181818" points="1327,711.0938,1317,715.0938,1327,719.0938,1323,715.0938" style="stroke:#181818;stroke-width:1.0;"/><text fill="#000000" font-family="sans-serif" font-size="13" font-weight="bold" lengthAdjust="spacing" textLength="18" x="1323" y="689.4614">15</text><text fill="#000000" font-family="sans-serif" font-size="13" lengthAdjust="spacing" textLength="121" x="1345" y="681.895">Detect Drowsiness</text><text fill="#000000" font-family="sans-serif" font-size="13" lengthAdjust="spacing" textLength="90" x="1345" y="697.0278">and set Alarm</text><polygon fill="#181818" points="861,755.3594,851,759.3594,861,763.3594,857,759.3594" style="stroke:#181818;stroke-width:1.0;"/><line style="stroke:#181818;stroke-width:1.0;" x1="855" x2="1310" y1="759.3594" y2="759.3594"/><text fill="#000000" font-family="sans-serif" font-size="13" font-weight="bold" lengthAdjust="spacing" textLength="18" x="867" y="746.7271">16</text><text fill="#000000" font-family="sans-serif" font-size="13" lengthAdjust="spacing" textLength="43" x="889" y="739.1606">Return</text><text fill="#000000" font-family="sans-serif" font-size="13" lengthAdjust="spacing" textLength="112" x="889" y="754.2935">Drowsiness State</text><polygon fill="#181818" points="1461,814.7578,1471,818.7578,1461,822.7578,1465,818.7578" style="stroke:#181818;stroke-width:1.0;"/><line style="stroke:#181818;stroke-width:1.0;" x1="850" x2="1467" y1="818.7578" y2="818.7578"/><text fill="#000000" font-family="sans-serif" font-size="13" font-weight="bold" lengthAdjust="spacing" textLength="18" x="857" y="798.5591">17</text><text fill="#000000" font-family="sans-serif" font-size="13" lengthAdjust="spacing" textLength="117" x="879" y="783.4263">Send Video Frame</text><text fill="#000000" font-family="sans-serif" font-size="13" lengthAdjust="spacing" textLength="64" x="879" y="798.5591">and Facial</text><text fill="#000000" font-family="sans-serif" font-size="13" lengthAdjust="spacing" textLength="71" x="879" y="813.6919">Landmarks</text><line style="stroke:#181818;stroke-width:1.0;" x1="1483" x2="1525" y1="863.0234" y2="863.0234"/><line style="stroke:#181818;stroke-width:1.0;" x1="1525" x2="1525" y1="863.0234" y2="876.0234"/><line style="stroke:#181818;stroke-width:1.0;" x1="1484" x2="1525" y1="876.0234" y2="876.0234"/><polygon fill="#181818" points="1494,872.0234,1484,876.0234,1494,880.0234,1490,876.0234" style="stroke:#181818;stroke-width:1.0;"/><text fill="#000000" font-family="sans-serif" font-size="13" font-weight="bold" lengthAdjust="spacing" textLength="18" x="1490" y="850.3911">18</text><text fill="#000000" font-family="sans-serif" font-size="13" lengthAdjust="spacing" textLength="132" x="1512" y="842.8247">Detect LookingAway</text><text fill="#000000" font-family="sans-serif" font-size="13" lengthAdjust="spacing" textLength="90" x="1512" y="857.9575">and set Alarm</text><polygon fill="#181818" points="861,916.2891,851,920.2891,861,924.2891,857,920.2891" style="stroke:#181818;stroke-width:1.0;"/><line style="stroke:#181818;stroke-width:1.0;" x1="855" x2="1477" y1="920.2891" y2="920.2891"/><text fill="#000000" font-family="sans-serif" font-size="13" font-weight="bold" lengthAdjust="spacing" textLength="18" x="867" y="907.6567">19</text><text fill="#000000" font-family="sans-serif" font-size="13" lengthAdjust="spacing" textLength="43" x="889" y="900.0903">Return</text><text fill="#000000" font-family="sans-serif" font-size="13" lengthAdjust="spacing" textLength="123" x="889" y="915.2231">LookingAway State</text><polygon fill="#181818" points="49.5,960.5547,39.5,964.5547,49.5,968.5547,45.5,964.5547" style="stroke:#181818;stroke-width:1.0;"/><line style="stroke:#181818;stroke-width:1.0;stroke-dasharray:2.0,2.0;" x1="43.5" x2="839" y1="964.5547" y2="964.5547"/><text fill="#000000" font-family="sans-serif" font-size="13" font-weight="bold" lengthAdjust="spacing" textLength="19" x="55.5" y="951.9224">20</text><text fill="#000000" font-family="sans-serif" font-size="13" lengthAdjust="spacing" textLength="113" x="78.5" y="944.356">Play Alarm Sound</text><text fill="#000000" font-family="sans-serif" font-size="13" lengthAdjust="spacing" textLength="97" x="78.5" y="959.4888">if Alarm is True</text><polygon fill="#181818" points="530,1019.9531,520,1023.9531,530,1027.9531,526,1023.9531" style="stroke:#181818;stroke-width:1.0;"/><line style="stroke:#181818;stroke-width:1.0;" x1="524" x2="839" y1="1023.9531" y2="1023.9531"/><text fill="#000000" font-family="sans-serif" font-size="13" font-weight="bold" lengthAdjust="spacing" textLength="18" x="536" y="1003.7544">21</text><text fill="#000000" font-family="sans-serif" font-size="13" lengthAdjust="spacing" textLength="43" x="558" y="988.6216">Return</text><text fill="#000000" font-family="sans-serif" font-size="13" lengthAdjust="spacing" textLength="76" x="558" y="1003.7544">Alarm State</text><text fill="#000000" font-family="sans-serif" font-size="13" lengthAdjust="spacing" textLength="100" x="558" y="1018.8872">(Plot in the GUI)</text><polygon fill="#181818" points="371.5,1079.3516,361.5,1083.3516,371.5,1087.3516,367.5,1083.3516" style="stroke:#181818;stroke-width:1.0;"/><line style="stroke:#181818;stroke-width:1.0;" x1="365.5" x2="844" y1="1083.3516" y2="1083.3516"/><text fill="#000000" font-family="sans-serif" font-size="13" font-weight="bold" lengthAdjust="spacing" textLength="18" x="377.5" y="1063.1528">22</text><text fill="#000000" font-family="sans-serif" font-size="13" lengthAdjust="spacing" textLength="43" x="399.5" y="1048.02">Return</text><text fill="#000000" font-family="sans-serif" font-size="13" lengthAdjust="spacing" textLength="76" x="399.5" y="1063.1528">Alarm State</text><text fill="#000000" font-family="sans-serif" font-size="13" lengthAdjust="spacing" textLength="100" x="399.5" y="1078.2856">(Plot in the GUI)</text><polygon fill="#181818" points="49.5,1108.4844,39.5,1112.4844,49.5,1116.4844,45.5,1112.4844" style="stroke:#181818;stroke-width:1.0;"/><line style="stroke:#181818;stroke-width:1.0;stroke-dasharray:2.0,2.0;" x1="43.5" x2="349.5" y1="1112.4844" y2="1112.4844"/><text fill="#000000" font-family="sans-serif" font-size="13" font-weight="bold" lengthAdjust="spacing" textLength="17" x="55.5" y="1107.4185">23</text><text fill="#000000" font-family="sans-serif" font-size="13" lengthAdjust="spacing" textLength="103" x="76.5" y="1107.4185">Plot State in GUI</text><polygon fill="#181818" points="49.5,1137.6172,39.5,1141.6172,49.5,1145.6172,45.5,1141.6172" style="stroke:#181818;stroke-width:1.0;"/><line style="stroke:#181818;stroke-width:1.0;stroke-dasharray:2.0,2.0;" x1="43.5" x2="508" y1="1141.6172" y2="1141.6172"/><text fill="#000000" font-family="sans-serif" font-size="13" font-weight="bold" lengthAdjust="spacing" textLength="18" x="55.5" y="1136.5513">24</text><text fill="#000000" font-family="sans-serif" font-size="13" lengthAdjust="spacing" textLength="103" x="77.5" y="1136.5513">Plot State in GUI</text><!--SRC=[dPHBRzmW58Nt_0gaRXAfLTKiesYaQKQ9AaqUoZHTUKFismJ51WlZHlttlGO3vj5usjdDvV1n3nnVLckfwEC0YlHCQLxpdWbD7w2MgW55BoxeoUN73zlTxilNirEwsKIoxTXmUQJs1s_WMEqLg-46XfSLsGuqcFxVb-tbs0WOXZKQ7xHYjUPIh2cLV1lu4SYzbAzSF6_VsE-2aX0sQYd6xWbldqnlG3zj_DMVquD6rFmVAMIBlVrY6ho447-Vk35w3BVR54kCI1rneeTo75CiSI8r8QsKFUK_RVcpEQGI1ws0TPGFzAu7GGZ5NnmTFDOz9fu8efaRlrAi0wjt1pgTnSIfGeoBpeonVHSmJcUgFczH7vUowqUKCkHCi4gWZhEMxh7ICVKw99lpoxkLPdc6GcCsDC2oBio2ppE2N6ZNhiFfJDKdFG9Oh2zKOZ8q08QZPQhBDeOBU00zAb49lufPq91wY3h8V2o-ghKdMKWjPl51fgJPqw9MifKICcTBGT7SKf0_KXW4kJVRZqqCNc4KcM3P0omx39Q4xlpwKj5kl3rt6zRBPaCtXJpwKVQVNXU4ENDXEAO7-CZwMZcr4Q4Kt23uItP3Jubb14uZ-PpUjxZR74eFSfp60Cut-nydsdSrGfxwP0ouVcRAr4abJkvRgIaNLBy0lNxyTffHaed-3vJbeqRpCXcx2vD8CSY9XPpIT7r7RJz-ZCKV]--></g></svg>