<?xml version="1.0" encoding="us-ascii" standalone="no"?><svg xmlns="http://www.w3.org/2000/svg" xmlns:xlink="http://www.w3.org/1999/xlink" contentStyleType="text/css" height="940px" preserveAspectRatio="none" style="width:1221px;height:940px;background:#FFFFFF;" version="1.1" viewBox="0 0 1221 940" width="1221px" zoomAndPan="magnify"><defs/><g><rect fill="#FFFFFF" height="737.8516" style="stroke:#181818;stroke-width:1.0;" width="10" x="194.5" y="112.4297"/><rect fill="#FFFFFF" height="73.3984" style="stroke:#181818;stroke-width:1.0;" width="10" x="362.5" y="141.5625"/><rect fill="#FFFFFF" height="9" style="stroke:#181818;stroke-width:1.0;" width="10" x="362.5" y="841.2813"/><rect fill="#FFFFFF" height="583.1875" style="stroke:#181818;stroke-width:1.0;" width="10" x="526.5" y="185.8281"/><rect fill="#FFFFFF" height="220.3281" style="stroke:#181818;stroke-width:1.0;" width="10" x="710.5" y="244.0938"/><rect fill="#FFFFFF" height="262.4609" style="stroke:#181818;stroke-width:1.0;" width="10" x="863.5" y="303.4922"/><rect fill="#FFFFFF" height="304.5938" style="stroke:#181818;stroke-width:1.0;" width="10" x="1031.5" y="362.8906"/><line style="stroke:#181818;stroke-width:0.5;stroke-dasharray:5.0,5.0;" x1="23" x2="23" y1="81.2969" y2="859.2813"/><line style="stroke:#181818;stroke-width:0.5;stroke-dasharray:5.0,5.0;" x1="199" x2="199" y1="81.2969" y2="859.2813"/><line style="stroke:#181818;stroke-width:0.5;stroke-dasharray:5.0,5.0;" x1="367.5" x2="367.5" y1="81.2969" y2="859.2813"/><line style="stroke:#181818;stroke-width:0.5;stroke-dasharray:5.0,5.0;" x1="531.5" x2="531.5" y1="81.2969" y2="859.2813"/><line style="stroke:#181818;stroke-width:0.5;stroke-dasharray:5.0,5.0;" x1="715.5" x2="715.5" y1="81.2969" y2="859.2813"/><line style="stroke:#181818;stroke-width:0.5;stroke-dasharray:5.0,5.0;" x1="868.5" x2="868.5" y1="81.2969" y2="859.2813"/><line style="stroke:#181818;stroke-width:0.5;stroke-dasharray:5.0,5.0;" x1="1036.5" x2="1036.5" y1="81.2969" y2="859.2813"/><text fill="#000000" font-family="sans-serif" font-size="14" lengthAdjust="spacing" textLength="31" x="5" y="77.9951">User</text><ellipse cx="23.5" cy="13.5" fill="#E2E2F0" rx="8" ry="8" style="stroke:#181818;stroke-width:0.5;"/><path d="M23.5,21.5 L23.5,48.5 M10.5,29.5 L36.5,29.5 M23.5,48.5 L10.5,63.5 M23.5,48.5 L36.5,63.5 " fill="none" style="stroke:#181818;stroke-width:0.5;"/><text fill="#000000" font-family="sans-serif" font-size="14" lengthAdjust="spacing" textLength="31" x="5" y="871.2764">User</text><ellipse cx="23.5" cy="883.0781" fill="#E2E2F0" rx="8" ry="8" style="stroke:#181818;stroke-width:0.5;"/><path d="M23.5,891.0781 L23.5,918.0781 M10.5,899.0781 L36.5,899.0781 M23.5,918.0781 L10.5,933.0781 M23.5,918.0781 L36.5,933.0781 " fill="none" style="stroke:#181818;stroke-width:0.5;"/><rect fill="#E2E2F0" height="36" rx="2.5" ry="2.5" style="stroke:#181818;stroke-width:0.5;" width="149" x="125" y="44.2969"/><ellipse cx="143" cy="62.2969" fill="#ADD1B2" rx="11" ry="11" style="stroke:#181818;stroke-width:1.0;"/><path d="M145.3438,57.9688 C144.4063,57.5313 143.8125,57.3906 142.9375,57.3906 C140.3125,57.3906 138.3125,59.4688 138.3125,62.1875 L138.3125,63.3125 C138.3125,65.8906 140.4219,67.7813 143.3125,67.7813 C144.5313,67.7813 145.6875,67.4844 146.4375,66.9375 C147.0156,66.5313 147.3438,66.0781 147.3438,65.6875 C147.3438,65.2344 146.9531,64.8438 146.4844,64.8438 C146.2656,64.8438 146.0625,64.9219 145.875,65.1094 C145.4219,65.5938 145.4219,65.5938 145.2344,65.6875 C144.8125,65.9531 144.125,66.0781 143.3594,66.0781 C141.3125,66.0781 140.0156,64.9844 140.0156,63.2813 L140.0156,62.1875 C140.0156,60.4063 141.2656,59.0938 143,59.0938 C143.5781,59.0938 144.1875,59.25 144.6563,59.5 C145.1406,59.7813 145.3125,60 145.4063,60.4063 C145.4688,60.8125 145.5,60.9375 145.6406,61.0625 C145.7813,61.2031 146.0156,61.3125 146.2344,61.3125 C146.5,61.3125 146.7656,61.1719 146.9375,60.9531 C147.0469,60.7969 147.0781,60.6094 147.0781,60.1875 L147.0781,58.7656 C147.0781,58.3281 147.0625,58.2031 146.9688,58.0469 C146.8125,57.7813 146.5313,57.6406 146.2344,57.6406 C145.9375,57.6406 145.7344,57.7344 145.5156,58.0469 L145.3438,57.9688 Z " fill="#000000"/><text fill="#000000" font-family="sans-serif" font-size="14" lengthAdjust="spacing" textLength="107" x="160" y="64.292">VideoRecorder</text><rect fill="#E2E2F0" height="36" rx="2.5" ry="2.5" style="stroke:#181818;stroke-width:0.5;" width="149" x="125" y="858.2813"/><ellipse cx="143" cy="876.2813" fill="#ADD1B2" rx="11" ry="11" style="stroke:#181818;stroke-width:1.0;"/><path d="M145.3438,871.9531 C144.4063,871.5156 143.8125,871.375 142.9375,871.375 C140.3125,871.375 138.3125,873.4531 138.3125,876.1719 L138.3125,877.2969 C138.3125,879.875 140.4219,881.7656 143.3125,881.7656 C144.5313,881.7656 145.6875,881.4688 146.4375,880.9219 C147.0156,880.5156 147.3438,880.0625 147.3438,879.6719 C147.3438,879.2188 146.9531,878.8281 146.4844,878.8281 C146.2656,878.8281 146.0625,878.9063 145.875,879.0938 C145.4219,879.5781 145.4219,879.5781 145.2344,879.6719 C144.8125,879.9375 144.125,880.0625 143.3594,880.0625 C141.3125,880.0625 140.0156,878.9688 140.0156,877.2656 L140.0156,876.1719 C140.0156,874.3906 141.2656,873.0781 143,873.0781 C143.5781,873.0781 144.1875,873.2344 144.6563,873.4844 C145.1406,873.7656 145.3125,873.9844 145.4063,874.3906 C145.4688,874.7969 145.5,874.9219 145.6406,875.0469 C145.7813,875.1875 146.0156,875.2969 146.2344,875.2969 C146.5,875.2969 146.7656,875.1563 146.9375,874.9375 C147.0469,874.7813 147.0781,874.5938 147.0781,874.1719 L147.0781,872.75 C147.0781,872.3125 147.0625,872.1875 146.9688,872.0313 C146.8125,871.7656 146.5313,871.625 146.2344,871.625 C145.9375,871.625 145.7344,871.7188 145.5156,872.0313 L145.3438,871.9531 Z " fill="#000000"/><text fill="#000000" font-family="sans-serif" font-size="14" lengthAdjust="spacing" textLength="107" x="160" y="878.2764">VideoRecorder</text><rect fill="#E2E2F0" height="36" rx="2.5" ry="2.5" style="stroke:#181818;stroke-width:0.5;" width="112" x="311.5" y="44.2969"/><ellipse cx="329.5" cy="62.2969" fill="#ADD1B2" rx="11" ry="11" style="stroke:#181818;stroke-width:1.0;"/><path d="M331.8438,57.9688 C330.9063,57.5313 330.3125,57.3906 329.4375,57.3906 C326.8125,57.3906 324.8125,59.4688 324.8125,62.1875 L324.8125,63.3125 C324.8125,65.8906 326.9219,67.7813 329.8125,67.7813 C331.0313,67.7813 332.1875,67.4844 332.9375,66.9375 C333.5156,66.5313 333.8438,66.0781 333.8438,65.6875 C333.8438,65.2344 333.4531,64.8438 332.9844,64.8438 C332.7656,64.8438 332.5625,64.9219 332.375,65.1094 C331.9219,65.5938 331.9219,65.5938 331.7344,65.6875 C331.3125,65.9531 330.625,66.0781 329.8594,66.0781 C327.8125,66.0781 326.5156,64.9844 326.5156,63.2813 L326.5156,62.1875 C326.5156,60.4063 327.7656,59.0938 329.5,59.0938 C330.0781,59.0938 330.6875,59.25 331.1563,59.5 C331.6406,59.7813 331.8125,60 331.9063,60.4063 C331.9688,60.8125 332,60.9375 332.1406,61.0625 C332.2813,61.2031 332.5156,61.3125 332.7344,61.3125 C333,61.3125 333.2656,61.1719 333.4375,60.9531 C333.5469,60.7969 333.5781,60.6094 333.5781,60.1875 L333.5781,58.7656 C333.5781,58.3281 333.5625,58.2031 333.4688,58.0469 C333.3125,57.7813 333.0313,57.6406 332.7344,57.6406 C332.4375,57.6406 332.2344,57.7344 332.0156,58.0469 L331.8438,57.9688 Z " fill="#000000"/><text fill="#000000" font-family="sans-serif" font-size="14" lengthAdjust="spacing" textLength="70" x="346.5" y="64.292">FaceMesh</text><rect fill="#E2E2F0" height="36" rx="2.5" ry="2.5" style="stroke:#181818;stroke-width:0.5;" width="112" x="311.5" y="858.2813"/><ellipse cx="329.5" cy="876.2813" fill="#ADD1B2" rx="11" ry="11" style="stroke:#181818;stroke-width:1.0;"/><path d="M331.8438,871.9531 C330.9063,871.5156 330.3125,871.375 329.4375,871.375 C326.8125,871.375 324.8125,873.4531 324.8125,876.1719 L324.8125,877.2969 C324.8125,879.875 326.9219,881.7656 329.8125,881.7656 C331.0313,881.7656 332.1875,881.4688 332.9375,880.9219 C333.5156,880.5156 333.8438,880.0625 333.8438,879.6719 C333.8438,879.2188 333.4531,878.8281 332.9844,878.8281 C332.7656,878.8281 332.5625,878.9063 332.375,879.0938 C331.9219,879.5781 331.9219,879.5781 331.7344,879.6719 C331.3125,879.9375 330.625,880.0625 329.8594,880.0625 C327.8125,880.0625 326.5156,878.9688 326.5156,877.2656 L326.5156,876.1719 C326.5156,874.3906 327.7656,873.0781 329.5,873.0781 C330.0781,873.0781 330.6875,873.2344 331.1563,873.4844 C331.6406,873.7656 331.8125,873.9844 331.9063,874.3906 C331.9688,874.7969 332,874.9219 332.1406,875.0469 C332.2813,875.1875 332.5156,875.2969 332.7344,875.2969 C333,875.2969 333.2656,875.1563 333.4375,874.9375 C333.5469,874.7813 333.5781,874.5938 333.5781,874.1719 L333.5781,872.75 C333.5781,872.3125 333.5625,872.1875 333.4688,872.0313 C333.3125,871.7656 333.0313,871.625 332.7344,871.625 C332.4375,871.625 332.2344,871.7188 332.0156,872.0313 L331.8438,871.9531 Z " fill="#000000"/><text fill="#000000" font-family="sans-serif" font-size="14" lengthAdjust="spacing" textLength="70" x="346.5" y="878.2764">FaceMesh</text><rect fill="#E2E2F0" height="36" rx="2.5" ry="2.5" style="stroke:#181818;stroke-width:0.5;" width="108" x="477.5" y="44.2969"/><ellipse cx="495.5" cy="62.2969" fill="#ADD1B2" rx="11" ry="11" style="stroke:#181818;stroke-width:1.0;"/><path d="M497.8438,57.9688 C496.9063,57.5313 496.3125,57.3906 495.4375,57.3906 C492.8125,57.3906 490.8125,59.4688 490.8125,62.1875 L490.8125,63.3125 C490.8125,65.8906 492.9219,67.7813 495.8125,67.7813 C497.0313,67.7813 498.1875,67.4844 498.9375,66.9375 C499.5156,66.5313 499.8438,66.0781 499.8438,65.6875 C499.8438,65.2344 499.4531,64.8438 498.9844,64.8438 C498.7656,64.8438 498.5625,64.9219 498.375,65.1094 C497.9219,65.5938 497.9219,65.5938 497.7344,65.6875 C497.3125,65.9531 496.625,66.0781 495.8594,66.0781 C493.8125,66.0781 492.5156,64.9844 492.5156,63.2813 L492.5156,62.1875 C492.5156,60.4063 493.7656,59.0938 495.5,59.0938 C496.0781,59.0938 496.6875,59.25 497.1563,59.5 C497.6406,59.7813 497.8125,60 497.9063,60.4063 C497.9688,60.8125 498,60.9375 498.1406,61.0625 C498.2813,61.2031 498.5156,61.3125 498.7344,61.3125 C499,61.3125 499.2656,61.1719 499.4375,60.9531 C499.5469,60.7969 499.5781,60.6094 499.5781,60.1875 L499.5781,58.7656 C499.5781,58.3281 499.5625,58.2031 499.4688,58.0469 C499.3125,57.7813 499.0313,57.6406 498.7344,57.6406 C498.4375,57.6406 498.2344,57.7344 498.0156,58.0469 L497.8438,57.9688 Z " fill="#000000"/><text fill="#000000" font-family="sans-serif" font-size="14" lengthAdjust="spacing" textLength="66" x="512.5" y="64.292">Detector</text><rect fill="#E2E2F0" height="36" rx="2.5" ry="2.5" style="stroke:#181818;stroke-width:0.5;" width="108" x="477.5" y="858.2813"/><ellipse cx="495.5" cy="876.2813" fill="#ADD1B2" rx="11" ry="11" style="stroke:#181818;stroke-width:1.0;"/><path d="M497.8438,871.9531 C496.9063,871.5156 496.3125,871.375 495.4375,871.375 C492.8125,871.375 490.8125,873.4531 490.8125,876.1719 L490.8125,877.2969 C490.8125,879.875 492.9219,881.7656 495.8125,881.7656 C497.0313,881.7656 498.1875,881.4688 498.9375,880.9219 C499.5156,880.5156 499.8438,880.0625 499.8438,879.6719 C499.8438,879.2188 499.4531,878.8281 498.9844,878.8281 C498.7656,878.8281 498.5625,878.9063 498.375,879.0938 C497.9219,879.5781 497.9219,879.5781 497.7344,879.6719 C497.3125,879.9375 496.625,880.0625 495.8594,880.0625 C493.8125,880.0625 492.5156,878.9688 492.5156,877.2656 L492.5156,876.1719 C492.5156,874.3906 493.7656,873.0781 495.5,873.0781 C496.0781,873.0781 496.6875,873.2344 497.1563,873.4844 C497.6406,873.7656 497.8125,873.9844 497.9063,874.3906 C497.9688,874.7969 498,874.9219 498.1406,875.0469 C498.2813,875.1875 498.5156,875.2969 498.7344,875.2969 C499,875.2969 499.2656,875.1563 499.4375,874.9375 C499.5469,874.7813 499.5781,874.5938 499.5781,874.1719 L499.5781,872.75 C499.5781,872.3125 499.5625,872.1875 499.4688,872.0313 C499.3125,871.7656 499.0313,871.625 498.7344,871.625 C498.4375,871.625 498.2344,871.7188 498.0156,872.0313 L497.8438,871.9531 Z " fill="#000000"/><text fill="#000000" font-family="sans-serif" font-size="14" lengthAdjust="spacing" textLength="66" x="512.5" y="878.2764">Detector</text><rect fill="#E2E2F0" height="36" rx="2.5" ry="2.5" style="stroke:#181818;stroke-width:0.5;" width="122" x="654.5" y="44.2969"/><ellipse cx="672.5" cy="62.2969" fill="#ADD1B2" rx="11" ry="11" style="stroke:#181818;stroke-width:1.0;"/><path d="M674.8438,57.9688 C673.9063,57.5313 673.3125,57.3906 672.4375,57.3906 C669.8125,57.3906 667.8125,59.4688 667.8125,62.1875 L667.8125,63.3125 C667.8125,65.8906 669.9219,67.7813 672.8125,67.7813 C674.0313,67.7813 675.1875,67.4844 675.9375,66.9375 C676.5156,66.5313 676.8438,66.0781 676.8438,65.6875 C676.8438,65.2344 676.4531,64.8438 675.9844,64.8438 C675.7656,64.8438 675.5625,64.9219 675.375,65.1094 C674.9219,65.5938 674.9219,65.5938 674.7344,65.6875 C674.3125,65.9531 673.625,66.0781 672.8594,66.0781 C670.8125,66.0781 669.5156,64.9844 669.5156,63.2813 L669.5156,62.1875 C669.5156,60.4063 670.7656,59.0938 672.5,59.0938 C673.0781,59.0938 673.6875,59.25 674.1563,59.5 C674.6406,59.7813 674.8125,60 674.9063,60.4063 C674.9688,60.8125 675,60.9375 675.1406,61.0625 C675.2813,61.2031 675.5156,61.3125 675.7344,61.3125 C676,61.3125 676.2656,61.1719 676.4375,60.9531 C676.5469,60.7969 676.5781,60.6094 676.5781,60.1875 L676.5781,58.7656 C676.5781,58.3281 676.5625,58.2031 676.4688,58.0469 C676.3125,57.7813 676.0313,57.6406 675.7344,57.6406 C675.4375,57.6406 675.2344,57.7344 675.0156,58.0469 L674.8438,57.9688 Z " fill="#000000"/><text fill="#000000" font-family="sans-serif" font-size="14" lengthAdjust="spacing" textLength="80" x="689.5" y="64.292">Distraction</text><rect fill="#E2E2F0" height="36" rx="2.5" ry="2.5" style="stroke:#181818;stroke-width:0.5;" width="122" x="654.5" y="858.2813"/><ellipse cx="672.5" cy="876.2813" fill="#ADD1B2" rx="11" ry="11" style="stroke:#181818;stroke-width:1.0;"/><path d="M674.8438,871.9531 C673.9063,871.5156 673.3125,871.375 672.4375,871.375 C669.8125,871.375 667.8125,873.4531 667.8125,876.1719 L667.8125,877.2969 C667.8125,879.875 669.9219,881.7656 672.8125,881.7656 C674.0313,881.7656 675.1875,881.4688 675.9375,880.9219 C676.5156,880.5156 676.8438,880.0625 676.8438,879.6719 C676.8438,879.2188 676.4531,878.8281 675.9844,878.8281 C675.7656,878.8281 675.5625,878.9063 675.375,879.0938 C674.9219,879.5781 674.9219,879.5781 674.7344,879.6719 C674.3125,879.9375 673.625,880.0625 672.8594,880.0625 C670.8125,880.0625 669.5156,878.9688 669.5156,877.2656 L669.5156,876.1719 C669.5156,874.3906 670.7656,873.0781 672.5,873.0781 C673.0781,873.0781 673.6875,873.2344 674.1563,873.4844 C674.6406,873.7656 674.8125,873.9844 674.9063,874.3906 C674.9688,874.7969 675,874.9219 675.1406,875.0469 C675.2813,875.1875 675.5156,875.2969 675.7344,875.2969 C676,875.2969 676.2656,875.1563 676.4375,874.9375 C676.5469,874.7813 676.5781,874.5938 676.5781,874.1719 L676.5781,872.75 C676.5781,872.3125 676.5625,872.1875 676.4688,872.0313 C676.3125,871.7656 676.0313,871.625 675.7344,871.625 C675.4375,871.625 675.2344,871.7188 675.0156,872.0313 L674.8438,871.9531 Z " fill="#000000"/><text fill="#000000" font-family="sans-serif" font-size="14" lengthAdjust="spacing" textLength="80" x="689.5" y="878.2764">Distraction</text><rect fill="#E2E2F0" height="36" rx="2.5" ry="2.5" style="stroke:#181818;stroke-width:0.5;" width="122" x="807.5" y="44.2969"/><ellipse cx="825.5" cy="62.2969" fill="#ADD1B2" rx="11" ry="11" style="stroke:#181818;stroke-width:1.0;"/><path d="M827.8438,57.9688 C826.9063,57.5313 826.3125,57.3906 825.4375,57.3906 C822.8125,57.3906 820.8125,59.4688 820.8125,62.1875 L820.8125,63.3125 C820.8125,65.8906 822.9219,67.7813 825.8125,67.7813 C827.0313,67.7813 828.1875,67.4844 828.9375,66.9375 C829.5156,66.5313 829.8438,66.0781 829.8438,65.6875 C829.8438,65.2344 829.4531,64.8438 828.9844,64.8438 C828.7656,64.8438 828.5625,64.9219 828.375,65.1094 C827.9219,65.5938 827.9219,65.5938 827.7344,65.6875 C827.3125,65.9531 826.625,66.0781 825.8594,66.0781 C823.8125,66.0781 822.5156,64.9844 822.5156,63.2813 L822.5156,62.1875 C822.5156,60.4063 823.7656,59.0938 825.5,59.0938 C826.0781,59.0938 826.6875,59.25 827.1563,59.5 C827.6406,59.7813 827.8125,60 827.9063,60.4063 C827.9688,60.8125 828,60.9375 828.1406,61.0625 C828.2813,61.2031 828.5156,61.3125 828.7344,61.3125 C829,61.3125 829.2656,61.1719 829.4375,60.9531 C829.5469,60.7969 829.5781,60.6094 829.5781,60.1875 L829.5781,58.7656 C829.5781,58.3281 829.5625,58.2031 829.4688,58.0469 C829.3125,57.7813 829.0313,57.6406 828.7344,57.6406 C828.4375,57.6406 828.2344,57.7344 828.0156,58.0469 L827.8438,57.9688 Z " fill="#000000"/><text fill="#000000" font-family="sans-serif" font-size="14" lengthAdjust="spacing" textLength="80" x="842.5" y="64.292">Drowsiness</text><rect fill="#E2E2F0" height="36" rx="2.5" ry="2.5" style="stroke:#181818;stroke-width:0.5;" width="122" x="807.5" y="858.2813"/><ellipse cx="825.5" cy="876.2813" fill="#ADD1B2" rx="11" ry="11" style="stroke:#181818;stroke-width:1.0;"/><path d="M827.8438,871.9531 C826.9063,871.5156 826.3125,871.375 825.4375,871.375 C822.8125,871.375 820.8125,873.4531 820.8125,876.1719 L820.8125,877.2969 C820.8125,879.875 822.9219,881.7656 825.8125,881.7656 C827.0313,881.7656 828.1875,881.4688 828.9375,880.9219 C829.5156,880.5156 829.8438,880.0625 829.8438,879.6719 C829.8438,879.2188 829.4531,878.8281 828.9844,878.8281 C828.7656,878.8281 828.5625,878.9063 828.375,879.0938 C827.9219,879.5781 827.9219,879.5781 827.7344,879.6719 C827.3125,879.9375 826.625,880.0625 825.8594,880.0625 C823.8125,880.0625 822.5156,878.9688 822.5156,877.2656 L822.5156,876.1719 C822.5156,874.3906 823.7656,873.0781 825.5,873.0781 C826.0781,873.0781 826.6875,873.2344 827.1563,873.4844 C827.6406,873.7656 827.8125,873.9844 827.9063,874.3906 C827.9688,874.7969 828,874.9219 828.1406,875.0469 C828.2813,875.1875 828.5156,875.2969 828.7344,875.2969 C829,875.2969 829.2656,875.1563 829.4375,874.9375 C829.5469,874.7813 829.5781,874.5938 829.5781,874.1719 L829.5781,872.75 C829.5781,872.3125 829.5625,872.1875 829.4688,872.0313 C829.3125,871.7656 829.0313,871.625 828.7344,871.625 C828.4375,871.625 828.2344,871.7188 828.0156,872.0313 L827.8438,871.9531 Z " fill="#000000"/><text fill="#000000" font-family="sans-serif" font-size="14" lengthAdjust="spacing" textLength="80" x="842.5" y="878.2764">Drowsiness</text><rect fill="#E2E2F0" height="36" rx="2.5" ry="2.5" style="stroke:#181818;stroke-width:0.5;" width="136" x="968.5" y="44.2969"/><ellipse cx="986.5" cy="62.2969" fill="#ADD1B2" rx="11" ry="11" style="stroke:#181818;stroke-width:1.0;"/><path d="M988.8438,57.9688 C987.9063,57.5313 987.3125,57.3906 986.4375,57.3906 C983.8125,57.3906 981.8125,59.4688 981.8125,62.1875 L981.8125,63.3125 C981.8125,65.8906 983.9219,67.7813 986.8125,67.7813 C988.0313,67.7813 989.1875,67.4844 989.9375,66.9375 C990.5156,66.5313 990.8438,66.0781 990.8438,65.6875 C990.8438,65.2344 990.4531,64.8438 989.9844,64.8438 C989.7656,64.8438 989.5625,64.9219 989.375,65.1094 C988.9219,65.5938 988.9219,65.5938 988.7344,65.6875 C988.3125,65.9531 987.625,66.0781 986.8594,66.0781 C984.8125,66.0781 983.5156,64.9844 983.5156,63.2813 L983.5156,62.1875 C983.5156,60.4063 984.7656,59.0938 986.5,59.0938 C987.0781,59.0938 987.6875,59.25 988.1563,59.5 C988.6406,59.7813 988.8125,60 988.9063,60.4063 C988.9688,60.8125 989,60.9375 989.1406,61.0625 C989.2813,61.2031 989.5156,61.3125 989.7344,61.3125 C990,61.3125 990.2656,61.1719 990.4375,60.9531 C990.5469,60.7969 990.5781,60.6094 990.5781,60.1875 L990.5781,58.7656 C990.5781,58.3281 990.5625,58.2031 990.4688,58.0469 C990.3125,57.7813 990.0313,57.6406 989.7344,57.6406 C989.4375,57.6406 989.2344,57.7344 989.0156,58.0469 L988.8438,57.9688 Z " fill="#000000"/><text fill="#000000" font-family="sans-serif" font-size="14" lengthAdjust="spacing" textLength="94" x="1003.5" y="64.292">LookingAway</text><rect fill="#E2E2F0" height="36" rx="2.5" ry="2.5" style="stroke:#181818;stroke-width:0.5;" width="136" x="968.5" y="858.2813"/><ellipse cx="986.5" cy="876.2813" fill="#ADD1B2" rx="11" ry="11" style="stroke:#181818;stroke-width:1.0;"/><path d="M988.8438,871.9531 C987.9063,871.5156 987.3125,871.375 986.4375,871.375 C983.8125,871.375 981.8125,873.4531 981.8125,876.1719 L981.8125,877.2969 C981.8125,879.875 983.9219,881.7656 986.8125,881.7656 C988.0313,881.7656 989.1875,881.4688 989.9375,880.9219 C990.5156,880.5156 990.8438,880.0625 990.8438,879.6719 C990.8438,879.2188 990.4531,878.8281 989.9844,878.8281 C989.7656,878.8281 989.5625,878.9063 989.375,879.0938 C988.9219,879.5781 988.9219,879.5781 988.7344,879.6719 C988.3125,879.9375 987.625,880.0625 986.8594,880.0625 C984.8125,880.0625 983.5156,878.9688 983.5156,877.2656 L983.5156,876.1719 C983.5156,874.3906 984.7656,873.0781 986.5,873.0781 C987.0781,873.0781 987.6875,873.2344 988.1563,873.4844 C988.6406,873.7656 988.8125,873.9844 988.9063,874.3906 C988.9688,874.7969 989,874.9219 989.1406,875.0469 C989.2813,875.1875 989.5156,875.2969 989.7344,875.2969 C990,875.2969 990.2656,875.1563 990.4375,874.9375 C990.5469,874.7813 990.5781,874.5938 990.5781,874.1719 L990.5781,872.75 C990.5781,872.3125 990.5625,872.1875 990.4688,872.0313 C990.3125,871.7656 990.0313,871.625 989.7344,871.625 C989.4375,871.625 989.2344,871.7188 989.0156,872.0313 L988.8438,871.9531 Z " fill="#000000"/><text fill="#000000" font-family="sans-serif" font-size="14" lengthAdjust="spacing" textLength="94" x="1003.5" y="878.2764">LookingAway</text><rect fill="#FFFFFF" height="737.8516" style="stroke:#181818;stroke-width:1.0;" width="10" x="194.5" y="112.4297"/><rect fill="#FFFFFF" height="73.3984" style="stroke:#181818;stroke-width:1.0;" width="10" x="362.5" y="141.5625"/><rect fill="#FFFFFF" height="9" style="stroke:#181818;stroke-width:1.0;" width="10" x="362.5" y="841.2813"/><rect fill="#FFFFFF" height="583.1875" style="stroke:#181818;stroke-width:1.0;" width="10" x="526.5" y="185.8281"/><rect fill="#FFFFFF" height="220.3281" style="stroke:#181818;stroke-width:1.0;" width="10" x="710.5" y="244.0938"/><rect fill="#FFFFFF" height="262.4609" style="stroke:#181818;stroke-width:1.0;" width="10" x="863.5" y="303.4922"/><rect fill="#FFFFFF" height="304.5938" style="stroke:#181818;stroke-width:1.0;" width="10" x="1031.5" y="362.8906"/><polygon fill="#181818" points="182.5,108.4297,192.5,112.4297,182.5,116.4297,186.5,112.4297" style="stroke:#181818;stroke-width:1.0;"/><line style="stroke:#181818;stroke-width:1.0;" x1="23.5" x2="188.5" y1="112.4297" y2="112.4297"/><text fill="#000000" font-family="sans-serif" font-size="13" font-weight="bold" lengthAdjust="spacing" textLength="9" x="30.5" y="107.3638">1</text><text fill="#000000" font-family="sans-serif" font-size="13" lengthAdjust="spacing" textLength="139" x="43.5" y="107.3638">Start Video Recording</text><polygon fill="#181818" points="350.5,137.5625,360.5,141.5625,350.5,145.5625,354.5,141.5625" style="stroke:#181818;stroke-width:1.0;"/><line style="stroke:#181818;stroke-width:1.0;" x1="204.5" x2="356.5" y1="141.5625" y2="141.5625"/><text fill="#000000" font-family="sans-serif" font-size="13" font-weight="bold" lengthAdjust="spacing" textLength="9" x="211.5" y="136.4966">2</text><text fill="#000000" font-family="sans-serif" font-size="13" lengthAdjust="spacing" textLength="117" x="224.5" y="136.4966">Send Video Frame</text><polygon fill="#181818" points="514.5,181.8281,524.5,185.8281,514.5,189.8281,518.5,185.8281" style="stroke:#181818;stroke-width:1.0;"/><line style="stroke:#181818;stroke-width:1.0;" x1="372.5" x2="520.5" y1="185.8281" y2="185.8281"/><text fill="#000000" font-family="sans-serif" font-size="13" font-weight="bold" lengthAdjust="spacing" textLength="8" x="379.5" y="173.1958">3</text><text fill="#000000" font-family="sans-serif" font-size="13" lengthAdjust="spacing" textLength="123" x="391.5" y="165.6294">Compute and Send</text><text fill="#000000" font-family="sans-serif" font-size="13" lengthAdjust="spacing" textLength="111" x="391.5" y="180.7622">Facial Landmarks</text><polygon fill="#181818" points="215.5,210.9609,205.5,214.9609,215.5,218.9609,211.5,214.9609" style="stroke:#181818;stroke-width:1.0;"/><line style="stroke:#181818;stroke-width:1.0;stroke-dasharray:2.0,2.0;" x1="209.5" x2="366.5" y1="214.9609" y2="214.9609"/><text fill="#000000" font-family="sans-serif" font-size="13" font-weight="bold" lengthAdjust="spacing" textLength="9" x="221.5" y="209.895">4</text><text fill="#000000" font-family="sans-serif" font-size="13" lengthAdjust="spacing" textLength="114" x="234.5" y="209.895">No Face Detected</text><polygon fill="#181818" points="698.5,240.0938,708.5,244.0938,698.5,248.0938,702.5,244.0938" style="stroke:#181818;stroke-width:1.0;"/><line style="stroke:#181818;stroke-width:1.0;" x1="536.5" x2="704.5" y1="244.0938" y2="244.0938"/><text fill="#000000" font-family="sans-serif" font-size="13" font-weight="bold" lengthAdjust="spacing" textLength="9" x="543.5" y="239.0278">5</text><text fill="#000000" font-family="sans-serif" font-size="13" lengthAdjust="spacing" textLength="117" x="556.5" y="239.0278">Send Video Frame</text><polygon fill="#181818" points="851.5,299.4922,861.5,303.4922,851.5,307.4922,855.5,303.4922" style="stroke:#181818;stroke-width:1.0;"/><line style="stroke:#181818;stroke-width:1.0;" x1="536.5" x2="857.5" y1="303.4922" y2="303.4922"/><text fill="#000000" font-family="sans-serif" font-size="13" font-weight="bold" lengthAdjust="spacing" textLength="9" x="543.5" y="283.2935">6</text><text fill="#000000" font-family="sans-serif" font-size="13" lengthAdjust="spacing" textLength="117" x="556.5" y="268.1606">Send Video Frame</text><text fill="#000000" font-family="sans-serif" font-size="13" lengthAdjust="spacing" textLength="64" x="556.5" y="283.2935">and Facial</text><text fill="#000000" font-family="sans-serif" font-size="13" lengthAdjust="spacing" textLength="71" x="556.5" y="298.4263">Landmarks</text><polygon fill="#181818" points="1019.5,358.8906,1029.5,362.8906,1019.5,366.8906,1023.5,362.8906" style="stroke:#181818;stroke-width:1.0;"/><line style="stroke:#181818;stroke-width:1.0;" x1="536.5" x2="1025.5" y1="362.8906" y2="362.8906"/><text fill="#000000" font-family="sans-serif" font-size="13" font-weight="bold" lengthAdjust="spacing" textLength="9" x="543.5" y="342.6919">7</text><text fill="#000000" font-family="sans-serif" font-size="13" lengthAdjust="spacing" textLength="117" x="556.5" y="327.5591">Send Video Frame</text><text fill="#000000" font-family="sans-serif" font-size="13" lengthAdjust="spacing" textLength="64" x="556.5" y="342.6919">and Facial</text><text fill="#000000" font-family="sans-serif" font-size="13" lengthAdjust="spacing" textLength="71" x="556.5" y="357.8247">Landmarks</text><line style="stroke:#181818;stroke-width:1.0;" x1="720.5" x2="762.5" y1="407.1563" y2="407.1563"/><line style="stroke:#181818;stroke-width:1.0;" x1="762.5" x2="762.5" y1="407.1563" y2="420.1563"/><line style="stroke:#181818;stroke-width:1.0;" x1="721.5" x2="762.5" y1="420.1563" y2="420.1563"/><polygon fill="#181818" points="731.5,416.1563,721.5,420.1563,731.5,424.1563,727.5,420.1563" style="stroke:#181818;stroke-width:1.0;"/><text fill="#000000" font-family="sans-serif" font-size="13" font-weight="bold" lengthAdjust="spacing" textLength="9" x="727.5" y="394.5239">8</text><text fill="#000000" font-family="sans-serif" font-size="13" lengthAdjust="spacing" textLength="116" x="740.5" y="386.9575">Detect Distraction</text><text fill="#000000" font-family="sans-serif" font-size="13" lengthAdjust="spacing" textLength="90" x="740.5" y="402.0903">and set Alarm</text><polygon fill="#181818" points="547.5,460.4219,537.5,464.4219,547.5,468.4219,543.5,464.4219" style="stroke:#181818;stroke-width:1.0;"/><line style="stroke:#181818;stroke-width:1.0;" x1="541.5" x2="714.5" y1="464.4219" y2="464.4219"/><text fill="#000000" font-family="sans-serif" font-size="13" font-weight="bold" lengthAdjust="spacing" textLength="9" x="553.5" y="451.7896">9</text><text fill="#000000" font-family="sans-serif" font-size="13" lengthAdjust="spacing" textLength="43" x="566.5" y="444.2231">Return</text><text fill="#000000" font-family="sans-serif" font-size="13" lengthAdjust="spacing" textLength="107" x="566.5" y="459.356">Distraction State</text><line style="stroke:#181818;stroke-width:1.0;" x1="873.5" x2="915.5" y1="508.6875" y2="508.6875"/><line style="stroke:#181818;stroke-width:1.0;" x1="915.5" x2="915.5" y1="508.6875" y2="521.6875"/><line style="stroke:#181818;stroke-width:1.0;" x1="874.5" x2="915.5" y1="521.6875" y2="521.6875"/><polygon fill="#181818" points="884.5,517.6875,874.5,521.6875,884.5,525.6875,880.5,521.6875" style="stroke:#181818;stroke-width:1.0;"/><text fill="#000000" font-family="sans-serif" font-size="13" font-weight="bold" lengthAdjust="spacing" textLength="19" x="880.5" y="496.0552">10</text><text fill="#000000" font-family="sans-serif" font-size="13" lengthAdjust="spacing" textLength="121" x="903.5" y="488.4888">Detect Drowsiness</text><text fill="#000000" font-family="sans-serif" font-size="13" lengthAdjust="spacing" textLength="90" x="903.5" y="503.6216">and set Alarm</text><polygon fill="#181818" points="547.5,561.9531,537.5,565.9531,547.5,569.9531,543.5,565.9531" style="stroke:#181818;stroke-width:1.0;"/><line style="stroke:#181818;stroke-width:1.0;" x1="541.5" x2="867.5" y1="565.9531" y2="565.9531"/><text fill="#000000" font-family="sans-serif" font-size="13" font-weight="bold" lengthAdjust="spacing" textLength="18" x="553.5" y="553.3208">11</text><text fill="#000000" font-family="sans-serif" font-size="13" lengthAdjust="spacing" textLength="43" x="575.5" y="545.7544">Return</text><text fill="#000000" font-family="sans-serif" font-size="13" lengthAdjust="spacing" textLength="112" x="575.5" y="560.8872">Drowsiness State</text><line style="stroke:#181818;stroke-width:1.0;" x1="1041.5" x2="1083.5" y1="610.2188" y2="610.2188"/><line style="stroke:#181818;stroke-width:1.0;" x1="1083.5" x2="1083.5" y1="610.2188" y2="623.2188"/><line style="stroke:#181818;stroke-width:1.0;" x1="1042.5" x2="1083.5" y1="623.2188" y2="623.2188"/><polygon fill="#181818" points="1052.5,619.2188,1042.5,623.2188,1052.5,627.2188,1048.5,623.2188" style="stroke:#181818;stroke-width:1.0;"/><text fill="#000000" font-family="sans-serif" font-size="13" font-weight="bold" lengthAdjust="spacing" textLength="18" x="1048.5" y="597.5864">12</text><text fill="#000000" font-family="sans-serif" font-size="13" lengthAdjust="spacing" textLength="132" x="1070.5" y="590.02">Detect LookingAway</text><text fill="#000000" font-family="sans-serif" font-size="13" lengthAdjust="spacing" textLength="90" x="1070.5" y="605.1528">and set Alarm</text><polygon fill="#181818" points="547.5,663.4844,537.5,667.4844,547.5,671.4844,543.5,667.4844" style="stroke:#181818;stroke-width:1.0;"/><line style="stroke:#181818;stroke-width:1.0;" x1="541.5" x2="1035.5" y1="667.4844" y2="667.4844"/><text fill="#000000" font-family="sans-serif" font-size="13" font-weight="bold" lengthAdjust="spacing" textLength="17" x="553.5" y="654.8521">13</text><text fill="#000000" font-family="sans-serif" font-size="13" lengthAdjust="spacing" textLength="43" x="574.5" y="647.2856">Return</text><text fill="#000000" font-family="sans-serif" font-size="13" lengthAdjust="spacing" textLength="123" x="574.5" y="662.4185">LookingAway State</text><line style="stroke:#181818;stroke-width:1.0;" x1="536.5" x2="578.5" y1="726.8828" y2="726.8828"/><line style="stroke:#181818;stroke-width:1.0;" x1="578.5" x2="578.5" y1="726.8828" y2="739.8828"/><line style="stroke:#181818;stroke-width:1.0;" x1="537.5" x2="578.5" y1="739.8828" y2="739.8828"/><polygon fill="#181818" points="547.5,735.8828,537.5,739.8828,547.5,743.8828,543.5,739.8828" style="stroke:#181818;stroke-width:1.0;"/><text fill="#000000" font-family="sans-serif" font-size="13" font-weight="bold" lengthAdjust="spacing" textLength="18" x="543.5" y="706.6841">14</text><text fill="#000000" font-family="sans-serif" font-size="13" lengthAdjust="spacing" textLength="81" x="565.5" y="691.5513">Check Alarm</text><text fill="#000000" font-family="sans-serif" font-size="13" lengthAdjust="spacing" textLength="138" x="565.5" y="706.6841">and if True reproduce</text><text fill="#000000" font-family="sans-serif" font-size="13" lengthAdjust="spacing" textLength="82" x="565.5" y="721.8169">Alarm Sound</text><polygon fill="#181818" points="215.5,765.0156,205.5,769.0156,215.5,773.0156,211.5,769.0156" style="stroke:#181818;stroke-width:1.0;"/><line style="stroke:#181818;stroke-width:1.0;stroke-dasharray:2.0,2.0;" x1="209.5" x2="530.5" y1="769.0156" y2="769.0156"/><text fill="#000000" font-family="sans-serif" font-size="13" font-weight="bold" lengthAdjust="spacing" textLength="18" x="221.5" y="763.9497">15</text><text fill="#000000" font-family="sans-serif" font-size="13" lengthAdjust="spacing" textLength="4" x="243.5" y="763.9497">&#160;</text><rect fill="#EEEEEE" height="3" style="stroke:#EEEEEE;stroke-width:1.0;" width="1214.5" x="0" y="797.582"/><line style="stroke:#000000;stroke-width:1.0;" x1="0" x2="1214.5" y1="797.582" y2="797.582"/><line style="stroke:#000000;stroke-width:1.0;" x1="0" x2="1214.5" y1="800.582" y2="800.582"/><rect fill="#EEEEEE" height="23.1328" style="stroke:#000000;stroke-width:2.0;" width="73" x="570.75" y="787.0156"/><text fill="#000000" font-family="sans-serif" font-size="13" font-weight="bold" lengthAdjust="spacing" textLength="54" x="576.75" y="803.0825">Repeat</text><polygon fill="#181818" points="350.5,837.2813,360.5,841.2813,350.5,845.2813,354.5,841.2813" style="stroke:#181818;stroke-width:1.0;"/><line style="stroke:#181818;stroke-width:1.0;" x1="204.5" x2="356.5" y1="841.2813" y2="841.2813"/><text fill="#000000" font-family="sans-serif" font-size="13" font-weight="bold" lengthAdjust="spacing" textLength="18" x="211.5" y="836.2153">16</text><text fill="#000000" font-family="sans-serif" font-size="13" lengthAdjust="spacing" textLength="117" x="233.5" y="836.2153">Send Video Frame</text><!--SRC=[fLEnJiCm4Dtz5IUnW0G3Z5LJARJgL1XQOEfo90UrsjYHxL3nzroQ9h7ZYaYmdjzxz-wT3pEd3RnQCg94usGcIrGEtcHEUasPDZaPc4xXUdvxbIuMzuyFDp2R1TWbPlH4TZS2Mv2ZKxCHcBJEOEQaLcD8euzMAh9s1BZIUY_LPth4xmj8WPNJgYhUEO8w1xYRXUDFOEDOhIb2KsKvaRB9BtGKeeK8isErDY0M8fMVTPO62-erMemGNPpCR3ERm5mNPSKuP85QPQiO9_40AwuKQFQsrsfPlbOyrBC-DJsZAHSvOUocsrhjfb_DRwDui06_MrXCtwfwicQchReqL4SEHRtb_a7LOxEiz_M6upOj_LgZRSb1Ua1JHEnkTMjobM6u3-0VvSXFt7za9_tN7kJM-kXAaOsG6hletsCJNiR-qGnZFflmQaCN0tPimmT4FiAj-3-eluSTPVkcMTDRVi2BgGWCbKRdLSQxFxt2HbSgzrI6bn04q5rEah3Laj11alppf7y0]--></g></svg>