<?xml version="1.0" encoding="us-ascii" standalone="no"?><svg xmlns="http://www.w3.org/2000/svg" xmlns:xlink="http://www.w3.org/1999/xlink" contentStyleType="text/css" height="968px" preserveAspectRatio="none" style="width:1228px;height:968px;background:#FFFFFF;" version="1.1" viewBox="0 0 1228 968" width="1228px" zoomAndPan="magnify"><defs/><g><rect fill="#FFFFFF" height="766.7266" style="stroke:#181818;stroke-width:1.0;" width="10" x="209.5" y="112.4297"/><rect fill="#FFFFFF" height="73.3984" style="stroke:#181818;stroke-width:1.0;" width="10" x="370.5" y="176.3047"/><rect fill="#FFFFFF" height="598.3203" style="stroke:#181818;stroke-width:1.0;" width="10" x="534.5" y="220.5703"/><rect fill="#FFFFFF" height="220.3281" style="stroke:#181818;stroke-width:1.0;" width="10" x="718.5" y="278.8359"/><rect fill="#FFFFFF" height="262.4609" style="stroke:#181818;stroke-width:1.0;" width="10" x="871.5" y="338.2344"/><rect fill="#FFFFFF" height="304.5938" style="stroke:#181818;stroke-width:1.0;" width="10" x="1039.5" y="397.6328"/><rect fill="none" height="743.7266" style="stroke:#000000;stroke-width:1.5;" width="1212.5" x="10" y="127.4297"/><line style="stroke:#181818;stroke-width:0.5;stroke-dasharray:5.0,5.0;" x1="38" x2="38" y1="81.2969" y2="888.1563"/><line style="stroke:#181818;stroke-width:0.5;stroke-dasharray:5.0,5.0;" x1="214" x2="214" y1="81.2969" y2="888.1563"/><line style="stroke:#181818;stroke-width:0.5;stroke-dasharray:5.0,5.0;" x1="375.5" x2="375.5" y1="81.2969" y2="888.1563"/><line style="stroke:#181818;stroke-width:0.5;stroke-dasharray:5.0,5.0;" x1="539.5" x2="539.5" y1="81.2969" y2="888.1563"/><line style="stroke:#181818;stroke-width:0.5;stroke-dasharray:5.0,5.0;" x1="723.5" x2="723.5" y1="81.2969" y2="888.1563"/><line style="stroke:#181818;stroke-width:0.5;stroke-dasharray:5.0,5.0;" x1="876.5" x2="876.5" y1="81.2969" y2="888.1563"/><line style="stroke:#181818;stroke-width:0.5;stroke-dasharray:5.0,5.0;" x1="1044.5" x2="1044.5" y1="81.2969" y2="888.1563"/><text fill="#000000" font-family="sans-serif" font-size="14" lengthAdjust="spacing" textLength="31" x="20" y="77.9951">User</text><ellipse cx="38.5" cy="13.5" fill="#E2E2F0" rx="8" ry="8" style="stroke:#181818;stroke-width:0.5;"/><path d="M38.5,21.5 L38.5,48.5 M25.5,29.5 L51.5,29.5 M38.5,48.5 L25.5,63.5 M38.5,48.5 L51.5,63.5 " fill="none" style="stroke:#181818;stroke-width:0.5;"/><text fill="#000000" font-family="sans-serif" font-size="14" lengthAdjust="spacing" textLength="31" x="20" y="900.1514">User</text><ellipse cx="38.5" cy="911.9531" fill="#E2E2F0" rx="8" ry="8" style="stroke:#181818;stroke-width:0.5;"/><path d="M38.5,919.9531 L38.5,946.9531 M25.5,927.9531 L51.5,927.9531 M38.5,946.9531 L25.5,961.9531 M38.5,946.9531 L51.5,961.9531 " fill="none" style="stroke:#181818;stroke-width:0.5;"/><rect fill="#E2E2F0" height="36" rx="2.5" ry="2.5" style="stroke:#181818;stroke-width:0.5;" width="149" x="140" y="44.2969"/><ellipse cx="158" cy="62.2969" fill="#ADD1B2" rx="11" ry="11" style="stroke:#181818;stroke-width:1.0;"/><path d="M160.3438,57.9688 C159.4063,57.5313 158.8125,57.3906 157.9375,57.3906 C155.3125,57.3906 153.3125,59.4688 153.3125,62.1875 L153.3125,63.3125 C153.3125,65.8906 155.4219,67.7813 158.3125,67.7813 C159.5313,67.7813 160.6875,67.4844 161.4375,66.9375 C162.0156,66.5313 162.3438,66.0781 162.3438,65.6875 C162.3438,65.2344 161.9531,64.8438 161.4844,64.8438 C161.2656,64.8438 161.0625,64.9219 160.875,65.1094 C160.4219,65.5938 160.4219,65.5938 160.2344,65.6875 C159.8125,65.9531 159.125,66.0781 158.3594,66.0781 C156.3125,66.0781 155.0156,64.9844 155.0156,63.2813 L155.0156,62.1875 C155.0156,60.4063 156.2656,59.0938 158,59.0938 C158.5781,59.0938 159.1875,59.25 159.6563,59.5 C160.1406,59.7813 160.3125,60 160.4063,60.4063 C160.4688,60.8125 160.5,60.9375 160.6406,61.0625 C160.7813,61.2031 161.0156,61.3125 161.2344,61.3125 C161.5,61.3125 161.7656,61.1719 161.9375,60.9531 C162.0469,60.7969 162.0781,60.6094 162.0781,60.1875 L162.0781,58.7656 C162.0781,58.3281 162.0625,58.2031 161.9688,58.0469 C161.8125,57.7813 161.5313,57.6406 161.2344,57.6406 C160.9375,57.6406 160.7344,57.7344 160.5156,58.0469 L160.3438,57.9688 Z " fill="#000000"/><text fill="#000000" font-family="sans-serif" font-size="14" lengthAdjust="spacing" textLength="107" x="175" y="64.292">VideoRecorder</text><rect fill="#E2E2F0" height="36" rx="2.5" ry="2.5" style="stroke:#181818;stroke-width:0.5;" width="149" x="140" y="887.1563"/><ellipse cx="158" cy="905.1563" fill="#ADD1B2" rx="11" ry="11" style="stroke:#181818;stroke-width:1.0;"/><path d="M160.3438,900.8281 C159.4063,900.3906 158.8125,900.25 157.9375,900.25 C155.3125,900.25 153.3125,902.3281 153.3125,905.0469 L153.3125,906.1719 C153.3125,908.75 155.4219,910.6406 158.3125,910.6406 C159.5313,910.6406 160.6875,910.3438 161.4375,909.7969 C162.0156,909.3906 162.3438,908.9375 162.3438,908.5469 C162.3438,908.0938 161.9531,907.7031 161.4844,907.7031 C161.2656,907.7031 161.0625,907.7813 160.875,907.9688 C160.4219,908.4531 160.4219,908.4531 160.2344,908.5469 C159.8125,908.8125 159.125,908.9375 158.3594,908.9375 C156.3125,908.9375 155.0156,907.8438 155.0156,906.1406 L155.0156,905.0469 C155.0156,903.2656 156.2656,901.9531 158,901.9531 C158.5781,901.9531 159.1875,902.1094 159.6563,902.3594 C160.1406,902.6406 160.3125,902.8594 160.4063,903.2656 C160.4688,903.6719 160.5,903.7969 160.6406,903.9219 C160.7813,904.0625 161.0156,904.1719 161.2344,904.1719 C161.5,904.1719 161.7656,904.0313 161.9375,903.8125 C162.0469,903.6563 162.0781,903.4688 162.0781,903.0469 L162.0781,901.625 C162.0781,901.1875 162.0625,901.0625 161.9688,900.9063 C161.8125,900.6406 161.5313,900.5 161.2344,900.5 C160.9375,900.5 160.7344,900.5938 160.5156,900.9063 L160.3438,900.8281 Z " fill="#000000"/><text fill="#000000" font-family="sans-serif" font-size="14" lengthAdjust="spacing" textLength="107" x="175" y="907.1514">VideoRecorder</text><rect fill="#E2E2F0" height="36" rx="2.5" ry="2.5" style="stroke:#181818;stroke-width:0.5;" width="112" x="319.5" y="44.2969"/><ellipse cx="337.5" cy="62.2969" fill="#ADD1B2" rx="11" ry="11" style="stroke:#181818;stroke-width:1.0;"/><path d="M339.8438,57.9688 C338.9063,57.5313 338.3125,57.3906 337.4375,57.3906 C334.8125,57.3906 332.8125,59.4688 332.8125,62.1875 L332.8125,63.3125 C332.8125,65.8906 334.9219,67.7813 337.8125,67.7813 C339.0313,67.7813 340.1875,67.4844 340.9375,66.9375 C341.5156,66.5313 341.8438,66.0781 341.8438,65.6875 C341.8438,65.2344 341.4531,64.8438 340.9844,64.8438 C340.7656,64.8438 340.5625,64.9219 340.375,65.1094 C339.9219,65.5938 339.9219,65.5938 339.7344,65.6875 C339.3125,65.9531 338.625,66.0781 337.8594,66.0781 C335.8125,66.0781 334.5156,64.9844 334.5156,63.2813 L334.5156,62.1875 C334.5156,60.4063 335.7656,59.0938 337.5,59.0938 C338.0781,59.0938 338.6875,59.25 339.1563,59.5 C339.6406,59.7813 339.8125,60 339.9063,60.4063 C339.9688,60.8125 340,60.9375 340.1406,61.0625 C340.2813,61.2031 340.5156,61.3125 340.7344,61.3125 C341,61.3125 341.2656,61.1719 341.4375,60.9531 C341.5469,60.7969 341.5781,60.6094 341.5781,60.1875 L341.5781,58.7656 C341.5781,58.3281 341.5625,58.2031 341.4688,58.0469 C341.3125,57.7813 341.0313,57.6406 340.7344,57.6406 C340.4375,57.6406 340.2344,57.7344 340.0156,58.0469 L339.8438,57.9688 Z " fill="#000000"/><text fill="#000000" font-family="sans-serif" font-size="14" lengthAdjust="spacing" textLength="70" x="354.5" y="64.292">FaceMesh</text><rect fill="#E2E2F0" height="36" rx="2.5" ry="2.5" style="stroke:#181818;stroke-width:0.5;" width="112" x="319.5" y="887.1563"/><ellipse cx="337.5" cy="905.1563" fill="#ADD1B2" rx="11" ry="11" style="stroke:#181818;stroke-width:1.0;"/><path d="M339.8438,900.8281 C338.9063,900.3906 338.3125,900.25 337.4375,900.25 C334.8125,900.25 332.8125,902.3281 332.8125,905.0469 L332.8125,906.1719 C332.8125,908.75 334.9219,910.6406 337.8125,910.6406 C339.0313,910.6406 340.1875,910.3438 340.9375,909.7969 C341.5156,909.3906 341.8438,908.9375 341.8438,908.5469 C341.8438,908.0938 341.4531,907.7031 340.9844,907.7031 C340.7656,907.7031 340.5625,907.7813 340.375,907.9688 C339.9219,908.4531 339.9219,908.4531 339.7344,908.5469 C339.3125,908.8125 338.625,908.9375 337.8594,908.9375 C335.8125,908.9375 334.5156,907.8438 334.5156,906.1406 L334.5156,905.0469 C334.5156,903.2656 335.7656,901.9531 337.5,901.9531 C338.0781,901.9531 338.6875,902.1094 339.1563,902.3594 C339.6406,902.6406 339.8125,902.8594 339.9063,903.2656 C339.9688,903.6719 340,903.7969 340.1406,903.9219 C340.2813,904.0625 340.5156,904.1719 340.7344,904.1719 C341,904.1719 341.2656,904.0313 341.4375,903.8125 C341.5469,903.6563 341.5781,903.4688 341.5781,903.0469 L341.5781,901.625 C341.5781,901.1875 341.5625,901.0625 341.4688,900.9063 C341.3125,900.6406 341.0313,900.5 340.7344,900.5 C340.4375,900.5 340.2344,900.5938 340.0156,900.9063 L339.8438,900.8281 Z " fill="#000000"/><text fill="#000000" font-family="sans-serif" font-size="14" lengthAdjust="spacing" textLength="70" x="354.5" y="907.1514">FaceMesh</text><rect fill="#E2E2F0" height="36" rx="2.5" ry="2.5" style="stroke:#181818;stroke-width:0.5;" width="108" x="485.5" y="44.2969"/><ellipse cx="503.5" cy="62.2969" fill="#ADD1B2" rx="11" ry="11" style="stroke:#181818;stroke-width:1.0;"/><path d="M505.8438,57.9688 C504.9063,57.5313 504.3125,57.3906 503.4375,57.3906 C500.8125,57.3906 498.8125,59.4688 498.8125,62.1875 L498.8125,63.3125 C498.8125,65.8906 500.9219,67.7813 503.8125,67.7813 C505.0313,67.7813 506.1875,67.4844 506.9375,66.9375 C507.5156,66.5313 507.8438,66.0781 507.8438,65.6875 C507.8438,65.2344 507.4531,64.8438 506.9844,64.8438 C506.7656,64.8438 506.5625,64.9219 506.375,65.1094 C505.9219,65.5938 505.9219,65.5938 505.7344,65.6875 C505.3125,65.9531 504.625,66.0781 503.8594,66.0781 C501.8125,66.0781 500.5156,64.9844 500.5156,63.2813 L500.5156,62.1875 C500.5156,60.4063 501.7656,59.0938 503.5,59.0938 C504.0781,59.0938 504.6875,59.25 505.1563,59.5 C505.6406,59.7813 505.8125,60 505.9063,60.4063 C505.9688,60.8125 506,60.9375 506.1406,61.0625 C506.2813,61.2031 506.5156,61.3125 506.7344,61.3125 C507,61.3125 507.2656,61.1719 507.4375,60.9531 C507.5469,60.7969 507.5781,60.6094 507.5781,60.1875 L507.5781,58.7656 C507.5781,58.3281 507.5625,58.2031 507.4688,58.0469 C507.3125,57.7813 507.0313,57.6406 506.7344,57.6406 C506.4375,57.6406 506.2344,57.7344 506.0156,58.0469 L505.8438,57.9688 Z " fill="#000000"/><text fill="#000000" font-family="sans-serif" font-size="14" lengthAdjust="spacing" textLength="66" x="520.5" y="64.292">Detector</text><rect fill="#E2E2F0" height="36" rx="2.5" ry="2.5" style="stroke:#181818;stroke-width:0.5;" width="108" x="485.5" y="887.1563"/><ellipse cx="503.5" cy="905.1563" fill="#ADD1B2" rx="11" ry="11" style="stroke:#181818;stroke-width:1.0;"/><path d="M505.8438,900.8281 C504.9063,900.3906 504.3125,900.25 503.4375,900.25 C500.8125,900.25 498.8125,902.3281 498.8125,905.0469 L498.8125,906.1719 C498.8125,908.75 500.9219,910.6406 503.8125,910.6406 C505.0313,910.6406 506.1875,910.3438 506.9375,909.7969 C507.5156,909.3906 507.8438,908.9375 507.8438,908.5469 C507.8438,908.0938 507.4531,907.7031 506.9844,907.7031 C506.7656,907.7031 506.5625,907.7813 506.375,907.9688 C505.9219,908.4531 505.9219,908.4531 505.7344,908.5469 C505.3125,908.8125 504.625,908.9375 503.8594,908.9375 C501.8125,908.9375 500.5156,907.8438 500.5156,906.1406 L500.5156,905.0469 C500.5156,903.2656 501.7656,901.9531 503.5,901.9531 C504.0781,901.9531 504.6875,902.1094 505.1563,902.3594 C505.6406,902.6406 505.8125,902.8594 505.9063,903.2656 C505.9688,903.6719 506,903.7969 506.1406,903.9219 C506.2813,904.0625 506.5156,904.1719 506.7344,904.1719 C507,904.1719 507.2656,904.0313 507.4375,903.8125 C507.5469,903.6563 507.5781,903.4688 507.5781,903.0469 L507.5781,901.625 C507.5781,901.1875 507.5625,901.0625 507.4688,900.9063 C507.3125,900.6406 507.0313,900.5 506.7344,900.5 C506.4375,900.5 506.2344,900.5938 506.0156,900.9063 L505.8438,900.8281 Z " fill="#000000"/><text fill="#000000" font-family="sans-serif" font-size="14" lengthAdjust="spacing" textLength="66" x="520.5" y="907.1514">Detector</text><rect fill="#E2E2F0" height="36" rx="2.5" ry="2.5" style="stroke:#181818;stroke-width:0.5;" width="122" x="662.5" y="44.2969"/><ellipse cx="680.5" cy="62.2969" fill="#ADD1B2" rx="11" ry="11" style="stroke:#181818;stroke-width:1.0;"/><path d="M682.8438,57.9688 C681.9063,57.5313 681.3125,57.3906 680.4375,57.3906 C677.8125,57.3906 675.8125,59.4688 675.8125,62.1875 L675.8125,63.3125 C675.8125,65.8906 677.9219,67.7813 680.8125,67.7813 C682.0313,67.7813 683.1875,67.4844 683.9375,66.9375 C684.5156,66.5313 684.8438,66.0781 684.8438,65.6875 C684.8438,65.2344 684.4531,64.8438 683.9844,64.8438 C683.7656,64.8438 683.5625,64.9219 683.375,65.1094 C682.9219,65.5938 682.9219,65.5938 682.7344,65.6875 C682.3125,65.9531 681.625,66.0781 680.8594,66.0781 C678.8125,66.0781 677.5156,64.9844 677.5156,63.2813 L677.5156,62.1875 C677.5156,60.4063 678.7656,59.0938 680.5,59.0938 C681.0781,59.0938 681.6875,59.25 682.1563,59.5 C682.6406,59.7813 682.8125,60 682.9063,60.4063 C682.9688,60.8125 683,60.9375 683.1406,61.0625 C683.2813,61.2031 683.5156,61.3125 683.7344,61.3125 C684,61.3125 684.2656,61.1719 684.4375,60.9531 C684.5469,60.7969 684.5781,60.6094 684.5781,60.1875 L684.5781,58.7656 C684.5781,58.3281 684.5625,58.2031 684.4688,58.0469 C684.3125,57.7813 684.0313,57.6406 683.7344,57.6406 C683.4375,57.6406 683.2344,57.7344 683.0156,58.0469 L682.8438,57.9688 Z " fill="#000000"/><text fill="#000000" font-family="sans-serif" font-size="14" lengthAdjust="spacing" textLength="80" x="697.5" y="64.292">Distraction</text><rect fill="#E2E2F0" height="36" rx="2.5" ry="2.5" style="stroke:#181818;stroke-width:0.5;" width="122" x="662.5" y="887.1563"/><ellipse cx="680.5" cy="905.1563" fill="#ADD1B2" rx="11" ry="11" style="stroke:#181818;stroke-width:1.0;"/><path d="M682.8438,900.8281 C681.9063,900.3906 681.3125,900.25 680.4375,900.25 C677.8125,900.25 675.8125,902.3281 675.8125,905.0469 L675.8125,906.1719 C675.8125,908.75 677.9219,910.6406 680.8125,910.6406 C682.0313,910.6406 683.1875,910.3438 683.9375,909.7969 C684.5156,909.3906 684.8438,908.9375 684.8438,908.5469 C684.8438,908.0938 684.4531,907.7031 683.9844,907.7031 C683.7656,907.7031 683.5625,907.7813 683.375,907.9688 C682.9219,908.4531 682.9219,908.4531 682.7344,908.5469 C682.3125,908.8125 681.625,908.9375 680.8594,908.9375 C678.8125,908.9375 677.5156,907.8438 677.5156,906.1406 L677.5156,905.0469 C677.5156,903.2656 678.7656,901.9531 680.5,901.9531 C681.0781,901.9531 681.6875,902.1094 682.1563,902.3594 C682.6406,902.6406 682.8125,902.8594 682.9063,903.2656 C682.9688,903.6719 683,903.7969 683.1406,903.9219 C683.2813,904.0625 683.5156,904.1719 683.7344,904.1719 C684,904.1719 684.2656,904.0313 684.4375,903.8125 C684.5469,903.6563 684.5781,903.4688 684.5781,903.0469 L684.5781,901.625 C684.5781,901.1875 684.5625,901.0625 684.4688,900.9063 C684.3125,900.6406 684.0313,900.5 683.7344,900.5 C683.4375,900.5 683.2344,900.5938 683.0156,900.9063 L682.8438,900.8281 Z " fill="#000000"/><text fill="#000000" font-family="sans-serif" font-size="14" lengthAdjust="spacing" textLength="80" x="697.5" y="907.1514">Distraction</text><rect fill="#E2E2F0" height="36" rx="2.5" ry="2.5" style="stroke:#181818;stroke-width:0.5;" width="122" x="815.5" y="44.2969"/><ellipse cx="833.5" cy="62.2969" fill="#ADD1B2" rx="11" ry="11" style="stroke:#181818;stroke-width:1.0;"/><path d="M835.8438,57.9688 C834.9063,57.5313 834.3125,57.3906 833.4375,57.3906 C830.8125,57.3906 828.8125,59.4688 828.8125,62.1875 L828.8125,63.3125 C828.8125,65.8906 830.9219,67.7813 833.8125,67.7813 C835.0313,67.7813 836.1875,67.4844 836.9375,66.9375 C837.5156,66.5313 837.8438,66.0781 837.8438,65.6875 C837.8438,65.2344 837.4531,64.8438 836.9844,64.8438 C836.7656,64.8438 836.5625,64.9219 836.375,65.1094 C835.9219,65.5938 835.9219,65.5938 835.7344,65.6875 C835.3125,65.9531 834.625,66.0781 833.8594,66.0781 C831.8125,66.0781 830.5156,64.9844 830.5156,63.2813 L830.5156,62.1875 C830.5156,60.4063 831.7656,59.0938 833.5,59.0938 C834.0781,59.0938 834.6875,59.25 835.1563,59.5 C835.6406,59.7813 835.8125,60 835.9063,60.4063 C835.9688,60.8125 836,60.9375 836.1406,61.0625 C836.2813,61.2031 836.5156,61.3125 836.7344,61.3125 C837,61.3125 837.2656,61.1719 837.4375,60.9531 C837.5469,60.7969 837.5781,60.6094 837.5781,60.1875 L837.5781,58.7656 C837.5781,58.3281 837.5625,58.2031 837.4688,58.0469 C837.3125,57.7813 837.0313,57.6406 836.7344,57.6406 C836.4375,57.6406 836.2344,57.7344 836.0156,58.0469 L835.8438,57.9688 Z " fill="#000000"/><text fill="#000000" font-family="sans-serif" font-size="14" lengthAdjust="spacing" textLength="80" x="850.5" y="64.292">Drowsiness</text><rect fill="#E2E2F0" height="36" rx="2.5" ry="2.5" style="stroke:#181818;stroke-width:0.5;" width="122" x="815.5" y="887.1563"/><ellipse cx="833.5" cy="905.1563" fill="#ADD1B2" rx="11" ry="11" style="stroke:#181818;stroke-width:1.0;"/><path d="M835.8438,900.8281 C834.9063,900.3906 834.3125,900.25 833.4375,900.25 C830.8125,900.25 828.8125,902.3281 828.8125,905.0469 L828.8125,906.1719 C828.8125,908.75 830.9219,910.6406 833.8125,910.6406 C835.0313,910.6406 836.1875,910.3438 836.9375,909.7969 C837.5156,909.3906 837.8438,908.9375 837.8438,908.5469 C837.8438,908.0938 837.4531,907.7031 836.9844,907.7031 C836.7656,907.7031 836.5625,907.7813 836.375,907.9688 C835.9219,908.4531 835.9219,908.4531 835.7344,908.5469 C835.3125,908.8125 834.625,908.9375 833.8594,908.9375 C831.8125,908.9375 830.5156,907.8438 830.5156,906.1406 L830.5156,905.0469 C830.5156,903.2656 831.7656,901.9531 833.5,901.9531 C834.0781,901.9531 834.6875,902.1094 835.1563,902.3594 C835.6406,902.6406 835.8125,902.8594 835.9063,903.2656 C835.9688,903.6719 836,903.7969 836.1406,903.9219 C836.2813,904.0625 836.5156,904.1719 836.7344,904.1719 C837,904.1719 837.2656,904.0313 837.4375,903.8125 C837.5469,903.6563 837.5781,903.4688 837.5781,903.0469 L837.5781,901.625 C837.5781,901.1875 837.5625,901.0625 837.4688,900.9063 C837.3125,900.6406 837.0313,900.5 836.7344,900.5 C836.4375,900.5 836.2344,900.5938 836.0156,900.9063 L835.8438,900.8281 Z " fill="#000000"/><text fill="#000000" font-family="sans-serif" font-size="14" lengthAdjust="spacing" textLength="80" x="850.5" y="907.1514">Drowsiness</text><rect fill="#E2E2F0" height="36" rx="2.5" ry="2.5" style="stroke:#181818;stroke-width:0.5;" width="136" x="976.5" y="44.2969"/><ellipse cx="994.5" cy="62.2969" fill="#ADD1B2" rx="11" ry="11" style="stroke:#181818;stroke-width:1.0;"/><path d="M996.8438,57.9688 C995.9063,57.5313 995.3125,57.3906 994.4375,57.3906 C991.8125,57.3906 989.8125,59.4688 989.8125,62.1875 L989.8125,63.3125 C989.8125,65.8906 991.9219,67.7813 994.8125,67.7813 C996.0313,67.7813 997.1875,67.4844 997.9375,66.9375 C998.5156,66.5313 998.8438,66.0781 998.8438,65.6875 C998.8438,65.2344 998.4531,64.8438 997.9844,64.8438 C997.7656,64.8438 997.5625,64.9219 997.375,65.1094 C996.9219,65.5938 996.9219,65.5938 996.7344,65.6875 C996.3125,65.9531 995.625,66.0781 994.8594,66.0781 C992.8125,66.0781 991.5156,64.9844 991.5156,63.2813 L991.5156,62.1875 C991.5156,60.4063 992.7656,59.0938 994.5,59.0938 C995.0781,59.0938 995.6875,59.25 996.1563,59.5 C996.6406,59.7813 996.8125,60 996.9063,60.4063 C996.9688,60.8125 997,60.9375 997.1406,61.0625 C997.2813,61.2031 997.5156,61.3125 997.7344,61.3125 C998,61.3125 998.2656,61.1719 998.4375,60.9531 C998.5469,60.7969 998.5781,60.6094 998.5781,60.1875 L998.5781,58.7656 C998.5781,58.3281 998.5625,58.2031 998.4688,58.0469 C998.3125,57.7813 998.0313,57.6406 997.7344,57.6406 C997.4375,57.6406 997.2344,57.7344 997.0156,58.0469 L996.8438,57.9688 Z " fill="#000000"/><text fill="#000000" font-family="sans-serif" font-size="14" lengthAdjust="spacing" textLength="94" x="1011.5" y="64.292">LookingAway</text><rect fill="#E2E2F0" height="36" rx="2.5" ry="2.5" style="stroke:#181818;stroke-width:0.5;" width="136" x="976.5" y="887.1563"/><ellipse cx="994.5" cy="905.1563" fill="#ADD1B2" rx="11" ry="11" style="stroke:#181818;stroke-width:1.0;"/><path d="M996.8438,900.8281 C995.9063,900.3906 995.3125,900.25 994.4375,900.25 C991.8125,900.25 989.8125,902.3281 989.8125,905.0469 L989.8125,906.1719 C989.8125,908.75 991.9219,910.6406 994.8125,910.6406 C996.0313,910.6406 997.1875,910.3438 997.9375,909.7969 C998.5156,909.3906 998.8438,908.9375 998.8438,908.5469 C998.8438,908.0938 998.4531,907.7031 997.9844,907.7031 C997.7656,907.7031 997.5625,907.7813 997.375,907.9688 C996.9219,908.4531 996.9219,908.4531 996.7344,908.5469 C996.3125,908.8125 995.625,908.9375 994.8594,908.9375 C992.8125,908.9375 991.5156,907.8438 991.5156,906.1406 L991.5156,905.0469 C991.5156,903.2656 992.7656,901.9531 994.5,901.9531 C995.0781,901.9531 995.6875,902.1094 996.1563,902.3594 C996.6406,902.6406 996.8125,902.8594 996.9063,903.2656 C996.9688,903.6719 997,903.7969 997.1406,903.9219 C997.2813,904.0625 997.5156,904.1719 997.7344,904.1719 C998,904.1719 998.2656,904.0313 998.4375,903.8125 C998.5469,903.6563 998.5781,903.4688 998.5781,903.0469 L998.5781,901.625 C998.5781,901.1875 998.5625,901.0625 998.4688,900.9063 C998.3125,900.6406 998.0313,900.5 997.7344,900.5 C997.4375,900.5 997.2344,900.5938 997.0156,900.9063 L996.8438,900.8281 Z " fill="#000000"/><text fill="#000000" font-family="sans-serif" font-size="14" lengthAdjust="spacing" textLength="94" x="1011.5" y="907.1514">LookingAway</text><rect fill="#FFFFFF" height="766.7266" style="stroke:#181818;stroke-width:1.0;" width="10" x="209.5" y="112.4297"/><rect fill="#FFFFFF" height="73.3984" style="stroke:#181818;stroke-width:1.0;" width="10" x="370.5" y="176.3047"/><rect fill="#FFFFFF" height="598.3203" style="stroke:#181818;stroke-width:1.0;" width="10" x="534.5" y="220.5703"/><rect fill="#FFFFFF" height="220.3281" style="stroke:#181818;stroke-width:1.0;" width="10" x="718.5" y="278.8359"/><rect fill="#FFFFFF" height="262.4609" style="stroke:#181818;stroke-width:1.0;" width="10" x="871.5" y="338.2344"/><rect fill="#FFFFFF" height="304.5938" style="stroke:#181818;stroke-width:1.0;" width="10" x="1039.5" y="397.6328"/><polygon fill="#181818" points="197.5,108.4297,207.5,112.4297,197.5,116.4297,201.5,112.4297" style="stroke:#181818;stroke-width:1.0;"/><line style="stroke:#181818;stroke-width:1.0;" x1="38.5" x2="203.5" y1="112.4297" y2="112.4297"/><text fill="#000000" font-family="sans-serif" font-size="13" font-weight="bold" lengthAdjust="spacing" textLength="9" x="45.5" y="107.3638">1</text><text fill="#000000" font-family="sans-serif" font-size="13" lengthAdjust="spacing" textLength="139" x="58.5" y="107.3638">Start Video Recording</text><path d="M10,127.4297 L88,127.4297 L88,134.5625 L78,144.5625 L10,144.5625 L10,127.4297 " fill="#EEEEEE" style="stroke:#000000;stroke-width:1.5;"/><rect fill="none" height="743.7266" style="stroke:#000000;stroke-width:1.5;" width="1212.5" x="10" y="127.4297"/><text fill="#000000" font-family="sans-serif" font-size="13" font-weight="bold" lengthAdjust="spacing" textLength="33" x="25" y="140.4966">loop</text><text fill="#000000" font-family="sans-serif" font-size="11" font-weight="bold" lengthAdjust="spacing" textLength="111" x="103" y="139.6401">[if Video Stream</text><text fill="#000000" font-family="sans-serif" font-size="11" font-weight="bold" lengthAdjust="spacing" textLength="54" x="103" y="152.4448">is Open]</text><polygon fill="#181818" points="358.5,172.3047,368.5,176.3047,358.5,180.3047,362.5,176.3047" style="stroke:#181818;stroke-width:1.0;"/><line style="stroke:#181818;stroke-width:1.0;" x1="219.5" x2="364.5" y1="176.3047" y2="176.3047"/><text fill="#000000" font-family="sans-serif" font-size="13" font-weight="bold" lengthAdjust="spacing" textLength="9" x="226.5" y="171.2388">2</text><text fill="#000000" font-family="sans-serif" font-size="13" lengthAdjust="spacing" textLength="117" x="239.5" y="171.2388">Send Video Frame</text><polygon fill="#181818" points="522.5,216.5703,532.5,220.5703,522.5,224.5703,526.5,220.5703" style="stroke:#181818;stroke-width:1.0;"/><line style="stroke:#181818;stroke-width:1.0;" x1="380.5" x2="528.5" y1="220.5703" y2="220.5703"/><text fill="#000000" font-family="sans-serif" font-size="13" font-weight="bold" lengthAdjust="spacing" textLength="8" x="387.5" y="207.938">3</text><text fill="#000000" font-family="sans-serif" font-size="13" lengthAdjust="spacing" textLength="123" x="399.5" y="200.3716">Compute and Send</text><text fill="#000000" font-family="sans-serif" font-size="13" lengthAdjust="spacing" textLength="111" x="399.5" y="215.5044">Facial Landmarks</text><polygon fill="#181818" points="230.5,245.7031,220.5,249.7031,230.5,253.7031,226.5,249.7031" style="stroke:#181818;stroke-width:1.0;"/><line style="stroke:#181818;stroke-width:1.0;stroke-dasharray:2.0,2.0;" x1="224.5" x2="374.5" y1="249.7031" y2="249.7031"/><text fill="#000000" font-family="sans-serif" font-size="13" font-weight="bold" lengthAdjust="spacing" textLength="9" x="236.5" y="244.6372">4</text><text fill="#000000" font-family="sans-serif" font-size="13" lengthAdjust="spacing" textLength="114" x="249.5" y="244.6372">No Face Detected</text><polygon fill="#181818" points="706.5,274.8359,716.5,278.8359,706.5,282.8359,710.5,278.8359" style="stroke:#181818;stroke-width:1.0;"/><line style="stroke:#181818;stroke-width:1.0;" x1="544.5" x2="712.5" y1="278.8359" y2="278.8359"/><text fill="#000000" font-family="sans-serif" font-size="13" font-weight="bold" lengthAdjust="spacing" textLength="9" x="551.5" y="273.77">5</text><text fill="#000000" font-family="sans-serif" font-size="13" lengthAdjust="spacing" textLength="117" x="564.5" y="273.77">Send Video Frame</text><polygon fill="#181818" points="859.5,334.2344,869.5,338.2344,859.5,342.2344,863.5,338.2344" style="stroke:#181818;stroke-width:1.0;"/><line style="stroke:#181818;stroke-width:1.0;" x1="544.5" x2="865.5" y1="338.2344" y2="338.2344"/><text fill="#000000" font-family="sans-serif" font-size="13" font-weight="bold" lengthAdjust="spacing" textLength="9" x="551.5" y="318.0356">6</text><text fill="#000000" font-family="sans-serif" font-size="13" lengthAdjust="spacing" textLength="117" x="564.5" y="302.9028">Send Video Frame</text><text fill="#000000" font-family="sans-serif" font-size="13" lengthAdjust="spacing" textLength="64" x="564.5" y="318.0356">and Facial</text><text fill="#000000" font-family="sans-serif" font-size="13" lengthAdjust="spacing" textLength="71" x="564.5" y="333.1685">Landmarks</text><polygon fill="#181818" points="1027.5,393.6328,1037.5,397.6328,1027.5,401.6328,1031.5,397.6328" style="stroke:#181818;stroke-width:1.0;"/><line style="stroke:#181818;stroke-width:1.0;" x1="544.5" x2="1033.5" y1="397.6328" y2="397.6328"/><text fill="#000000" font-family="sans-serif" font-size="13" font-weight="bold" lengthAdjust="spacing" textLength="9" x="551.5" y="377.4341">7</text><text fill="#000000" font-family="sans-serif" font-size="13" lengthAdjust="spacing" textLength="117" x="564.5" y="362.3013">Send Video Frame</text><text fill="#000000" font-family="sans-serif" font-size="13" lengthAdjust="spacing" textLength="64" x="564.5" y="377.4341">and Facial</text><text fill="#000000" font-family="sans-serif" font-size="13" lengthAdjust="spacing" textLength="71" x="564.5" y="392.5669">Landmarks</text><line style="stroke:#181818;stroke-width:1.0;" x1="728.5" x2="770.5" y1="441.8984" y2="441.8984"/><line style="stroke:#181818;stroke-width:1.0;" x1="770.5" x2="770.5" y1="441.8984" y2="454.8984"/><line style="stroke:#181818;stroke-width:1.0;" x1="729.5" x2="770.5" y1="454.8984" y2="454.8984"/><polygon fill="#181818" points="739.5,450.8984,729.5,454.8984,739.5,458.8984,735.5,454.8984" style="stroke:#181818;stroke-width:1.0;"/><text fill="#000000" font-family="sans-serif" font-size="13" font-weight="bold" lengthAdjust="spacing" textLength="9" x="735.5" y="429.2661">8</text><text fill="#000000" font-family="sans-serif" font-size="13" lengthAdjust="spacing" textLength="116" x="748.5" y="421.6997">Detect Distraction</text><text fill="#000000" font-family="sans-serif" font-size="13" lengthAdjust="spacing" textLength="90" x="748.5" y="436.8325">and set Alarm</text><polygon fill="#181818" points="555.5,495.1641,545.5,499.1641,555.5,503.1641,551.5,499.1641" style="stroke:#181818;stroke-width:1.0;"/><line style="stroke:#181818;stroke-width:1.0;" x1="549.5" x2="722.5" y1="499.1641" y2="499.1641"/><text fill="#000000" font-family="sans-serif" font-size="13" font-weight="bold" lengthAdjust="spacing" textLength="9" x="561.5" y="486.5317">9</text><text fill="#000000" font-family="sans-serif" font-size="13" lengthAdjust="spacing" textLength="43" x="574.5" y="478.9653">Return</text><text fill="#000000" font-family="sans-serif" font-size="13" lengthAdjust="spacing" textLength="107" x="574.5" y="494.0981">Distraction State</text><line style="stroke:#181818;stroke-width:1.0;" x1="881.5" x2="923.5" y1="543.4297" y2="543.4297"/><line style="stroke:#181818;stroke-width:1.0;" x1="923.5" x2="923.5" y1="543.4297" y2="556.4297"/><line style="stroke:#181818;stroke-width:1.0;" x1="882.5" x2="923.5" y1="556.4297" y2="556.4297"/><polygon fill="#181818" points="892.5,552.4297,882.5,556.4297,892.5,560.4297,888.5,556.4297" style="stroke:#181818;stroke-width:1.0;"/><text fill="#000000" font-family="sans-serif" font-size="13" font-weight="bold" lengthAdjust="spacing" textLength="19" x="888.5" y="530.7974">10</text><text fill="#000000" font-family="sans-serif" font-size="13" lengthAdjust="spacing" textLength="121" x="911.5" y="523.231">Detect Drowsiness</text><text fill="#000000" font-family="sans-serif" font-size="13" lengthAdjust="spacing" textLength="90" x="911.5" y="538.3638">and set Alarm</text><polygon fill="#181818" points="555.5,596.6953,545.5,600.6953,555.5,604.6953,551.5,600.6953" style="stroke:#181818;stroke-width:1.0;"/><line style="stroke:#181818;stroke-width:1.0;" x1="549.5" x2="875.5" y1="600.6953" y2="600.6953"/><text fill="#000000" font-family="sans-serif" font-size="13" font-weight="bold" lengthAdjust="spacing" textLength="18" x="561.5" y="588.063">11</text><text fill="#000000" font-family="sans-serif" font-size="13" lengthAdjust="spacing" textLength="43" x="583.5" y="580.4966">Return</text><text fill="#000000" font-family="sans-serif" font-size="13" lengthAdjust="spacing" textLength="112" x="583.5" y="595.6294">Drowsiness State</text><line style="stroke:#181818;stroke-width:1.0;" x1="1049.5" x2="1091.5" y1="644.9609" y2="644.9609"/><line style="stroke:#181818;stroke-width:1.0;" x1="1091.5" x2="1091.5" y1="644.9609" y2="657.9609"/><line style="stroke:#181818;stroke-width:1.0;" x1="1050.5" x2="1091.5" y1="657.9609" y2="657.9609"/><polygon fill="#181818" points="1060.5,653.9609,1050.5,657.9609,1060.5,661.9609,1056.5,657.9609" style="stroke:#181818;stroke-width:1.0;"/><text fill="#000000" font-family="sans-serif" font-size="13" font-weight="bold" lengthAdjust="spacing" textLength="18" x="1056.5" y="632.3286">12</text><text fill="#000000" font-family="sans-serif" font-size="13" lengthAdjust="spacing" textLength="132" x="1078.5" y="624.7622">Detect LookingAway</text><text fill="#000000" font-family="sans-serif" font-size="13" lengthAdjust="spacing" textLength="90" x="1078.5" y="639.895">and set Alarm</text><polygon fill="#181818" points="555.5,698.2266,545.5,702.2266,555.5,706.2266,551.5,702.2266" style="stroke:#181818;stroke-width:1.0;"/><line style="stroke:#181818;stroke-width:1.0;" x1="549.5" x2="1043.5" y1="702.2266" y2="702.2266"/><text fill="#000000" font-family="sans-serif" font-size="13" font-weight="bold" lengthAdjust="spacing" textLength="17" x="561.5" y="689.5942">13</text><text fill="#000000" font-family="sans-serif" font-size="13" lengthAdjust="spacing" textLength="43" x="582.5" y="682.0278">Return</text><text fill="#000000" font-family="sans-serif" font-size="13" lengthAdjust="spacing" textLength="123" x="582.5" y="697.1606">LookingAway State</text><line style="stroke:#181818;stroke-width:1.0;" x1="544.5" x2="586.5" y1="761.625" y2="761.625"/><line style="stroke:#181818;stroke-width:1.0;" x1="586.5" x2="586.5" y1="761.625" y2="774.625"/><line style="stroke:#181818;stroke-width:1.0;" x1="545.5" x2="586.5" y1="774.625" y2="774.625"/><polygon fill="#181818" points="555.5,770.625,545.5,774.625,555.5,778.625,551.5,774.625" style="stroke:#181818;stroke-width:1.0;"/><text fill="#000000" font-family="sans-serif" font-size="13" font-weight="bold" lengthAdjust="spacing" textLength="18" x="551.5" y="741.4263">14</text><text fill="#000000" font-family="sans-serif" font-size="13" lengthAdjust="spacing" textLength="81" x="573.5" y="726.2935">Check Alarm</text><text fill="#000000" font-family="sans-serif" font-size="13" lengthAdjust="spacing" textLength="138" x="573.5" y="741.4263">and if True reproduce</text><text fill="#000000" font-family="sans-serif" font-size="13" lengthAdjust="spacing" textLength="82" x="573.5" y="756.5591">Alarm Sound</text><polygon fill="#181818" points="230.5,814.8906,220.5,818.8906,230.5,822.8906,226.5,818.8906" style="stroke:#181818;stroke-width:1.0;"/><line style="stroke:#181818;stroke-width:1.0;" x1="224.5" x2="538.5" y1="818.8906" y2="818.8906"/><text fill="#000000" font-family="sans-serif" font-size="13" font-weight="bold" lengthAdjust="spacing" textLength="18" x="236.5" y="806.2583">15</text><text fill="#000000" font-family="sans-serif" font-size="13" lengthAdjust="spacing" textLength="43" x="258.5" y="798.6919">Return</text><text fill="#000000" font-family="sans-serif" font-size="13" lengthAdjust="spacing" textLength="76" x="258.5" y="813.8247">Alarm State</text><polygon fill="#181818" points="49.5,859.1563,39.5,863.1563,49.5,867.1563,45.5,863.1563" style="stroke:#181818;stroke-width:1.0;"/><line style="stroke:#181818;stroke-width:1.0;" x1="43.5" x2="208.5" y1="863.1563" y2="863.1563"/><text fill="#000000" font-family="sans-serif" font-size="13" font-weight="bold" lengthAdjust="spacing" textLength="18" x="55.5" y="850.5239">16</text><text fill="#000000" font-family="sans-serif" font-size="13" lengthAdjust="spacing" textLength="113" x="77.5" y="842.9575">Play Alarm Sound</text><text fill="#000000" font-family="sans-serif" font-size="13" lengthAdjust="spacing" textLength="97" x="77.5" y="858.0903">if Alarm is True</text><!--SRC=[dLHDRuCm3BtpAopjiadROJjMLINMggVkG-ss4vSCt3Kg92W9g_RlPo1029cGrblDy_FpinsM6gdWNQEAIgOCJtd9X84Fdg7SOofLXWgMIxXUtrx5cytzuyCDh5OZx9Qb-8JwD0FReC6cs0oCQwDOQhWKSqWbBveBr7e6k9FopCLNV64_0MJ4AYD5LNoI1RKFSBSQjx-0Wo6sDWXjbEYYc4H-CuDZT1JbKfR0ZnP_C0fPaGYkuQL44G7znkvIlSv2AeKYivbRnGfiy7sb3XSruTvuOkZSNS1Q5cL5M4P4DLiY2CTP3ZkA54oTzPYpo_GvfpOyo-QppS2iISYGXTNrywxL3KETQz611dZwaKzf4b5ttFQQYB-QxGccvCwQ_9FTOR3qpZBxDhIbtLXRGwE1E6Ug23BqOzwZgHIbk03QKuF-L5o0LJKSZkTffwaF1IMDqwUAXkzXGTuCtFFqns05ER6G8ezXAia513LD9-TktN1R9qpFRU5M1vtvcweG59PAPbLAUz9yXOEiH3PXyWwgasTJWcQDhdFoSDGFrW9US-hBgKklpT7-fsUd4HZHFly2]--></g></svg>