<?xml version="1.0" encoding="us-ascii" standalone="no"?><svg xmlns="http://www.w3.org/2000/svg" xmlns:xlink="http://www.w3.org/1999/xlink" contentStyleType="text/css" height="471px" preserveAspectRatio="none" style="width:847px;height:471px;background:#FFFFFF;" version="1.1" viewBox="0 0 847 471" width="847px" zoomAndPan="magnify"><defs/><g><rect fill="#FFFFFF" height="268.8047" style="stroke:#181818;stroke-width:1.0;" width="10" x="262.5" y="112.4297"/><rect fill="#FFFFFF" height="144.6641" style="stroke:#181818;stroke-width:1.0;" width="10" x="455.5" y="176.3047"/><rect fill="#FFFFFF" height="86.3984" style="stroke:#181818;stroke-width:1.0;" width="10" x="648.5" y="205.4375"/><rect fill="none" height="245.8047" style="stroke:#000000;stroke-width:1.5;" width="831.5" x="10" y="127.4297"/><line style="stroke:#181818;stroke-width:0.5;stroke-dasharray:5.0,5.0;" x1="38" x2="38" y1="81.2969" y2="390.2344"/><line style="stroke:#181818;stroke-width:0.5;stroke-dasharray:5.0,5.0;" x1="267.5" x2="267.5" y1="81.2969" y2="390.2344"/><line style="stroke:#181818;stroke-width:0.5;stroke-dasharray:5.0,5.0;" x1="460.5" x2="460.5" y1="81.2969" y2="390.2344"/><line style="stroke:#181818;stroke-width:0.5;stroke-dasharray:5.0,5.0;" x1="653.5" x2="653.5" y1="81.2969" y2="390.2344"/><text fill="#000000" font-family="sans-serif" font-size="14" lengthAdjust="spacing" textLength="31" x="20" y="77.9951">User</text><ellipse cx="38.5" cy="13.5" fill="#E2E2F0" rx="8" ry="8" style="stroke:#181818;stroke-width:0.5;"/><path d="M38.5,21.5 L38.5,48.5 M25.5,29.5 L51.5,29.5 M38.5,48.5 L25.5,63.5 M38.5,48.5 L51.5,63.5 " fill="none" style="stroke:#181818;stroke-width:0.5;"/><text fill="#000000" font-family="sans-serif" font-size="14" lengthAdjust="spacing" textLength="31" x="20" y="402.2295">User</text><ellipse cx="38.5" cy="414.0313" fill="#E2E2F0" rx="8" ry="8" style="stroke:#181818;stroke-width:0.5;"/><path d="M38.5,422.0313 L38.5,449.0313 M25.5,430.0313 L51.5,430.0313 M38.5,449.0313 L25.5,464.0313 M38.5,449.0313 L51.5,464.0313 " fill="none" style="stroke:#181818;stroke-width:0.5;"/><rect fill="#E2E2F0" height="36" rx="2.5" ry="2.5" style="stroke:#181818;stroke-width:0.5;" width="148" x="193.5" y="44.2969"/><ellipse cx="211.5" cy="62.2969" fill="#ADD1B2" rx="11" ry="11" style="stroke:#181818;stroke-width:1.0;"/><path d="M213.8438,57.9688 C212.9063,57.5313 212.3125,57.3906 211.4375,57.3906 C208.8125,57.3906 206.8125,59.4688 206.8125,62.1875 L206.8125,63.3125 C206.8125,65.8906 208.9219,67.7813 211.8125,67.7813 C213.0313,67.7813 214.1875,67.4844 214.9375,66.9375 C215.5156,66.5313 215.8438,66.0781 215.8438,65.6875 C215.8438,65.2344 215.4531,64.8438 214.9844,64.8438 C214.7656,64.8438 214.5625,64.9219 214.375,65.1094 C213.9219,65.5938 213.9219,65.5938 213.7344,65.6875 C213.3125,65.9531 212.625,66.0781 211.8594,66.0781 C209.8125,66.0781 208.5156,64.9844 208.5156,63.2813 L208.5156,62.1875 C208.5156,60.4063 209.7656,59.0938 211.5,59.0938 C212.0781,59.0938 212.6875,59.25 213.1563,59.5 C213.6406,59.7813 213.8125,60 213.9063,60.4063 C213.9688,60.8125 214,60.9375 214.1406,61.0625 C214.2813,61.2031 214.5156,61.3125 214.7344,61.3125 C215,61.3125 215.2656,61.1719 215.4375,60.9531 C215.5469,60.7969 215.5781,60.6094 215.5781,60.1875 L215.5781,58.7656 C215.5781,58.3281 215.5625,58.2031 215.4688,58.0469 C215.3125,57.7813 215.0313,57.6406 214.7344,57.6406 C214.4375,57.6406 214.2344,57.7344 214.0156,58.0469 L213.8438,57.9688 Z " fill="#000000"/><text fill="#000000" font-family="sans-serif" font-size="14" lengthAdjust="spacing" textLength="106" x="228.5" y="64.292">AudioRecorder</text><rect fill="#E2E2F0" height="36" rx="2.5" ry="2.5" style="stroke:#181818;stroke-width:0.5;" width="148" x="193.5" y="389.2344"/><ellipse cx="211.5" cy="407.2344" fill="#ADD1B2" rx="11" ry="11" style="stroke:#181818;stroke-width:1.0;"/><path d="M213.8438,402.9063 C212.9063,402.4688 212.3125,402.3281 211.4375,402.3281 C208.8125,402.3281 206.8125,404.4063 206.8125,407.125 L206.8125,408.25 C206.8125,410.8281 208.9219,412.7188 211.8125,412.7188 C213.0313,412.7188 214.1875,412.4219 214.9375,411.875 C215.5156,411.4688 215.8438,411.0156 215.8438,410.625 C215.8438,410.1719 215.4531,409.7813 214.9844,409.7813 C214.7656,409.7813 214.5625,409.8594 214.375,410.0469 C213.9219,410.5313 213.9219,410.5313 213.7344,410.625 C213.3125,410.8906 212.625,411.0156 211.8594,411.0156 C209.8125,411.0156 208.5156,409.9219 208.5156,408.2188 L208.5156,407.125 C208.5156,405.3438 209.7656,404.0313 211.5,404.0313 C212.0781,404.0313 212.6875,404.1875 213.1563,404.4375 C213.6406,404.7188 213.8125,404.9375 213.9063,405.3438 C213.9688,405.75 214,405.875 214.1406,406 C214.2813,406.1406 214.5156,406.25 214.7344,406.25 C215,406.25 215.2656,406.1094 215.4375,405.8906 C215.5469,405.7344 215.5781,405.5469 215.5781,405.125 L215.5781,403.7031 C215.5781,403.2656 215.5625,403.1406 215.4688,402.9844 C215.3125,402.7188 215.0313,402.5781 214.7344,402.5781 C214.4375,402.5781 214.2344,402.6719 214.0156,402.9844 L213.8438,402.9063 Z " fill="#000000"/><text fill="#000000" font-family="sans-serif" font-size="14" lengthAdjust="spacing" textLength="106" x="228.5" y="409.2295">AudioRecorder</text><rect fill="#E2E2F0" height="36" rx="2.5" ry="2.5" style="stroke:#181818;stroke-width:0.5;" width="108" x="406.5" y="44.2969"/><ellipse cx="424.5" cy="62.2969" fill="#ADD1B2" rx="11" ry="11" style="stroke:#181818;stroke-width:1.0;"/><path d="M426.8438,57.9688 C425.9063,57.5313 425.3125,57.3906 424.4375,57.3906 C421.8125,57.3906 419.8125,59.4688 419.8125,62.1875 L419.8125,63.3125 C419.8125,65.8906 421.9219,67.7813 424.8125,67.7813 C426.0313,67.7813 427.1875,67.4844 427.9375,66.9375 C428.5156,66.5313 428.8438,66.0781 428.8438,65.6875 C428.8438,65.2344 428.4531,64.8438 427.9844,64.8438 C427.7656,64.8438 427.5625,64.9219 427.375,65.1094 C426.9219,65.5938 426.9219,65.5938 426.7344,65.6875 C426.3125,65.9531 425.625,66.0781 424.8594,66.0781 C422.8125,66.0781 421.5156,64.9844 421.5156,63.2813 L421.5156,62.1875 C421.5156,60.4063 422.7656,59.0938 424.5,59.0938 C425.0781,59.0938 425.6875,59.25 426.1563,59.5 C426.6406,59.7813 426.8125,60 426.9063,60.4063 C426.9688,60.8125 427,60.9375 427.1406,61.0625 C427.2813,61.2031 427.5156,61.3125 427.7344,61.3125 C428,61.3125 428.2656,61.1719 428.4375,60.9531 C428.5469,60.7969 428.5781,60.6094 428.5781,60.1875 L428.5781,58.7656 C428.5781,58.3281 428.5625,58.2031 428.4688,58.0469 C428.3125,57.7813 428.0313,57.6406 427.7344,57.6406 C427.4375,57.6406 427.2344,57.7344 427.0156,58.0469 L426.8438,57.9688 Z " fill="#000000"/><text fill="#000000" font-family="sans-serif" font-size="14" lengthAdjust="spacing" textLength="66" x="441.5" y="64.292">Detector</text><rect fill="#E2E2F0" height="36" rx="2.5" ry="2.5" style="stroke:#181818;stroke-width:0.5;" width="108" x="406.5" y="389.2344"/><ellipse cx="424.5" cy="407.2344" fill="#ADD1B2" rx="11" ry="11" style="stroke:#181818;stroke-width:1.0;"/><path d="M426.8438,402.9063 C425.9063,402.4688 425.3125,402.3281 424.4375,402.3281 C421.8125,402.3281 419.8125,404.4063 419.8125,407.125 L419.8125,408.25 C419.8125,410.8281 421.9219,412.7188 424.8125,412.7188 C426.0313,412.7188 427.1875,412.4219 427.9375,411.875 C428.5156,411.4688 428.8438,411.0156 428.8438,410.625 C428.8438,410.1719 428.4531,409.7813 427.9844,409.7813 C427.7656,409.7813 427.5625,409.8594 427.375,410.0469 C426.9219,410.5313 426.9219,410.5313 426.7344,410.625 C426.3125,410.8906 425.625,411.0156 424.8594,411.0156 C422.8125,411.0156 421.5156,409.9219 421.5156,408.2188 L421.5156,407.125 C421.5156,405.3438 422.7656,404.0313 424.5,404.0313 C425.0781,404.0313 425.6875,404.1875 426.1563,404.4375 C426.6406,404.7188 426.8125,404.9375 426.9063,405.3438 C426.9688,405.75 427,405.875 427.1406,406 C427.2813,406.1406 427.5156,406.25 427.7344,406.25 C428,406.25 428.2656,406.1094 428.4375,405.8906 C428.5469,405.7344 428.5781,405.5469 428.5781,405.125 L428.5781,403.7031 C428.5781,403.2656 428.5625,403.1406 428.4688,402.9844 C428.3125,402.7188 428.0313,402.5781 427.7344,402.5781 C427.4375,402.5781 427.2344,402.6719 427.0156,402.9844 L426.8438,402.9063 Z " fill="#000000"/><text fill="#000000" font-family="sans-serif" font-size="14" lengthAdjust="spacing" textLength="66" x="441.5" y="409.2295">Detector</text><rect fill="#E2E2F0" height="36" rx="2.5" ry="2.5" style="stroke:#181818;stroke-width:0.5;" width="108" x="599.5" y="44.2969"/><ellipse cx="617.5" cy="62.2969" fill="#ADD1B2" rx="11" ry="11" style="stroke:#181818;stroke-width:1.0;"/><path d="M619.8438,57.9688 C618.9063,57.5313 618.3125,57.3906 617.4375,57.3906 C614.8125,57.3906 612.8125,59.4688 612.8125,62.1875 L612.8125,63.3125 C612.8125,65.8906 614.9219,67.7813 617.8125,67.7813 C619.0313,67.7813 620.1875,67.4844 620.9375,66.9375 C621.5156,66.5313 621.8438,66.0781 621.8438,65.6875 C621.8438,65.2344 621.4531,64.8438 620.9844,64.8438 C620.7656,64.8438 620.5625,64.9219 620.375,65.1094 C619.9219,65.5938 619.9219,65.5938 619.7344,65.6875 C619.3125,65.9531 618.625,66.0781 617.8594,66.0781 C615.8125,66.0781 614.5156,64.9844 614.5156,63.2813 L614.5156,62.1875 C614.5156,60.4063 615.7656,59.0938 617.5,59.0938 C618.0781,59.0938 618.6875,59.25 619.1563,59.5 C619.6406,59.7813 619.8125,60 619.9063,60.4063 C619.9688,60.8125 620,60.9375 620.1406,61.0625 C620.2813,61.2031 620.5156,61.3125 620.7344,61.3125 C621,61.3125 621.2656,61.1719 621.4375,60.9531 C621.5469,60.7969 621.5781,60.6094 621.5781,60.1875 L621.5781,58.7656 C621.5781,58.3281 621.5625,58.2031 621.4688,58.0469 C621.3125,57.7813 621.0313,57.6406 620.7344,57.6406 C620.4375,57.6406 620.2344,57.7344 620.0156,58.0469 L619.8438,57.9688 Z " fill="#000000"/><text fill="#000000" font-family="sans-serif" font-size="14" lengthAdjust="spacing" textLength="66" x="634.5" y="64.292">Loudness</text><rect fill="#E2E2F0" height="36" rx="2.5" ry="2.5" style="stroke:#181818;stroke-width:0.5;" width="108" x="599.5" y="389.2344"/><ellipse cx="617.5" cy="407.2344" fill="#ADD1B2" rx="11" ry="11" style="stroke:#181818;stroke-width:1.0;"/><path d="M619.8438,402.9063 C618.9063,402.4688 618.3125,402.3281 617.4375,402.3281 C614.8125,402.3281 612.8125,404.4063 612.8125,407.125 L612.8125,408.25 C612.8125,410.8281 614.9219,412.7188 617.8125,412.7188 C619.0313,412.7188 620.1875,412.4219 620.9375,411.875 C621.5156,411.4688 621.8438,411.0156 621.8438,410.625 C621.8438,410.1719 621.4531,409.7813 620.9844,409.7813 C620.7656,409.7813 620.5625,409.8594 620.375,410.0469 C619.9219,410.5313 619.9219,410.5313 619.7344,410.625 C619.3125,410.8906 618.625,411.0156 617.8594,411.0156 C615.8125,411.0156 614.5156,409.9219 614.5156,408.2188 L614.5156,407.125 C614.5156,405.3438 615.7656,404.0313 617.5,404.0313 C618.0781,404.0313 618.6875,404.1875 619.1563,404.4375 C619.6406,404.7188 619.8125,404.9375 619.9063,405.3438 C619.9688,405.75 620,405.875 620.1406,406 C620.2813,406.1406 620.5156,406.25 620.7344,406.25 C621,406.25 621.2656,406.1094 621.4375,405.8906 C621.5469,405.7344 621.5781,405.5469 621.5781,405.125 L621.5781,403.7031 C621.5781,403.2656 621.5625,403.1406 621.4688,402.9844 C621.3125,402.7188 621.0313,402.5781 620.7344,402.5781 C620.4375,402.5781 620.2344,402.6719 620.0156,402.9844 L619.8438,402.9063 Z " fill="#000000"/><text fill="#000000" font-family="sans-serif" font-size="14" lengthAdjust="spacing" textLength="66" x="634.5" y="409.2295">Loudness</text><rect fill="#FFFFFF" height="268.8047" style="stroke:#181818;stroke-width:1.0;" width="10" x="262.5" y="112.4297"/><rect fill="#FFFFFF" height="144.6641" style="stroke:#181818;stroke-width:1.0;" width="10" x="455.5" y="176.3047"/><rect fill="#FFFFFF" height="86.3984" style="stroke:#181818;stroke-width:1.0;" width="10" x="648.5" y="205.4375"/><polygon fill="#181818" points="250.5,108.4297,260.5,112.4297,250.5,116.4297,254.5,112.4297" style="stroke:#181818;stroke-width:1.0;"/><line style="stroke:#181818;stroke-width:1.0;" x1="38.5" x2="256.5" y1="112.4297" y2="112.4297"/><text fill="#000000" font-family="sans-serif" font-size="13" font-weight="bold" lengthAdjust="spacing" textLength="9" x="45.5" y="107.3638">1</text><text fill="#000000" font-family="sans-serif" font-size="13" lengthAdjust="spacing" textLength="139" x="58.5" y="107.3638">Start Audio Recording</text><path d="M10,127.4297 L88,127.4297 L88,134.5625 L78,144.5625 L10,144.5625 L10,127.4297 " fill="#EEEEEE" style="stroke:#000000;stroke-width:1.5;"/><rect fill="none" height="245.8047" style="stroke:#000000;stroke-width:1.5;" width="831.5" x="10" y="127.4297"/><text fill="#000000" font-family="sans-serif" font-size="13" font-weight="bold" lengthAdjust="spacing" textLength="33" x="25" y="140.4966">loop</text><text fill="#000000" font-family="sans-serif" font-size="11" font-weight="bold" lengthAdjust="spacing" textLength="111" x="103" y="139.6401">[if Audio Stream</text><text fill="#000000" font-family="sans-serif" font-size="11" font-weight="bold" lengthAdjust="spacing" textLength="53" x="103" y="152.4448">is open]</text><polygon fill="#181818" points="443.5,172.3047,453.5,176.3047,443.5,180.3047,447.5,176.3047" style="stroke:#181818;stroke-width:1.0;"/><line style="stroke:#181818;stroke-width:1.0;" x1="272.5" x2="449.5" y1="176.3047" y2="176.3047"/><text fill="#000000" font-family="sans-serif" font-size="13" font-weight="bold" lengthAdjust="spacing" textLength="9" x="279.5" y="171.2388">2</text><text fill="#000000" font-family="sans-serif" font-size="13" lengthAdjust="spacing" textLength="107" x="292.5" y="171.2388">Send Audio Data</text><polygon fill="#181818" points="636.5,201.4375,646.5,205.4375,636.5,209.4375,640.5,205.4375" style="stroke:#181818;stroke-width:1.0;"/><line style="stroke:#181818;stroke-width:1.0;" x1="465.5" x2="642.5" y1="205.4375" y2="205.4375"/><text fill="#000000" font-family="sans-serif" font-size="13" font-weight="bold" lengthAdjust="spacing" textLength="8" x="472.5" y="200.3716">3</text><text fill="#000000" font-family="sans-serif" font-size="13" lengthAdjust="spacing" textLength="107" x="484.5" y="200.3716">Send Audio Data</text><line style="stroke:#181818;stroke-width:1.0;" x1="658.5" x2="700.5" y1="249.7031" y2="249.7031"/><line style="stroke:#181818;stroke-width:1.0;" x1="700.5" x2="700.5" y1="249.7031" y2="262.7031"/><line style="stroke:#181818;stroke-width:1.0;" x1="659.5" x2="700.5" y1="262.7031" y2="262.7031"/><polygon fill="#181818" points="669.5,258.7031,659.5,262.7031,669.5,266.7031,665.5,262.7031" style="stroke:#181818;stroke-width:1.0;"/><text fill="#000000" font-family="sans-serif" font-size="13" font-weight="bold" lengthAdjust="spacing" textLength="9" x="665.5" y="237.0708">4</text><text fill="#000000" font-family="sans-serif" font-size="13" lengthAdjust="spacing" textLength="130" x="678.5" y="229.5044">Calculate RMS Value</text><text fill="#000000" font-family="sans-serif" font-size="13" lengthAdjust="spacing" textLength="151" x="678.5" y="244.6372">and set Loudness State</text><polygon fill="#181818" points="476.5,287.8359,466.5,291.8359,476.5,295.8359,472.5,291.8359" style="stroke:#181818;stroke-width:1.0;"/><line style="stroke:#181818;stroke-width:1.0;" x1="470.5" x2="652.5" y1="291.8359" y2="291.8359"/><text fill="#000000" font-family="sans-serif" font-size="13" font-weight="bold" lengthAdjust="spacing" textLength="9" x="482.5" y="286.77">5</text><text fill="#000000" font-family="sans-serif" font-size="13" lengthAdjust="spacing" textLength="146" x="495.5" y="286.77">Return Loudness State</text><polygon fill="#181818" points="283.5,316.9688,273.5,320.9688,283.5,324.9688,279.5,320.9688" style="stroke:#181818;stroke-width:1.0;"/><line style="stroke:#181818;stroke-width:1.0;" x1="277.5" x2="459.5" y1="320.9688" y2="320.9688"/><text fill="#000000" font-family="sans-serif" font-size="13" font-weight="bold" lengthAdjust="spacing" textLength="9" x="289.5" y="315.9028">6</text><text fill="#000000" font-family="sans-serif" font-size="13" lengthAdjust="spacing" textLength="146" x="302.5" y="315.9028">Return Loudness State</text><polygon fill="#181818" points="49.5,361.2344,39.5,365.2344,49.5,369.2344,45.5,365.2344" style="stroke:#181818;stroke-width:1.0;"/><line style="stroke:#181818;stroke-width:1.0;" x1="43.5" x2="261.5" y1="365.2344" y2="365.2344"/><text fill="#000000" font-family="sans-serif" font-size="13" font-weight="bold" lengthAdjust="spacing" textLength="9" x="55.5" y="352.6021">7</text><text fill="#000000" font-family="sans-serif" font-size="13" lengthAdjust="spacing" textLength="125" x="68.5" y="345.0356">Play Alarm Sound if</text><text fill="#000000" font-family="sans-serif" font-size="13" lengthAdjust="spacing" textLength="187" x="68.5" y="360.1685">Loudness State is set to True</text><!--SRC=[ZP4nJyCm48Lt_ugJM8e40nshAb9eHf1G0anPZkHQMNBio3uZyUyvDqsfsmhmU7h-xhrtsB7py1R8gn4zwqwFQ1dAs6jNK-TyJnxMQrXixcxAgdfuNDv2KMJQYfZsbDzbJoxsbaAu8bCOsTauV8YBP0NkYzp12XeMr3I4QQhjJfKTwqzaojLA6UT6qDk3lc5FEBHM1t0ZMGNoye2oRquXgyZsXvyLCaxoUT4iK_lnCRe0vdn_06RP13YMaW4sQBfeahf-Rk0TJQJMea03dVGebJ1TOdw2rCJHs_CFITyJNlTp6kZi0l-YvVLSb9oEku8NWrzG6lG3D2vABBrjRSu5kLKAomvUVPIKKkat]--></g></svg>