<?xml version="1.0" encoding="us-ascii" standalone="no"?><svg xmlns="http://www.w3.org/2000/svg" xmlns:xlink="http://www.w3.org/1999/xlink" contentStyleType="text/css" height="501px" preserveAspectRatio="none" style="width:833px;height:501px;background:#FFFFFF;" version="1.1" viewBox="0 0 833 501" width="833px" zoomAndPan="magnify"><defs/><g><rect fill="#FFFFFF" height="299.3281" style="stroke:#181818;stroke-width:1.0;" width="10" x="247.5" y="112.4297"/><rect fill="#FFFFFF" height="144.6641" style="stroke:#181818;stroke-width:1.0;" width="10" x="440.5" y="141.5625"/><rect fill="#FFFFFF" height="9" style="stroke:#181818;stroke-width:1.0;" width="10" x="440.5" y="402.7578"/><rect fill="#FFFFFF" height="86.3984" style="stroke:#181818;stroke-width:1.0;" width="10" x="633.5" y="170.6953"/><line style="stroke:#181818;stroke-width:0.5;stroke-dasharray:5.0,5.0;" x1="23" x2="23" y1="81.2969" y2="420.7578"/><line style="stroke:#181818;stroke-width:0.5;stroke-dasharray:5.0,5.0;" x1="252.5" x2="252.5" y1="81.2969" y2="420.7578"/><line style="stroke:#181818;stroke-width:0.5;stroke-dasharray:5.0,5.0;" x1="445.5" x2="445.5" y1="81.2969" y2="420.7578"/><line style="stroke:#181818;stroke-width:0.5;stroke-dasharray:5.0,5.0;" x1="638.5" x2="638.5" y1="81.2969" y2="420.7578"/><text fill="#000000" font-family="sans-serif" font-size="14" lengthAdjust="spacing" textLength="31" x="5" y="77.9951">User</text><ellipse cx="23.5" cy="13.5" fill="#E2E2F0" rx="8" ry="8" style="stroke:#181818;stroke-width:0.5;"/><path d="M23.5,21.5 L23.5,48.5 M10.5,29.5 L36.5,29.5 M23.5,48.5 L10.5,63.5 M23.5,48.5 L36.5,63.5 " fill="none" style="stroke:#181818;stroke-width:0.5;"/><text fill="#000000" font-family="sans-serif" font-size="14" lengthAdjust="spacing" textLength="31" x="5" y="432.7529">User</text><ellipse cx="23.5" cy="444.5547" fill="#E2E2F0" rx="8" ry="8" style="stroke:#181818;stroke-width:0.5;"/><path d="M23.5,452.5547 L23.5,479.5547 M10.5,460.5547 L36.5,460.5547 M23.5,479.5547 L10.5,494.5547 M23.5,479.5547 L36.5,494.5547 " fill="none" style="stroke:#181818;stroke-width:0.5;"/><rect fill="#E2E2F0" height="36" rx="2.5" ry="2.5" style="stroke:#181818;stroke-width:0.5;" width="148" x="178.5" y="44.2969"/><ellipse cx="196.5" cy="62.2969" fill="#ADD1B2" rx="11" ry="11" style="stroke:#181818;stroke-width:1.0;"/><path d="M198.8438,57.9688 C197.9063,57.5313 197.3125,57.3906 196.4375,57.3906 C193.8125,57.3906 191.8125,59.4688 191.8125,62.1875 L191.8125,63.3125 C191.8125,65.8906 193.9219,67.7813 196.8125,67.7813 C198.0313,67.7813 199.1875,67.4844 199.9375,66.9375 C200.5156,66.5313 200.8438,66.0781 200.8438,65.6875 C200.8438,65.2344 200.4531,64.8438 199.9844,64.8438 C199.7656,64.8438 199.5625,64.9219 199.375,65.1094 C198.9219,65.5938 198.9219,65.5938 198.7344,65.6875 C198.3125,65.9531 197.625,66.0781 196.8594,66.0781 C194.8125,66.0781 193.5156,64.9844 193.5156,63.2813 L193.5156,62.1875 C193.5156,60.4063 194.7656,59.0938 196.5,59.0938 C197.0781,59.0938 197.6875,59.25 198.1563,59.5 C198.6406,59.7813 198.8125,60 198.9063,60.4063 C198.9688,60.8125 199,60.9375 199.1406,61.0625 C199.2813,61.2031 199.5156,61.3125 199.7344,61.3125 C200,61.3125 200.2656,61.1719 200.4375,60.9531 C200.5469,60.7969 200.5781,60.6094 200.5781,60.1875 L200.5781,58.7656 C200.5781,58.3281 200.5625,58.2031 200.4688,58.0469 C200.3125,57.7813 200.0313,57.6406 199.7344,57.6406 C199.4375,57.6406 199.2344,57.7344 199.0156,58.0469 L198.8438,57.9688 Z " fill="#000000"/><text fill="#000000" font-family="sans-serif" font-size="14" lengthAdjust="spacing" textLength="106" x="213.5" y="64.292">AudioRecorder</text><rect fill="#E2E2F0" height="36" rx="2.5" ry="2.5" style="stroke:#181818;stroke-width:0.5;" width="148" x="178.5" y="419.7578"/><ellipse cx="196.5" cy="437.7578" fill="#ADD1B2" rx="11" ry="11" style="stroke:#181818;stroke-width:1.0;"/><path d="M198.8438,433.4297 C197.9063,432.9922 197.3125,432.8516 196.4375,432.8516 C193.8125,432.8516 191.8125,434.9297 191.8125,437.6484 L191.8125,438.7734 C191.8125,441.3516 193.9219,443.2422 196.8125,443.2422 C198.0313,443.2422 199.1875,442.9453 199.9375,442.3984 C200.5156,441.9922 200.8438,441.5391 200.8438,441.1484 C200.8438,440.6953 200.4531,440.3047 199.9844,440.3047 C199.7656,440.3047 199.5625,440.3828 199.375,440.5703 C198.9219,441.0547 198.9219,441.0547 198.7344,441.1484 C198.3125,441.4141 197.625,441.5391 196.8594,441.5391 C194.8125,441.5391 193.5156,440.4453 193.5156,438.7422 L193.5156,437.6484 C193.5156,435.8672 194.7656,434.5547 196.5,434.5547 C197.0781,434.5547 197.6875,434.7109 198.1563,434.9609 C198.6406,435.2422 198.8125,435.4609 198.9063,435.8672 C198.9688,436.2734 199,436.3984 199.1406,436.5234 C199.2813,436.6641 199.5156,436.7734 199.7344,436.7734 C200,436.7734 200.2656,436.6328 200.4375,436.4141 C200.5469,436.2578 200.5781,436.0703 200.5781,435.6484 L200.5781,434.2266 C200.5781,433.7891 200.5625,433.6641 200.4688,433.5078 C200.3125,433.2422 200.0313,433.1016 199.7344,433.1016 C199.4375,433.1016 199.2344,433.1953 199.0156,433.5078 L198.8438,433.4297 Z " fill="#000000"/><text fill="#000000" font-family="sans-serif" font-size="14" lengthAdjust="spacing" textLength="106" x="213.5" y="439.7529">AudioRecorder</text><rect fill="#E2E2F0" height="36" rx="2.5" ry="2.5" style="stroke:#181818;stroke-width:0.5;" width="108" x="391.5" y="44.2969"/><ellipse cx="409.5" cy="62.2969" fill="#ADD1B2" rx="11" ry="11" style="stroke:#181818;stroke-width:1.0;"/><path d="M411.8438,57.9688 C410.9063,57.5313 410.3125,57.3906 409.4375,57.3906 C406.8125,57.3906 404.8125,59.4688 404.8125,62.1875 L404.8125,63.3125 C404.8125,65.8906 406.9219,67.7813 409.8125,67.7813 C411.0313,67.7813 412.1875,67.4844 412.9375,66.9375 C413.5156,66.5313 413.8438,66.0781 413.8438,65.6875 C413.8438,65.2344 413.4531,64.8438 412.9844,64.8438 C412.7656,64.8438 412.5625,64.9219 412.375,65.1094 C411.9219,65.5938 411.9219,65.5938 411.7344,65.6875 C411.3125,65.9531 410.625,66.0781 409.8594,66.0781 C407.8125,66.0781 406.5156,64.9844 406.5156,63.2813 L406.5156,62.1875 C406.5156,60.4063 407.7656,59.0938 409.5,59.0938 C410.0781,59.0938 410.6875,59.25 411.1563,59.5 C411.6406,59.7813 411.8125,60 411.9063,60.4063 C411.9688,60.8125 412,60.9375 412.1406,61.0625 C412.2813,61.2031 412.5156,61.3125 412.7344,61.3125 C413,61.3125 413.2656,61.1719 413.4375,60.9531 C413.5469,60.7969 413.5781,60.6094 413.5781,60.1875 L413.5781,58.7656 C413.5781,58.3281 413.5625,58.2031 413.4688,58.0469 C413.3125,57.7813 413.0313,57.6406 412.7344,57.6406 C412.4375,57.6406 412.2344,57.7344 412.0156,58.0469 L411.8438,57.9688 Z " fill="#000000"/><text fill="#000000" font-family="sans-serif" font-size="14" lengthAdjust="spacing" textLength="66" x="426.5" y="64.292">Detector</text><rect fill="#E2E2F0" height="36" rx="2.5" ry="2.5" style="stroke:#181818;stroke-width:0.5;" width="108" x="391.5" y="419.7578"/><ellipse cx="409.5" cy="437.7578" fill="#ADD1B2" rx="11" ry="11" style="stroke:#181818;stroke-width:1.0;"/><path d="M411.8438,433.4297 C410.9063,432.9922 410.3125,432.8516 409.4375,432.8516 C406.8125,432.8516 404.8125,434.9297 404.8125,437.6484 L404.8125,438.7734 C404.8125,441.3516 406.9219,443.2422 409.8125,443.2422 C411.0313,443.2422 412.1875,442.9453 412.9375,442.3984 C413.5156,441.9922 413.8438,441.5391 413.8438,441.1484 C413.8438,440.6953 413.4531,440.3047 412.9844,440.3047 C412.7656,440.3047 412.5625,440.3828 412.375,440.5703 C411.9219,441.0547 411.9219,441.0547 411.7344,441.1484 C411.3125,441.4141 410.625,441.5391 409.8594,441.5391 C407.8125,441.5391 406.5156,440.4453 406.5156,438.7422 L406.5156,437.6484 C406.5156,435.8672 407.7656,434.5547 409.5,434.5547 C410.0781,434.5547 410.6875,434.7109 411.1563,434.9609 C411.6406,435.2422 411.8125,435.4609 411.9063,435.8672 C411.9688,436.2734 412,436.3984 412.1406,436.5234 C412.2813,436.6641 412.5156,436.7734 412.7344,436.7734 C413,436.7734 413.2656,436.6328 413.4375,436.4141 C413.5469,436.2578 413.5781,436.0703 413.5781,435.6484 L413.5781,434.2266 C413.5781,433.7891 413.5625,433.6641 413.4688,433.5078 C413.3125,433.2422 413.0313,433.1016 412.7344,433.1016 C412.4375,433.1016 412.2344,433.1953 412.0156,433.5078 L411.8438,433.4297 Z " fill="#000000"/><text fill="#000000" font-family="sans-serif" font-size="14" lengthAdjust="spacing" textLength="66" x="426.5" y="439.7529">Detector</text><rect fill="#E2E2F0" height="36" rx="2.5" ry="2.5" style="stroke:#181818;stroke-width:0.5;" width="108" x="584.5" y="44.2969"/><ellipse cx="602.5" cy="62.2969" fill="#ADD1B2" rx="11" ry="11" style="stroke:#181818;stroke-width:1.0;"/><path d="M604.8438,57.9688 C603.9063,57.5313 603.3125,57.3906 602.4375,57.3906 C599.8125,57.3906 597.8125,59.4688 597.8125,62.1875 L597.8125,63.3125 C597.8125,65.8906 599.9219,67.7813 602.8125,67.7813 C604.0313,67.7813 605.1875,67.4844 605.9375,66.9375 C606.5156,66.5313 606.8438,66.0781 606.8438,65.6875 C606.8438,65.2344 606.4531,64.8438 605.9844,64.8438 C605.7656,64.8438 605.5625,64.9219 605.375,65.1094 C604.9219,65.5938 604.9219,65.5938 604.7344,65.6875 C604.3125,65.9531 603.625,66.0781 602.8594,66.0781 C600.8125,66.0781 599.5156,64.9844 599.5156,63.2813 L599.5156,62.1875 C599.5156,60.4063 600.7656,59.0938 602.5,59.0938 C603.0781,59.0938 603.6875,59.25 604.1563,59.5 C604.6406,59.7813 604.8125,60 604.9063,60.4063 C604.9688,60.8125 605,60.9375 605.1406,61.0625 C605.2813,61.2031 605.5156,61.3125 605.7344,61.3125 C606,61.3125 606.2656,61.1719 606.4375,60.9531 C606.5469,60.7969 606.5781,60.6094 606.5781,60.1875 L606.5781,58.7656 C606.5781,58.3281 606.5625,58.2031 606.4688,58.0469 C606.3125,57.7813 606.0313,57.6406 605.7344,57.6406 C605.4375,57.6406 605.2344,57.7344 605.0156,58.0469 L604.8438,57.9688 Z " fill="#000000"/><text fill="#000000" font-family="sans-serif" font-size="14" lengthAdjust="spacing" textLength="66" x="619.5" y="64.292">Loudness</text><rect fill="#E2E2F0" height="36" rx="2.5" ry="2.5" style="stroke:#181818;stroke-width:0.5;" width="108" x="584.5" y="419.7578"/><ellipse cx="602.5" cy="437.7578" fill="#ADD1B2" rx="11" ry="11" style="stroke:#181818;stroke-width:1.0;"/><path d="M604.8438,433.4297 C603.9063,432.9922 603.3125,432.8516 602.4375,432.8516 C599.8125,432.8516 597.8125,434.9297 597.8125,437.6484 L597.8125,438.7734 C597.8125,441.3516 599.9219,443.2422 602.8125,443.2422 C604.0313,443.2422 605.1875,442.9453 605.9375,442.3984 C606.5156,441.9922 606.8438,441.5391 606.8438,441.1484 C606.8438,440.6953 606.4531,440.3047 605.9844,440.3047 C605.7656,440.3047 605.5625,440.3828 605.375,440.5703 C604.9219,441.0547 604.9219,441.0547 604.7344,441.1484 C604.3125,441.4141 603.625,441.5391 602.8594,441.5391 C600.8125,441.5391 599.5156,440.4453 599.5156,438.7422 L599.5156,437.6484 C599.5156,435.8672 600.7656,434.5547 602.5,434.5547 C603.0781,434.5547 603.6875,434.7109 604.1563,434.9609 C604.6406,435.2422 604.8125,435.4609 604.9063,435.8672 C604.9688,436.2734 605,436.3984 605.1406,436.5234 C605.2813,436.6641 605.5156,436.7734 605.7344,436.7734 C606,436.7734 606.2656,436.6328 606.4375,436.4141 C606.5469,436.2578 606.5781,436.0703 606.5781,435.6484 L606.5781,434.2266 C606.5781,433.7891 606.5625,433.6641 606.4688,433.5078 C606.3125,433.2422 606.0313,433.1016 605.7344,433.1016 C605.4375,433.1016 605.2344,433.1953 605.0156,433.5078 L604.8438,433.4297 Z " fill="#000000"/><text fill="#000000" font-family="sans-serif" font-size="14" lengthAdjust="spacing" textLength="66" x="619.5" y="439.7529">Loudness</text><rect fill="#FFFFFF" height="299.3281" style="stroke:#181818;stroke-width:1.0;" width="10" x="247.5" y="112.4297"/><rect fill="#FFFFFF" height="144.6641" style="stroke:#181818;stroke-width:1.0;" width="10" x="440.5" y="141.5625"/><rect fill="#FFFFFF" height="9" style="stroke:#181818;stroke-width:1.0;" width="10" x="440.5" y="402.7578"/><rect fill="#FFFFFF" height="86.3984" style="stroke:#181818;stroke-width:1.0;" width="10" x="633.5" y="170.6953"/><polygon fill="#181818" points="235.5,108.4297,245.5,112.4297,235.5,116.4297,239.5,112.4297" style="stroke:#181818;stroke-width:1.0;"/><line style="stroke:#181818;stroke-width:1.0;" x1="23.5" x2="241.5" y1="112.4297" y2="112.4297"/><text fill="#000000" font-family="sans-serif" font-size="13" font-weight="bold" lengthAdjust="spacing" textLength="9" x="30.5" y="107.3638">1</text><text fill="#000000" font-family="sans-serif" font-size="13" lengthAdjust="spacing" textLength="139" x="43.5" y="107.3638">Start Audio Recording</text><polygon fill="#181818" points="428.5,137.5625,438.5,141.5625,428.5,145.5625,432.5,141.5625" style="stroke:#181818;stroke-width:1.0;"/><line style="stroke:#181818;stroke-width:1.0;" x1="257.5" x2="434.5" y1="141.5625" y2="141.5625"/><text fill="#000000" font-family="sans-serif" font-size="13" font-weight="bold" lengthAdjust="spacing" textLength="9" x="264.5" y="136.4966">2</text><text fill="#000000" font-family="sans-serif" font-size="13" lengthAdjust="spacing" textLength="107" x="277.5" y="136.4966">Send Audio Data</text><polygon fill="#181818" points="621.5,166.6953,631.5,170.6953,621.5,174.6953,625.5,170.6953" style="stroke:#181818;stroke-width:1.0;"/><line style="stroke:#181818;stroke-width:1.0;" x1="450.5" x2="627.5" y1="170.6953" y2="170.6953"/><text fill="#000000" font-family="sans-serif" font-size="13" font-weight="bold" lengthAdjust="spacing" textLength="8" x="457.5" y="165.6294">3</text><text fill="#000000" font-family="sans-serif" font-size="13" lengthAdjust="spacing" textLength="107" x="469.5" y="165.6294">Send Audio Data</text><line style="stroke:#181818;stroke-width:1.0;" x1="643.5" x2="685.5" y1="214.9609" y2="214.9609"/><line style="stroke:#181818;stroke-width:1.0;" x1="685.5" x2="685.5" y1="214.9609" y2="227.9609"/><line style="stroke:#181818;stroke-width:1.0;" x1="644.5" x2="685.5" y1="227.9609" y2="227.9609"/><polygon fill="#181818" points="654.5,223.9609,644.5,227.9609,654.5,231.9609,650.5,227.9609" style="stroke:#181818;stroke-width:1.0;"/><text fill="#000000" font-family="sans-serif" font-size="13" font-weight="bold" lengthAdjust="spacing" textLength="9" x="650.5" y="202.3286">4</text><text fill="#000000" font-family="sans-serif" font-size="13" lengthAdjust="spacing" textLength="130" x="663.5" y="194.7622">Calculate RMS Value</text><text fill="#000000" font-family="sans-serif" font-size="13" lengthAdjust="spacing" textLength="151" x="663.5" y="209.895">and set Loudness State</text><polygon fill="#181818" points="461.5,253.0938,451.5,257.0938,461.5,261.0938,457.5,257.0938" style="stroke:#181818;stroke-width:1.0;"/><line style="stroke:#181818;stroke-width:1.0;" x1="455.5" x2="637.5" y1="257.0938" y2="257.0938"/><text fill="#000000" font-family="sans-serif" font-size="13" font-weight="bold" lengthAdjust="spacing" textLength="9" x="467.5" y="252.0278">5</text><text fill="#000000" font-family="sans-serif" font-size="13" lengthAdjust="spacing" textLength="146" x="480.5" y="252.0278">Return Loudness State</text><polygon fill="#181818" points="268.5,282.2266,258.5,286.2266,268.5,290.2266,264.5,286.2266" style="stroke:#181818;stroke-width:1.0;"/><line style="stroke:#181818;stroke-width:1.0;" x1="262.5" x2="444.5" y1="286.2266" y2="286.2266"/><text fill="#000000" font-family="sans-serif" font-size="13" font-weight="bold" lengthAdjust="spacing" textLength="9" x="274.5" y="281.1606">6</text><text fill="#000000" font-family="sans-serif" font-size="13" lengthAdjust="spacing" textLength="146" x="287.5" y="281.1606">Return Loudness State</text><polygon fill="#181818" points="34.5,326.4922,24.5,330.4922,34.5,334.4922,30.5,330.4922" style="stroke:#181818;stroke-width:1.0;"/><line style="stroke:#181818;stroke-width:1.0;" x1="28.5" x2="246.5" y1="330.4922" y2="330.4922"/><text fill="#000000" font-family="sans-serif" font-size="13" font-weight="bold" lengthAdjust="spacing" textLength="9" x="40.5" y="317.8599">7</text><text fill="#000000" font-family="sans-serif" font-size="13" lengthAdjust="spacing" textLength="125" x="53.5" y="310.2935">Play Alarm Sound if</text><text fill="#000000" font-family="sans-serif" font-size="13" lengthAdjust="spacing" textLength="187" x="53.5" y="325.4263">Loudness State is set to True</text><rect fill="#EEEEEE" height="3" style="stroke:#EEEEEE;stroke-width:1.0;" width="826.5" x="0" y="359.0586"/><line style="stroke:#000000;stroke-width:1.0;" x1="0" x2="826.5" y1="359.0586" y2="359.0586"/><line style="stroke:#000000;stroke-width:1.0;" x1="0" x2="826.5" y1="362.0586" y2="362.0586"/><rect fill="#EEEEEE" height="23.1328" style="stroke:#000000;stroke-width:2.0;" width="73" x="376.75" y="348.4922"/><text fill="#000000" font-family="sans-serif" font-size="13" font-weight="bold" lengthAdjust="spacing" textLength="54" x="382.75" y="364.5591">Repeat</text><polygon fill="#181818" points="428.5,398.7578,438.5,402.7578,428.5,406.7578,432.5,402.7578" style="stroke:#181818;stroke-width:1.0;"/><line style="stroke:#181818;stroke-width:1.0;" x1="257.5" x2="434.5" y1="402.7578" y2="402.7578"/><text fill="#000000" font-family="sans-serif" font-size="13" font-weight="bold" lengthAdjust="spacing" textLength="9" x="264.5" y="397.6919">8</text><text fill="#000000" font-family="sans-serif" font-size="13" lengthAdjust="spacing" textLength="107" x="277.5" y="397.6919">Send Audio Data</text><!--SRC=[fP6nJiCm48PtFyL9B23106FLH0hD219AWAdBOH_8acj7zXc9j-VIagPkKHbOhVy-V_yTQWuHNX95DM1ag-s0dg79neQET8Y68YoNSBcwlcZQzlR-xWhgkiYsnBIbd8yzX6myfVHBJ67cuFFcJIn65RYfIuC5z2oetIFiNgt_K8rc-ubCPLgfKbzeawE0o9iVJekCCsAAABKl98EJzPd1AQBKlc8nk4AdinkJtMCFh-WohJqABD71LgGWKucOfJlY7Frns12UEXpA7-tmJygyWfC5ZcTPm9F3BsWSnWtq8Ki5-xxs9GzisXRZ0CynIwEgaey7GeQg-jzblW40]--></g></svg>