<?xml version="1.0" encoding="us-ascii" standalone="no"?><svg xmlns="http://www.w3.org/2000/svg" xmlns:xlink="http://www.w3.org/1999/xlink" contentStyleType="text/css" height="521px" preserveAspectRatio="none" style="width:745px;height:521px;background:#FFFFFF;" version="1.1" viewBox="0 0 745 521" width="745px" zoomAndPan="magnify"><defs/><g><!--cluster obc--><g id="cluster_obc"><polygon fill="none" points="16,16,26,6,728,6,728,494,718,504,16,504,16,16" style="stroke:#181818;stroke-width:1.0;"/><line style="stroke:#181818;stroke-width:1.0;" x1="718" x2="728" y1="16" y2="6"/><line style="stroke:#181818;stroke-width:1.0;" x1="16" x2="718" y1="16" y2="16"/><line style="stroke:#181818;stroke-width:1.0;" x1="718" x2="718" y1="16" y2="504"/><text fill="#000000" font-family="sans-serif" font-size="14" font-weight="bold" lengthAdjust="spacing" textLength="141" x="297.5" y="31.9951">On-Board System</text></g><!--entity Microphone--><g id="elem_Microphone"><polygon fill="#F1F1F1" points="472.5,315,482.5,305,597.5,305,597.5,341.2969,587.5,351.2969,472.5,351.2969,472.5,315" style="stroke:#181818;stroke-width:0.5;"/><line style="stroke:#181818;stroke-width:0.5;" x1="587.5" x2="597.5" y1="315" y2="305"/><line style="stroke:#181818;stroke-width:0.5;" x1="472.5" x2="587.5" y1="315" y2="315"/><line style="stroke:#181818;stroke-width:0.5;" x1="587.5" x2="587.5" y1="315" y2="351.2969"/><text fill="#000000" font-family="sans-serif" font-size="14" lengthAdjust="spacing" textLength="85" x="487.5" y="337.9951">Microphone</text></g><!--entity Camera--><g id="elem_Camera"><polygon fill="#F1F1F1" points="200.5,315,210.5,305,295.5,305,295.5,341.2969,285.5,351.2969,200.5,351.2969,200.5,315" style="stroke:#181818;stroke-width:0.5;"/><line style="stroke:#181818;stroke-width:0.5;" x1="285.5" x2="295.5" y1="315" y2="305"/><line style="stroke:#181818;stroke-width:0.5;" x1="200.5" x2="285.5" y1="315" y2="315"/><line style="stroke:#181818;stroke-width:0.5;" x1="285.5" x2="285.5" y1="315" y2="351.2969"/><text fill="#000000" font-family="sans-serif" font-size="14" lengthAdjust="spacing" textLength="55" x="215.5" y="337.9951">Camera</text></g><!--entity Recorder--><g id="elem_Recorder"><rect fill="#F1F1F1" height="46.2969" rx="2.5" ry="2.5" style="stroke:#181818;stroke-width:0.5;" width="106" x="472" y="46"/><rect fill="#F1F1F1" height="10" style="stroke:#181818;stroke-width:0.5;" width="15" x="558" y="51"/><rect fill="#F1F1F1" height="2" style="stroke:#181818;stroke-width:0.5;" width="4" x="556" y="53"/><rect fill="#F1F1F1" height="2" style="stroke:#181818;stroke-width:0.5;" width="4" x="556" y="57"/><text fill="#000000" font-family="sans-serif" font-size="14" lengthAdjust="spacing" textLength="66" x="487" y="78.9951">Recorder</text></g><!--entity VideoRecorder--><g id="elem_VideoRecorder"><rect fill="#F1F1F1" height="46.2969" rx="2.5" ry="2.5" style="stroke:#181818;stroke-width:0.5;" width="147" x="269.5" y="153"/><rect fill="#F1F1F1" height="10" style="stroke:#181818;stroke-width:0.5;" width="15" x="396.5" y="158"/><rect fill="#F1F1F1" height="2" style="stroke:#181818;stroke-width:0.5;" width="4" x="394.5" y="160"/><rect fill="#F1F1F1" height="2" style="stroke:#181818;stroke-width:0.5;" width="4" x="394.5" y="164"/><text fill="#000000" font-family="sans-serif" font-size="14" lengthAdjust="spacing" textLength="107" x="284.5" y="185.9951">VideoRecorder</text></g><!--entity AudioRecorder--><g id="elem_AudioRecorder"><rect fill="#F1F1F1" height="46.2969" rx="2.5" ry="2.5" style="stroke:#181818;stroke-width:0.5;" width="146" x="452" y="153"/><rect fill="#F1F1F1" height="10" style="stroke:#181818;stroke-width:0.5;" width="15" x="578" y="158"/><rect fill="#F1F1F1" height="2" style="stroke:#181818;stroke-width:0.5;" width="4" x="576" y="160"/><rect fill="#F1F1F1" height="2" style="stroke:#181818;stroke-width:0.5;" width="4" x="576" y="164"/><text fill="#000000" font-family="sans-serif" font-size="14" lengthAdjust="spacing" textLength="106" x="467" y="185.9951">AudioRecorder</text></g><!--entity Detector--><g id="elem_Detector"><rect fill="#F1F1F1" height="46.2969" rx="2.5" ry="2.5" style="stroke:#181818;stroke-width:0.5;" width="106" x="331" y="305"/><rect fill="#F1F1F1" height="10" style="stroke:#181818;stroke-width:0.5;" width="15" x="417" y="310"/><rect fill="#F1F1F1" height="2" style="stroke:#181818;stroke-width:0.5;" width="4" x="415" y="312"/><rect fill="#F1F1F1" height="2" style="stroke:#181818;stroke-width:0.5;" width="4" x="415" y="316"/><text fill="#000000" font-family="sans-serif" font-size="14" lengthAdjust="spacing" textLength="66" x="346" y="337.9951">Detector</text></g><!--entity Distracted--><g id="elem_Distracted"><rect fill="#F1F1F1" height="46.2969" rx="2.5" ry="2.5" style="stroke:#181818;stroke-width:0.5;" width="116" x="342" y="442"/><rect fill="#F1F1F1" height="10" style="stroke:#181818;stroke-width:0.5;" width="15" x="438" y="447"/><rect fill="#F1F1F1" height="2" style="stroke:#181818;stroke-width:0.5;" width="4" x="436" y="449"/><rect fill="#F1F1F1" height="2" style="stroke:#181818;stroke-width:0.5;" width="4" x="436" y="453"/><text fill="#000000" font-family="sans-serif" font-size="14" lengthAdjust="spacing" textLength="76" x="357" y="474.9951">Distracted</text></g><!--entity Drowsiness--><g id="elem_Drowsiness"><rect fill="#F1F1F1" height="46.2969" rx="2.5" ry="2.5" style="stroke:#181818;stroke-width:0.5;" width="120" x="493" y="442"/><rect fill="#F1F1F1" height="10" style="stroke:#181818;stroke-width:0.5;" width="15" x="593" y="447"/><rect fill="#F1F1F1" height="2" style="stroke:#181818;stroke-width:0.5;" width="4" x="591" y="449"/><rect fill="#F1F1F1" height="2" style="stroke:#181818;stroke-width:0.5;" width="4" x="591" y="453"/><text fill="#000000" font-family="sans-serif" font-size="14" lengthAdjust="spacing" textLength="80" x="508" y="474.9951">Drowsiness</text></g><!--entity LookingAway--><g id="elem_LookingAway"><rect fill="#F1F1F1" height="46.2969" rx="2.5" ry="2.5" style="stroke:#181818;stroke-width:0.5;" width="134" x="32" y="442"/><rect fill="#F1F1F1" height="10" style="stroke:#181818;stroke-width:0.5;" width="15" x="146" y="447"/><rect fill="#F1F1F1" height="2" style="stroke:#181818;stroke-width:0.5;" width="4" x="144" y="449"/><rect fill="#F1F1F1" height="2" style="stroke:#181818;stroke-width:0.5;" width="4" x="144" y="453"/><text fill="#000000" font-family="sans-serif" font-size="14" lengthAdjust="spacing" textLength="94" x="47" y="474.9951">LookingAway</text></g><!--entity Loudness--><g id="elem_Loudness"><rect fill="#F1F1F1" height="46.2969" rx="2.5" ry="2.5" style="stroke:#181818;stroke-width:0.5;" width="106" x="201" y="442"/><rect fill="#F1F1F1" height="10" style="stroke:#181818;stroke-width:0.5;" width="15" x="287" y="447"/><rect fill="#F1F1F1" height="2" style="stroke:#181818;stroke-width:0.5;" width="4" x="285" y="449"/><rect fill="#F1F1F1" height="2" style="stroke:#181818;stroke-width:0.5;" width="4" x="285" y="453"/><text fill="#000000" font-family="sans-serif" font-size="14" lengthAdjust="spacing" textLength="66" x="216" y="474.9951">Loudness</text></g><!--entity GUI--><g id="elem_GUI"><rect fill="#F1F1F1" height="46.2969" rx="2.5" ry="2.5" style="stroke:#181818;stroke-width:0.5;" width="64" x="648" y="442"/><rect fill="#F1F1F1" height="10" style="stroke:#181818;stroke-width:0.5;" width="15" x="692" y="447"/><rect fill="#F1F1F1" height="2" style="stroke:#181818;stroke-width:0.5;" width="4" x="690" y="449"/><rect fill="#F1F1F1" height="2" style="stroke:#181818;stroke-width:0.5;" width="4" x="690" y="453"/><text fill="#000000" font-family="sans-serif" font-size="14" lengthAdjust="spacing" textLength="24" x="663" y="474.9951">GUI</text></g><!--link VideoRecorder to Camera--><g id="link_VideoRecorder_Camera"><path d="M314.312,199.202 C304.683,207.725 294.498,218.054 287,229 C270.857,252.567 259.906,283.803 253.814,304.61 " fill="none" id="VideoRecorder-Camera" style="stroke:#181818;stroke-width:1.0;"/><text fill="#000000" font-family="sans-serif" font-size="13" lengthAdjust="spacing" textLength="60" x="288" y="256.5669">get video</text></g><!--link AudioRecorder to Microphone--><g id="link_AudioRecorder_Microphone"><path d="M525.438,199.213 C525.941,219.094 526.974,249.026 529,275 C529.763,284.785 530.95,295.569 532.068,304.767 " fill="none" id="AudioRecorder-Microphone" style="stroke:#181818;stroke-width:1.0;"/><text fill="#000000" font-family="sans-serif" font-size="13" lengthAdjust="spacing" textLength="60" x="530" y="256.5669">get audio</text></g><!--link VideoRecorder to Detector--><g id="link_VideoRecorder_Detector"><path d="M349.05,199.133 C356.801,227.493 370.162,276.372 377.925,304.776 " fill="none" id="VideoRecorder-Detector" style="stroke:#181818;stroke-width:1.0;"/></g><!--link AudioRecorder to Detector--><g id="link_AudioRecorder_Detector"><path d="M504.195,199.133 C477.537,227.493 431.59,276.372 404.89,304.776 " fill="none" id="AudioRecorder-Detector" style="stroke:#181818;stroke-width:1.0;"/></g><!--link Detector to Distracted--><g id="link_Detector_Distracted"><path d="M386.642,351.293 C389.607,376.306 394.388,416.648 397.354,441.6744 " fill="none" id="Detector-Distracted" style="stroke:#181818;stroke-width:1.0;"/></g><!--link Detector to Drowsiness--><g id="link_Detector_Drowsiness"><path d="M396.391,351.065 C407.494,369.269 425.206,394.81 446,412 C460.486,423.9753 478.194,434.0075 495.002,441.9649 " fill="none" id="Detector-Drowsiness" style="stroke:#181818;stroke-width:1.0;"/></g><!--link Detector to LookingAway--><g id="link_Detector_LookingAway"><path d="M337.257,351.141 C284.355,376.2 198.681,416.783 145.768,441.8466 " fill="none" id="Detector-LookingAway" style="stroke:#181818;stroke-width:1.0;"/></g><!--link Detector to Loudness--><g id="link_Detector_Loudness"><path d="M362.533,351.293 C338.446,376.306 299.599,416.648 275.499,441.6744 " fill="none" id="Detector-Loudness" style="stroke:#181818;stroke-width:1.0;"/></g><!--link Detector to GUI--><g id="link_Detector_GUI"><path d="M408.886,351.313 C431.22,370.183 465.679,396.546 500,412 C554.463,436.524 574.37,423.0091 631,442 C636.57,443.8679 642.366,446.1488 647.939,448.5263 " fill="none" id="Detector-GUI" style="stroke:#181818;stroke-width:1.0;"/><text fill="#000000" font-family="sans-serif" font-size="13" lengthAdjust="spacing" textLength="109" x="508" y="401.0669">send alarm state</text><path d="M503.5444,421.3508 A10,10 0 0 0 509.3508 408.4556" fill="none" style="stroke:#181818;stroke-width:1.5;"/><ellipse cx="500" cy="412" fill="#FFFFFF" rx="6" ry="6" style="stroke:#181818;stroke-width:1.5;"/></g><!--link Recorder to VideoRecorder--><g id="link_Recorder_VideoRecorder"><path d="M486.847,92.011 C457.34,109.034 416.49,132.602 385.859,150.274 " fill="none" id="Recorder-to-VideoRecorder" style="stroke:#181818;stroke-width:1.0;"/><polygon fill="#181818" points="381.416,152.837,391.2106,151.8048,385.7471,150.3386,387.2132,144.8751,381.416,152.837" style="stroke:#181818;stroke-width:1.0;"/></g><!--link Recorder to AudioRecorder--><g id="link_Recorder_AudioRecorder"><path d="M525,92.011 C525,108.143 525,130.151 525,147.45 " fill="none" id="Recorder-to-AudioRecorder" style="stroke:#181818;stroke-width:1.0;"/><polygon fill="#181818" points="525,152.656,529,143.656,525,147.656,521,143.656,525,152.656" style="stroke:#181818;stroke-width:1.0;"/></g><!--link Recorder to GUI--><g id="link_Recorder_GUI"><path d="M558.546,92.286 C578.287,107.165 602.045,128.465 616,153 C671.189,250.03 679.112,388.15 680.014,441.6421 " fill="none" id="Recorder-GUI" style="stroke:#181818;stroke-width:1.0;"/><text fill="#000000" font-family="sans-serif" font-size="13" lengthAdjust="spacing" textLength="62" x="668" y="249.0669">start/stop</text><text fill="#000000" font-family="sans-serif" font-size="13" lengthAdjust="spacing" textLength="60" x="669" y="264.1997">recording</text><path d="M674.162,305.4997 A10,10 0 0 0 660.2166 307.8504" fill="none" style="stroke:#181818;stroke-width:1.5;"/><ellipse cx="668.3646" cy="313.6478" fill="#FFFFFF" rx="6" ry="6" style="stroke:#181818;stroke-width:1.5;"/></g><!--SRC=[TP51ImCn48Nl-HL3J_Mms7CFGbKGGIaeUl8Iaw66kfbbChKKyR-xILkpoQwvvNqlavatdYp2REsRQz9iuVaG1DiPw03qRk1RWOB- -EXwT8Qf-o2FMRlHBR9MIJ3KTZtq0azeY2qorE3LMQGphTXgPrrc2TRFRr7G2F58Tq5O6q5R0wPzS1v3gC03qTRvpMgl3sg4TZQzgFIxb_kZL0m1JNCA0PQmGO6lI9El62ZwSe0dhuwEVuh-pJfPgapYV4kapA90PHf3DCnZp8Q1PBAuQ68e_Im1lGNzgRc585hmw1pqUpMn-G9FB3_p-I9zj8p5MIw3KFVcEU6-PwL-VW40]--></g></svg>