<?xml version="1.0" encoding="us-ascii" standalone="no"?><svg xmlns="http://www.w3.org/2000/svg" xmlns:xlink="http://www.w3.org/1999/xlink" contentStyleType="text/css" height="1453px" preserveAspectRatio="none" style="width:1810px;height:1453px;background:#FFFFFF;" version="1.1" viewBox="0 0 1810 1453" width="1810px" zoomAndPan="magnify"><defs/><g><ellipse cx="899.5" cy="20" fill="#222222" rx="10" ry="10" style="stroke:#222222;stroke-width:1.0;"/><rect fill="none" height="1360.7534" style="stroke:#000000;stroke-width:1.5;" width="1788.75" x="11" y="40"/><path d="M142,40 L142,49.2969 L132,59.2969 L11,59.2969 " fill="none" style="stroke:#000000;stroke-width:1.5;"/><text fill="#000000" font-family="sans-serif" font-size="14" font-weight="bold" lengthAdjust="spacing" textLength="51" x="14" y="53.9951">object</text><text fill="#000000" font-family="sans-serif" font-size="14" lengthAdjust="spacing" textLength="66" x="69" y="53.9951">Recorder</text><path d="M976,69.2969 L976,92.9961 L956,96.9961 L976,100.9961 L976,124.6953 A0,0 0 0 0 976,124.6953 L1123,124.6953 A0,0 0 0 0 1123,124.6953 L1123,79.2969 L1113,69.2969 L976,69.2969 A0,0 0 0 0 976,69.2969 " fill="#FEFFDD" style="stroke:#181818;stroke-width:0.5;"/><path d="M1113,69.2969 L1113,79.2969 L1123,79.2969 L1113,69.2969 " fill="#FEFFDD" style="stroke:#181818;stroke-width:0.5;"/><text fill="#000000" font-family="sans-serif" font-size="13" lengthAdjust="spacing" textLength="112" x="982" y="86.3638">Start two threads</text><text fill="#000000" font-family="sans-serif" font-size="13" lengthAdjust="spacing" textLength="126" x="982" y="101.4966">for Video and Audio</text><text fill="#000000" font-family="sans-serif" font-size="13" lengthAdjust="spacing" textLength="64" x="982" y="116.6294">Recording</text><rect fill="#F1F1F1" height="33.9688" rx="12.5" ry="12.5" style="stroke:#181818;stroke-width:0.5;" width="113" x="843" y="80.0117"/><text fill="#000000" font-family="sans-serif" font-size="12" lengthAdjust="spacing" textLength="93" x="853" y="101.1504">Start Recording</text><rect fill="#555555" height="6" rx="2.5" ry="2.5" style="stroke:#555555;stroke-width:1.0;" width="1768.75" x="21" y="144.6953"/><rect fill="#FFFFE0" height="1202.0581" style="stroke:#000000;stroke-width:1.5;" width="1283.75" x="33" y="160.6953"/><path d="M205,160.6953 L205,169.9922 L195,179.9922 L33,179.9922 " fill="none" style="stroke:#000000;stroke-width:1.5;"/><text fill="#000000" font-family="sans-serif" font-size="14" font-weight="bold" lengthAdjust="spacing" textLength="51" x="36" y="174.6904">object</text><text fill="#000000" font-family="sans-serif" font-size="14" lengthAdjust="spacing" textLength="107" x="91" y="174.6904">VideoRecorder</text><rect fill="#F1F1F1" height="33.9688" rx="12.5" ry="12.5" style="stroke:#181818;stroke-width:0.5;" width="131" x="601.25" y="296.7026"/><text fill="#000000" font-family="sans-serif" font-size="12" lengthAdjust="spacing" textLength="111" x="611.25" y="317.8413">Read Video Frame</text><rect fill="#F1F1F1" height="33.9688" rx="12.5" ry="12.5" style="stroke:#181818;stroke-width:0.5;" width="176" x="578.75" y="365.6714"/><text fill="#000000" font-family="sans-serif" font-size="12" lengthAdjust="spacing" textLength="156" x="588.75" y="386.8101">Compute Face Landmarks</text><polygon fill="#F1F1F1" points="666.75,252.7026,678.75,264.7026,666.75,276.7026,654.75,264.7026,666.75,252.7026" style="stroke:#181818;stroke-width:0.5;"/><polygon fill="#F1F1F1" points="631.25,441.1401,702.25,441.1401,714.25,453.1401,702.25,465.1401,631.25,465.1401,619.25,453.1401,631.25,441.1401" style="stroke:#181818;stroke-width:0.5;"/><text fill="#000000" font-family="sans-serif" font-size="11" lengthAdjust="spacing" textLength="71" x="631.25" y="456.9482">Face Found?</text><text fill="#000000" font-family="sans-serif" font-size="11" lengthAdjust="spacing" textLength="14" x="714.25" y="450.5459">no</text><rect fill="none" height="828.6133" style="stroke:#000000;stroke-width:1.5;" width="1227.75" x="61" y="500.1401"/><path d="M192,500.1401 L192,509.437 L182,519.437 L61,519.437 " fill="none" style="stroke:#000000;stroke-width:1.5;"/><text fill="#000000" font-family="sans-serif" font-size="14" font-weight="bold" lengthAdjust="spacing" textLength="51" x="64" y="514.1353">object</text><text fill="#000000" font-family="sans-serif" font-size="14" lengthAdjust="spacing" textLength="66" x="119" y="514.1353">Detector</text><rect fill="#F1F1F1" height="33.9688" rx="12.5" ry="12.5" style="stroke:#181818;stroke-width:0.5;" width="73" x="630.25" y="536.437"/><text fill="#000000" font-family="sans-serif" font-size="12" lengthAdjust="spacing" textLength="53" x="640.25" y="557.5757">Detector</text><line style="stroke:#181818;stroke-width:1.5;" x1="271.25" x2="1078.75" y1="605.4058" y2="605.4058"/><rect fill="none" height="446.0078" style="stroke:#000000;stroke-width:1.5;" width="375" x="73" y="626.9058"/><path d="M218,626.9058 L218,636.2026 L208,646.2026 L73,646.2026 " fill="none" style="stroke:#000000;stroke-width:1.5;"/><text fill="#000000" font-family="sans-serif" font-size="14" font-weight="bold" lengthAdjust="spacing" textLength="51" x="76" y="640.9009">object</text><text fill="#000000" font-family="sans-serif" font-size="14" lengthAdjust="spacing" textLength="80" x="131" y="640.9009">Distraction</text><rect fill="#F1F1F1" height="33.9688" rx="12.5" ry="12.5" style="stroke:#181818;stroke-width:0.5;" width="128" x="207.25" y="663.2026"/><text fill="#000000" font-family="sans-serif" font-size="12" lengthAdjust="spacing" textLength="108" x="217.25" y="684.3413">Detect Distraction</text><rect fill="#F1F1F1" height="33.9688" rx="12.5" ry="12.5" style="stroke:#181818;stroke-width:0.5;" width="237" x="152.75" y="720.2026"/><text fill="#000000" font-family="sans-serif" font-size="12" lengthAdjust="spacing" textLength="217" x="162.75" y="741.3413">Apply LitEfficientNet Model to Frame</text><polygon fill="#F1F1F1" points="209.25,789.1714,333.25,789.1714,345.25,801.1714,333.25,813.1714,209.25,813.1714,197.25,801.1714,209.25,789.1714" style="stroke:#181818;stroke-width:0.5;"/><text fill="#000000" font-family="sans-serif" font-size="11" lengthAdjust="spacing" textLength="124" x="209.25" y="804.9795">Distraction Detected?</text><text fill="#000000" font-family="sans-serif" font-size="11" lengthAdjust="spacing" textLength="21" x="176.25" y="798.5771">yes</text><text fill="#000000" font-family="sans-serif" font-size="11" lengthAdjust="spacing" textLength="14" x="345.25" y="798.5771">no</text><rect fill="#F1F1F1" height="33.9688" rx="12.5" ry="12.5" style="stroke:#181818;stroke-width:0.5;" width="164" x="93.5" y="823.1714"/><text fill="#000000" font-family="sans-serif" font-size="12" lengthAdjust="spacing" textLength="144" x="103.5" y="844.3101">Increment Time Counter</text><rect fill="#F1F1F1" height="33.9688" rx="12.5" ry="12.5" style="stroke:#181818;stroke-width:0.5;" width="78" x="136.5" y="940.5425"/><text fill="#000000" font-family="sans-serif" font-size="12" lengthAdjust="spacing" textLength="58" x="146.5" y="961.6812">Set Alarm</text><polygon fill="#F1F1F1" points="97,892.1401,254,892.1401,266,904.1401,254,916.1401,97,916.1401,85,904.1401,97,892.1401" style="stroke:#181818;stroke-width:0.5;"/><text fill="#000000" font-family="sans-serif" font-size="11" lengthAdjust="spacing" textLength="21" x="179.5" y="926.3506">yes</text><text fill="#000000" font-family="sans-serif" font-size="11" lengthAdjust="spacing" textLength="157" x="97" y="907.9482">Time Counter &gt; Threshold?</text><text fill="#000000" font-family="sans-serif" font-size="11" lengthAdjust="spacing" textLength="14" x="266" y="901.5459">no</text><polygon fill="#F1F1F1" points="175.5,998.9136,187.5,1010.9136,175.5,1022.9136,163.5,1010.9136,175.5,998.9136" style="stroke:#181818;stroke-width:0.5;"/><rect fill="#F1F1F1" height="33.9688" rx="12.5" ry="12.5" style="stroke:#181818;stroke-width:0.5;" width="138" x="298" y="823.1714"/><text fill="#000000" font-family="sans-serif" font-size="12" lengthAdjust="spacing" textLength="118" x="308" y="844.3101">Reset Time Counter</text><polygon fill="#F1F1F1" points="271.25,1028.9136,283.25,1040.9136,271.25,1052.9136,259.25,1040.9136,271.25,1028.9136" style="stroke:#181818;stroke-width:0.5;"/><rect fill="none" height="446.0078" style="stroke:#000000;stroke-width:1.5;" width="375" x="458" y="626.9058"/><path d="M603,626.9058 L603,636.2026 L593,646.2026 L458,646.2026 " fill="none" style="stroke:#000000;stroke-width:1.5;"/><text fill="#000000" font-family="sans-serif" font-size="14" font-weight="bold" lengthAdjust="spacing" textLength="51" x="461" y="640.9009">object</text><text fill="#000000" font-family="sans-serif" font-size="14" lengthAdjust="spacing" textLength="80" x="516" y="640.9009">Drowsiness</text><rect fill="#F1F1F1" height="33.9688" rx="12.5" ry="12.5" style="stroke:#181818;stroke-width:0.5;" width="135" x="588.75" y="663.2026"/><text fill="#000000" font-family="sans-serif" font-size="12" lengthAdjust="spacing" textLength="115" x="598.75" y="684.3413">Detect Drowsiness</text><rect fill="#F1F1F1" height="33.9688" rx="12.5" ry="12.5" style="stroke:#181818;stroke-width:0.5;" width="179" x="566.75" y="720.2026"/><text fill="#000000" font-family="sans-serif" font-size="12" lengthAdjust="spacing" textLength="159" x="576.75" y="741.3413">Compute Eye Aspect Ratio</text><polygon fill="#F1F1F1" points="591.75,789.1714,720.75,789.1714,732.75,801.1714,720.75,813.1714,591.75,813.1714,579.75,801.1714,591.75,789.1714" style="stroke:#181818;stroke-width:0.5;"/><text fill="#000000" font-family="sans-serif" font-size="11" lengthAdjust="spacing" textLength="129" x="591.75" y="804.9795">Drowsiness Detected?</text><text fill="#000000" font-family="sans-serif" font-size="11" lengthAdjust="spacing" textLength="21" x="558.75" y="798.5771">yes</text><text fill="#000000" font-family="sans-serif" font-size="11" lengthAdjust="spacing" textLength="14" x="732.75" y="798.5771">no</text><rect fill="#F1F1F1" height="33.9688" rx="12.5" ry="12.5" style="stroke:#181818;stroke-width:0.5;" width="164" x="478.5" y="823.1714"/><text fill="#000000" font-family="sans-serif" font-size="12" lengthAdjust="spacing" textLength="144" x="488.5" y="844.3101">Increment Time Counter</text><rect fill="#F1F1F1" height="33.9688" rx="12.5" ry="12.5" style="stroke:#181818;stroke-width:0.5;" width="78" x="521.5" y="940.5425"/><text fill="#000000" font-family="sans-serif" font-size="12" lengthAdjust="spacing" textLength="58" x="531.5" y="961.6812">Set Alarm</text><polygon fill="#F1F1F1" points="482,892.1401,639,892.1401,651,904.1401,639,916.1401,482,916.1401,470,904.1401,482,892.1401" style="stroke:#181818;stroke-width:0.5;"/><text fill="#000000" font-family="sans-serif" font-size="11" lengthAdjust="spacing" textLength="21" x="564.5" y="926.3506">yes</text><text fill="#000000" font-family="sans-serif" font-size="11" lengthAdjust="spacing" textLength="157" x="482" y="907.9482">Time Counter &gt; Threshold?</text><text fill="#000000" font-family="sans-serif" font-size="11" lengthAdjust="spacing" textLength="14" x="651" y="901.5459">no</text><polygon fill="#F1F1F1" points="560.5,998.9136,572.5,1010.9136,560.5,1022.9136,548.5,1010.9136,560.5,998.9136" style="stroke:#181818;stroke-width:0.5;"/><rect fill="#F1F1F1" height="33.9688" rx="12.5" ry="12.5" style="stroke:#181818;stroke-width:0.5;" width="138" x="683" y="823.1714"/><text fill="#000000" font-family="sans-serif" font-size="12" lengthAdjust="spacing" textLength="118" x="693" y="844.3101">Reset Time Counter</text><polygon fill="#F1F1F1" points="656.25,1028.9136,668.25,1040.9136,656.25,1052.9136,644.25,1040.9136,656.25,1028.9136" style="stroke:#181818;stroke-width:0.5;"/><rect fill="none" height="446.0078" style="stroke:#000000;stroke-width:1.5;" width="425.5" x="851.25" y="626.9058"/><path d="M1010.25,626.9058 L1010.25,636.2026 L1000.25,646.2026 L851.25,646.2026 " fill="none" style="stroke:#000000;stroke-width:1.5;"/><text fill="#000000" font-family="sans-serif" font-size="14" font-weight="bold" lengthAdjust="spacing" textLength="51" x="854.25" y="640.9009">object</text><text fill="#000000" font-family="sans-serif" font-size="14" lengthAdjust="spacing" textLength="94" x="909.25" y="640.9009">LookingAway</text><rect fill="#F1F1F1" height="33.9688" rx="12.5" ry="12.5" style="stroke:#181818;stroke-width:0.5;" width="153" x="1002.25" y="663.2026"/><text fill="#000000" font-family="sans-serif" font-size="12" lengthAdjust="spacing" textLength="133" x="1012.25" y="684.3413">Detect Gaze Direction</text><rect fill="#F1F1F1" height="33.9688" rx="12.5" ry="12.5" style="stroke:#181818;stroke-width:0.5;" width="204" x="976.75" y="720.2026"/><text fill="#000000" font-family="sans-serif" font-size="12" lengthAdjust="spacing" textLength="184" x="986.75" y="741.3413">Compute Average Gaze Score</text><polygon fill="#F1F1F1" points="983.75,789.1714,1173.75,789.1714,1185.75,801.1714,1173.75,813.1714,983.75,813.1714,971.75,801.1714,983.75,789.1714" style="stroke:#181818;stroke-width:0.5;"/><text fill="#000000" font-family="sans-serif" font-size="11" lengthAdjust="spacing" textLength="190" x="983.75" y="804.9795">Wrong Gaze Direction Detected?</text><text fill="#000000" font-family="sans-serif" font-size="11" lengthAdjust="spacing" textLength="21" x="950.75" y="798.5771">yes</text><text fill="#000000" font-family="sans-serif" font-size="11" lengthAdjust="spacing" textLength="14" x="1185.75" y="798.5771">no</text><rect fill="#F1F1F1" height="33.9688" rx="12.5" ry="12.5" style="stroke:#181818;stroke-width:0.5;" width="164" x="879.75" y="823.1714"/><text fill="#000000" font-family="sans-serif" font-size="12" lengthAdjust="spacing" textLength="144" x="889.75" y="844.3101">Increment Time Counter</text><rect fill="#F1F1F1" height="33.9688" rx="12.5" ry="12.5" style="stroke:#181818;stroke-width:0.5;" width="78" x="922.75" y="940.5425"/><text fill="#000000" font-family="sans-serif" font-size="12" lengthAdjust="spacing" textLength="58" x="932.75" y="961.6812">Set Alarm</text><polygon fill="#F1F1F1" points="883.25,892.1401,1040.25,892.1401,1052.25,904.1401,1040.25,916.1401,883.25,916.1401,871.25,904.1401,883.25,892.1401" style="stroke:#181818;stroke-width:0.5;"/><text fill="#000000" font-family="sans-serif" font-size="11" lengthAdjust="spacing" textLength="21" x="965.75" y="926.3506">yes</text><text fill="#000000" font-family="sans-serif" font-size="11" lengthAdjust="spacing" textLength="157" x="883.25" y="907.9482">Time Counter &gt; Threshold?</text><text fill="#000000" font-family="sans-serif" font-size="11" lengthAdjust="spacing" textLength="14" x="1052.25" y="901.5459">no</text><polygon fill="#F1F1F1" points="961.75,998.9136,973.75,1010.9136,961.75,1022.9136,949.75,1010.9136,961.75,998.9136" style="stroke:#181818;stroke-width:0.5;"/><rect fill="#F1F1F1" height="33.9688" rx="12.5" ry="12.5" style="stroke:#181818;stroke-width:0.5;" width="138" x="1126.75" y="823.1714"/><text fill="#000000" font-family="sans-serif" font-size="12" lengthAdjust="spacing" textLength="118" x="1136.75" y="844.3101">Reset Time Counter</text><polygon fill="#F1F1F1" points="1078.75,1028.9136,1090.75,1040.9136,1078.75,1052.9136,1066.75,1040.9136,1078.75,1028.9136" style="stroke:#181818;stroke-width:0.5;"/><line style="stroke:#181818;stroke-width:1.5;" x1="271.25" x2="1078.75" y1="1092.9136" y2="1092.9136"/><rect fill="#F1F1F1" height="33.9688" rx="12.5" ry="12.5" style="stroke:#181818;stroke-width:0.5;" width="230" x="551.75" y="1129.4136"/><text fill="#000000" font-family="sans-serif" font-size="12" lengthAdjust="spacing" textLength="210" x="561.75" y="1150.5522">Draw Points and Text on the Frame</text><rect fill="#F1F1F1" height="33.9688" rx="12.5" ry="12.5" style="stroke:#181818;stroke-width:0.5;" width="107" x="613.25" y="1238.7847"/><text fill="#000000" font-family="sans-serif" font-size="12" lengthAdjust="spacing" textLength="87" x="623.25" y="1259.9233">Play TTS Alarm</text><polygon fill="#F1F1F1" points="606.25,1190.3823,727.25,1190.3823,739.25,1202.3823,727.25,1214.3823,606.25,1214.3823,594.25,1202.3823,606.25,1190.3823" style="stroke:#181818;stroke-width:0.5;"/><text fill="#000000" font-family="sans-serif" font-size="11" lengthAdjust="spacing" textLength="21" x="670.75" y="1224.5928">yes</text><text fill="#000000" font-family="sans-serif" font-size="11" lengthAdjust="spacing" textLength="121" x="606.25" y="1206.1904">One Alarm is setted?</text><text fill="#000000" font-family="sans-serif" font-size="11" lengthAdjust="spacing" textLength="14" x="739.25" y="1199.7881">no</text><polygon fill="#F1F1F1" points="666.75,1292.7534,678.75,1304.7534,666.75,1316.7534,654.75,1304.7534,666.75,1292.7534" style="stroke:#181818;stroke-width:0.5;"/><polygon fill="#F1F1F1" points="617.25,196.9922,716.25,196.9922,728.25,208.9922,716.25,220.9922,617.25,220.9922,605.25,208.9922,617.25,196.9922" style="stroke:#181818;stroke-width:0.5;"/><text fill="#000000" font-family="sans-serif" font-size="11" lengthAdjust="spacing" textLength="21" x="670.75" y="231.2026">yes</text><text fill="#000000" font-family="sans-serif" font-size="11" lengthAdjust="spacing" textLength="99" x="617.25" y="212.8003">Recording Video?</text><text fill="#000000" font-family="sans-serif" font-size="11" lengthAdjust="spacing" textLength="14" x="591.25" y="206.3979">no</text><rect fill="#90EE90" height="932.6172" style="stroke:#000000;stroke-width:1.5;" width="451" x="1326.75" y="290.0698"/><path d="M1497.75,290.0698 L1497.75,299.3667 L1487.75,309.3667 L1326.75,309.3667 " fill="none" style="stroke:#000000;stroke-width:1.5;"/><text fill="#000000" font-family="sans-serif" font-size="14" font-weight="bold" lengthAdjust="spacing" textLength="51" x="1329.75" y="304.0649">object</text><text fill="#000000" font-family="sans-serif" font-size="14" lengthAdjust="spacing" textLength="106" x="1384.75" y="304.0649">AudioRecorder</text><rect fill="#F1F1F1" height="33.9688" rx="12.5" ry="12.5" style="stroke:#181818;stroke-width:0.5;" width="130" x="1498" y="387.1714"/><text fill="#000000" font-family="sans-serif" font-size="12" lengthAdjust="spacing" textLength="110" x="1508" y="408.3101">Read Audio Frame</text><rect fill="none" height="729.0469" style="stroke:#000000;stroke-width:1.5;" width="395" x="1354.75" y="449.6401"/><path d="M1485.75,449.6401 L1485.75,458.937 L1475.75,468.937 L1354.75,468.937 " fill="none" style="stroke:#000000;stroke-width:1.5;"/><text fill="#000000" font-family="sans-serif" font-size="14" font-weight="bold" lengthAdjust="spacing" textLength="51" x="1357.75" y="463.6353">object</text><text fill="#000000" font-family="sans-serif" font-size="14" lengthAdjust="spacing" textLength="66" x="1412.75" y="463.6353">Detector</text><rect fill="#F1F1F1" height="33.9688" rx="12.5" ry="12.5" style="stroke:#181818;stroke-width:0.5;" width="73" x="1526.5" y="485.937"/><text fill="#000000" font-family="sans-serif" font-size="12" lengthAdjust="spacing" textLength="53" x="1536.5" y="507.0757">Detector</text><rect fill="none" height="446.0078" style="stroke:#000000;stroke-width:1.5;" width="375" x="1364.75" y="554.9058"/><path d="M1495.75,554.9058 L1495.75,564.2026 L1485.75,574.2026 L1364.75,574.2026 " fill="none" style="stroke:#000000;stroke-width:1.5;"/><text fill="#000000" font-family="sans-serif" font-size="14" font-weight="bold" lengthAdjust="spacing" textLength="51" x="1367.75" y="568.9009">object</text><text fill="#000000" font-family="sans-serif" font-size="14" lengthAdjust="spacing" textLength="66" x="1422.75" y="568.9009">Loudness</text><rect fill="#F1F1F1" height="33.9688" rx="12.5" ry="12.5" style="stroke:#181818;stroke-width:0.5;" width="122" x="1502" y="591.2026"/><text fill="#000000" font-family="sans-serif" font-size="12" lengthAdjust="spacing" textLength="102" x="1512" y="612.3413">Detect Loudness</text><rect fill="#F1F1F1" height="33.9688" rx="12.5" ry="12.5" style="stroke:#181818;stroke-width:0.5;" width="140" x="1493" y="660.1714"/><text fill="#000000" font-family="sans-serif" font-size="12" lengthAdjust="spacing" textLength="120" x="1503" y="681.3101">Compute RMS Value</text><polygon fill="#F1F1F1" points="1504,717.1714,1622,717.1714,1634,729.1714,1622,741.1714,1504,741.1714,1492,729.1714,1504,717.1714" style="stroke:#181818;stroke-width:0.5;"/><text fill="#000000" font-family="sans-serif" font-size="11" lengthAdjust="spacing" textLength="118" x="1504" y="732.9795">Loudness Detected?</text><text fill="#000000" font-family="sans-serif" font-size="11" lengthAdjust="spacing" textLength="21" x="1471" y="726.5771">yes</text><text fill="#000000" font-family="sans-serif" font-size="11" lengthAdjust="spacing" textLength="14" x="1634" y="726.5771">no</text><rect fill="#F1F1F1" height="33.9688" rx="12.5" ry="12.5" style="stroke:#181818;stroke-width:0.5;" width="164" x="1385.25" y="751.1714"/><text fill="#000000" font-family="sans-serif" font-size="12" lengthAdjust="spacing" textLength="144" x="1395.25" y="772.3101">Increment Time Counter</text><rect fill="#F1F1F1" height="33.9688" rx="12.5" ry="12.5" style="stroke:#181818;stroke-width:0.5;" width="78" x="1428.25" y="868.5425"/><text fill="#000000" font-family="sans-serif" font-size="12" lengthAdjust="spacing" textLength="58" x="1438.25" y="889.6812">Set Alarm</text><polygon fill="#F1F1F1" points="1388.75,820.1401,1545.75,820.1401,1557.75,832.1401,1545.75,844.1401,1388.75,844.1401,1376.75,832.1401,1388.75,820.1401" style="stroke:#181818;stroke-width:0.5;"/><text fill="#000000" font-family="sans-serif" font-size="11" lengthAdjust="spacing" textLength="21" x="1471.25" y="854.3506">yes</text><text fill="#000000" font-family="sans-serif" font-size="11" lengthAdjust="spacing" textLength="157" x="1388.75" y="835.9482">Time Counter &gt; Threshold?</text><text fill="#000000" font-family="sans-serif" font-size="11" lengthAdjust="spacing" textLength="14" x="1557.75" y="829.5459">no</text><polygon fill="#F1F1F1" points="1467.25,926.9136,1479.25,938.9136,1467.25,950.9136,1455.25,938.9136,1467.25,926.9136" style="stroke:#181818;stroke-width:0.5;"/><rect fill="#F1F1F1" height="33.9688" rx="12.5" ry="12.5" style="stroke:#181818;stroke-width:0.5;" width="138" x="1589.75" y="751.1714"/><text fill="#000000" font-family="sans-serif" font-size="12" lengthAdjust="spacing" textLength="118" x="1599.75" y="772.3101">Reset Time Counter</text><polygon fill="#F1F1F1" points="1563,956.9136,1575,968.9136,1563,980.9136,1551,968.9136,1563,956.9136" style="stroke:#181818;stroke-width:0.5;"/><rect fill="#F1F1F1" height="33.9688" rx="12.5" ry="12.5" style="stroke:#181818;stroke-width:0.5;" width="111" x="1507.5" y="1084.3159"/><text fill="#000000" font-family="sans-serif" font-size="12" lengthAdjust="spacing" textLength="91" x="1517.5" y="1105.4546">Visualize Alarm</text><polygon fill="#F1F1F1" points="1516.5,1035.9136,1609.5,1035.9136,1621.5,1047.9136,1609.5,1059.9136,1516.5,1059.9136,1504.5,1047.9136,1516.5,1035.9136" style="stroke:#181818;stroke-width:0.5;"/><text fill="#000000" font-family="sans-serif" font-size="11" lengthAdjust="spacing" textLength="21" x="1567" y="1070.124">yes</text><text fill="#000000" font-family="sans-serif" font-size="11" lengthAdjust="spacing" textLength="93" x="1516.5" y="1051.7217">Alarm is setted?</text><text fill="#000000" font-family="sans-serif" font-size="11" lengthAdjust="spacing" textLength="14" x="1621.5" y="1045.3193">no</text><polygon fill="#F1F1F1" points="1563,1142.687,1575,1154.687,1563,1166.687,1551,1154.687,1563,1142.687" style="stroke:#181818;stroke-width:0.5;"/><polygon fill="#F1F1F1" points="1514,326.3667,1612,326.3667,1624,338.3667,1612,350.3667,1514,350.3667,1502,338.3667,1514,326.3667" style="stroke:#181818;stroke-width:0.5;"/><text fill="#000000" font-family="sans-serif" font-size="11" lengthAdjust="spacing" textLength="21" x="1567" y="360.5771">yes</text><text fill="#000000" font-family="sans-serif" font-size="11" lengthAdjust="spacing" textLength="98" x="1514" y="342.1748">Recording Audio?</text><text fill="#000000" font-family="sans-serif" font-size="11" lengthAdjust="spacing" textLength="14" x="1488" y="335.7725">no</text><rect fill="#555555" height="6" rx="2.5" ry="2.5" style="stroke:#555555;stroke-width:1.0;" width="1768.75" x="21" y="1382.7534"/><ellipse cx="899.5" cy="1431.7534" fill="none" rx="11" ry="11" style="stroke:#222222;stroke-width:1.0;"/><ellipse cx="899.5" cy="1431.7534" fill="#222222" rx="6" ry="6" style="stroke:#111111;stroke-width:1.0;"/><line style="stroke:#181818;stroke-width:1.0;" x1="666.75" x2="666.75" y1="330.6714" y2="365.6714"/><polygon fill="#181818" points="662.75,355.6714,666.75,365.6714,670.75,355.6714,666.75,359.6714" style="stroke:#181818;stroke-width:1.0;"/><line style="stroke:#181818;stroke-width:1.0;" x1="666.75" x2="666.75" y1="276.7026" y2="296.7026"/><polygon fill="#181818" points="662.75,286.7026,666.75,296.7026,670.75,286.7026,666.75,290.7026" style="stroke:#181818;stroke-width:1.0;"/><line style="stroke:#181818;stroke-width:1.0;" x1="714.25" x2="766.75" y1="453.1401" y2="453.1401"/><polygon fill="#181818" points="762.75,358.1714,766.75,348.1714,770.75,358.1714,766.75,354.1714" style="stroke:#181818;stroke-width:1.0;"/><line style="stroke:#181818;stroke-width:1.0;" x1="766.75" x2="766.75" y1="264.7026" y2="453.1401"/><line style="stroke:#181818;stroke-width:1.0;" x1="766.75" x2="678.75" y1="264.7026" y2="264.7026"/><polygon fill="#181818" points="688.75,260.7026,678.75,264.7026,688.75,268.7026,684.75,264.7026" style="stroke:#181818;stroke-width:1.0;"/><line style="stroke:#181818;stroke-width:1.0;" x1="666.75" x2="666.75" y1="399.6401" y2="441.1401"/><polygon fill="#181818" points="662.75,431.1401,666.75,441.1401,670.75,431.1401,666.75,435.1401" style="stroke:#181818;stroke-width:1.0;"/><line style="stroke:#181818;stroke-width:1.0;" x1="271.25" x2="271.25" y1="697.1714" y2="720.2026"/><polygon fill="#181818" points="267.25,710.2026,271.25,720.2026,275.25,710.2026,271.25,714.2026" style="stroke:#181818;stroke-width:1.0;"/><line style="stroke:#181818;stroke-width:1.0;" x1="175.5" x2="175.5" y1="916.1401" y2="940.5425"/><polygon fill="#181818" points="171.5,930.5425,175.5,940.5425,179.5,930.5425,175.5,934.5425" style="stroke:#181818;stroke-width:1.0;"/><line style="stroke:#181818;stroke-width:1.0;" x1="266" x2="278" y1="904.1401" y2="904.1401"/><polygon fill="#181818" points="274,947.5269,278,957.5269,282,947.5269,278,951.5269" style="stroke:#181818;stroke-width:1.0;"/><line style="stroke:#181818;stroke-width:1.0;" x1="278" x2="278" y1="904.1401" y2="1010.9136"/><line style="stroke:#181818;stroke-width:1.0;" x1="278" x2="187.5" y1="1010.9136" y2="1010.9136"/><polygon fill="#181818" points="197.5,1006.9136,187.5,1010.9136,197.5,1014.9136,193.5,1010.9136" style="stroke:#181818;stroke-width:1.0;"/><line style="stroke:#181818;stroke-width:1.0;" x1="175.5" x2="175.5" y1="974.5112" y2="998.9136"/><polygon fill="#181818" points="171.5,988.9136,175.5,998.9136,179.5,988.9136,175.5,992.9136" style="stroke:#181818;stroke-width:1.0;"/><line style="stroke:#181818;stroke-width:1.0;" x1="175.5" x2="175.5" y1="857.1401" y2="892.1401"/><polygon fill="#181818" points="171.5,882.1401,175.5,892.1401,179.5,882.1401,175.5,886.1401" style="stroke:#181818;stroke-width:1.0;"/><line style="stroke:#181818;stroke-width:1.0;" x1="197.25" x2="175.5" y1="801.1714" y2="801.1714"/><line style="stroke:#181818;stroke-width:1.0;" x1="175.5" x2="175.5" y1="801.1714" y2="823.1714"/><polygon fill="#181818" points="171.5,813.1714,175.5,823.1714,179.5,813.1714,175.5,817.1714" style="stroke:#181818;stroke-width:1.0;"/><line style="stroke:#181818;stroke-width:1.0;" x1="345.25" x2="367" y1="801.1714" y2="801.1714"/><line style="stroke:#181818;stroke-width:1.0;" x1="367" x2="367" y1="801.1714" y2="823.1714"/><polygon fill="#181818" points="363,813.1714,367,823.1714,371,813.1714,367,817.1714" style="stroke:#181818;stroke-width:1.0;"/><line style="stroke:#181818;stroke-width:1.0;" x1="175.5" x2="175.5" y1="1022.9136" y2="1040.9136"/><line style="stroke:#181818;stroke-width:1.0;" x1="175.5" x2="259.25" y1="1040.9136" y2="1040.9136"/><polygon fill="#181818" points="249.25,1036.9136,259.25,1040.9136,249.25,1044.9136,253.25,1040.9136" style="stroke:#181818;stroke-width:1.0;"/><line style="stroke:#181818;stroke-width:1.0;" x1="367" x2="367" y1="857.1401" y2="1040.9136"/><line style="stroke:#181818;stroke-width:1.0;" x1="367" x2="283.25" y1="1040.9136" y2="1040.9136"/><polygon fill="#181818" points="293.25,1036.9136,283.25,1040.9136,293.25,1044.9136,289.25,1040.9136" style="stroke:#181818;stroke-width:1.0;"/><line style="stroke:#181818;stroke-width:1.0;" x1="271.25" x2="271.25" y1="754.1714" y2="789.1714"/><polygon fill="#181818" points="267.25,779.1714,271.25,789.1714,275.25,779.1714,271.25,783.1714" style="stroke:#181818;stroke-width:1.0;"/><line style="stroke:#181818;stroke-width:1.0;" x1="656.25" x2="656.25" y1="697.1714" y2="720.2026"/><polygon fill="#181818" points="652.25,710.2026,656.25,720.2026,660.25,710.2026,656.25,714.2026" style="stroke:#181818;stroke-width:1.0;"/><line style="stroke:#181818;stroke-width:1.0;" x1="560.5" x2="560.5" y1="916.1401" y2="940.5425"/><polygon fill="#181818" points="556.5,930.5425,560.5,940.5425,564.5,930.5425,560.5,934.5425" style="stroke:#181818;stroke-width:1.0;"/><line style="stroke:#181818;stroke-width:1.0;" x1="651" x2="663" y1="904.1401" y2="904.1401"/><polygon fill="#181818" points="659,947.5269,663,957.5269,667,947.5269,663,951.5269" style="stroke:#181818;stroke-width:1.0;"/><line style="stroke:#181818;stroke-width:1.0;" x1="663" x2="663" y1="904.1401" y2="1010.9136"/><line style="stroke:#181818;stroke-width:1.0;" x1="663" x2="572.5" y1="1010.9136" y2="1010.9136"/><polygon fill="#181818" points="582.5,1006.9136,572.5,1010.9136,582.5,1014.9136,578.5,1010.9136" style="stroke:#181818;stroke-width:1.0;"/><line style="stroke:#181818;stroke-width:1.0;" x1="560.5" x2="560.5" y1="974.5112" y2="998.9136"/><polygon fill="#181818" points="556.5,988.9136,560.5,998.9136,564.5,988.9136,560.5,992.9136" style="stroke:#181818;stroke-width:1.0;"/><line style="stroke:#181818;stroke-width:1.0;" x1="560.5" x2="560.5" y1="857.1401" y2="892.1401"/><polygon fill="#181818" points="556.5,882.1401,560.5,892.1401,564.5,882.1401,560.5,886.1401" style="stroke:#181818;stroke-width:1.0;"/><line style="stroke:#181818;stroke-width:1.0;" x1="579.75" x2="560.5" y1="801.1714" y2="801.1714"/><line style="stroke:#181818;stroke-width:1.0;" x1="560.5" x2="560.5" y1="801.1714" y2="823.1714"/><polygon fill="#181818" points="556.5,813.1714,560.5,823.1714,564.5,813.1714,560.5,817.1714" style="stroke:#181818;stroke-width:1.0;"/><line style="stroke:#181818;stroke-width:1.0;" x1="732.75" x2="752" y1="801.1714" y2="801.1714"/><line style="stroke:#181818;stroke-width:1.0;" x1="752" x2="752" y1="801.1714" y2="823.1714"/><polygon fill="#181818" points="748,813.1714,752,823.1714,756,813.1714,752,817.1714" style="stroke:#181818;stroke-width:1.0;"/><line style="stroke:#181818;stroke-width:1.0;" x1="560.5" x2="560.5" y1="1022.9136" y2="1040.9136"/><line style="stroke:#181818;stroke-width:1.0;" x1="560.5" x2="644.25" y1="1040.9136" y2="1040.9136"/><polygon fill="#181818" points="634.25,1036.9136,644.25,1040.9136,634.25,1044.9136,638.25,1040.9136" style="stroke:#181818;stroke-width:1.0;"/><line style="stroke:#181818;stroke-width:1.0;" x1="752" x2="752" y1="857.1401" y2="1040.9136"/><line style="stroke:#181818;stroke-width:1.0;" x1="752" x2="668.25" y1="1040.9136" y2="1040.9136"/><polygon fill="#181818" points="678.25,1036.9136,668.25,1040.9136,678.25,1044.9136,674.25,1040.9136" style="stroke:#181818;stroke-width:1.0;"/><line style="stroke:#181818;stroke-width:1.0;" x1="656.25" x2="656.25" y1="754.1714" y2="789.1714"/><polygon fill="#181818" points="652.25,779.1714,656.25,789.1714,660.25,779.1714,656.25,783.1714" style="stroke:#181818;stroke-width:1.0;"/><line style="stroke:#181818;stroke-width:1.0;" x1="1078.75" x2="1078.75" y1="697.1714" y2="720.2026"/><polygon fill="#181818" points="1074.75,710.2026,1078.75,720.2026,1082.75,710.2026,1078.75,714.2026" style="stroke:#181818;stroke-width:1.0;"/><line style="stroke:#181818;stroke-width:1.0;" x1="961.75" x2="961.75" y1="916.1401" y2="940.5425"/><polygon fill="#181818" points="957.75,930.5425,961.75,940.5425,965.75,930.5425,961.75,934.5425" style="stroke:#181818;stroke-width:1.0;"/><line style="stroke:#181818;stroke-width:1.0;" x1="1052.25" x2="1064.25" y1="904.1401" y2="904.1401"/><polygon fill="#181818" points="1060.25,947.5269,1064.25,957.5269,1068.25,947.5269,1064.25,951.5269" style="stroke:#181818;stroke-width:1.0;"/><line style="stroke:#181818;stroke-width:1.0;" x1="1064.25" x2="1064.25" y1="904.1401" y2="1010.9136"/><line style="stroke:#181818;stroke-width:1.0;" x1="1064.25" x2="973.75" y1="1010.9136" y2="1010.9136"/><polygon fill="#181818" points="983.75,1006.9136,973.75,1010.9136,983.75,1014.9136,979.75,1010.9136" style="stroke:#181818;stroke-width:1.0;"/><line style="stroke:#181818;stroke-width:1.0;" x1="961.75" x2="961.75" y1="974.5112" y2="998.9136"/><polygon fill="#181818" points="957.75,988.9136,961.75,998.9136,965.75,988.9136,961.75,992.9136" style="stroke:#181818;stroke-width:1.0;"/><line style="stroke:#181818;stroke-width:1.0;" x1="961.75" x2="961.75" y1="857.1401" y2="892.1401"/><polygon fill="#181818" points="957.75,882.1401,961.75,892.1401,965.75,882.1401,961.75,886.1401" style="stroke:#181818;stroke-width:1.0;"/><line style="stroke:#181818;stroke-width:1.0;" x1="971.75" x2="961.75" y1="801.1714" y2="801.1714"/><line style="stroke:#181818;stroke-width:1.0;" x1="961.75" x2="961.75" y1="801.1714" y2="823.1714"/><polygon fill="#181818" points="957.75,813.1714,961.75,823.1714,965.75,813.1714,961.75,817.1714" style="stroke:#181818;stroke-width:1.0;"/><line style="stroke:#181818;stroke-width:1.0;" x1="1185.75" x2="1195.75" y1="801.1714" y2="801.1714"/><line style="stroke:#181818;stroke-width:1.0;" x1="1195.75" x2="1195.75" y1="801.1714" y2="823.1714"/><polygon fill="#181818" points="1191.75,813.1714,1195.75,823.1714,1199.75,813.1714,1195.75,817.1714" style="stroke:#181818;stroke-width:1.0;"/><line style="stroke:#181818;stroke-width:1.0;" x1="961.75" x2="961.75" y1="1022.9136" y2="1040.9136"/><line style="stroke:#181818;stroke-width:1.0;" x1="961.75" x2="1066.75" y1="1040.9136" y2="1040.9136"/><polygon fill="#181818" points="1056.75,1036.9136,1066.75,1040.9136,1056.75,1044.9136,1060.75,1040.9136" style="stroke:#181818;stroke-width:1.0;"/><line style="stroke:#181818;stroke-width:1.0;" x1="1195.75" x2="1195.75" y1="857.1401" y2="1040.9136"/><line style="stroke:#181818;stroke-width:1.0;" x1="1195.75" x2="1090.75" y1="1040.9136" y2="1040.9136"/><polygon fill="#181818" points="1100.75,1036.9136,1090.75,1040.9136,1100.75,1044.9136,1096.75,1040.9136" style="stroke:#181818;stroke-width:1.0;"/><line style="stroke:#181818;stroke-width:1.0;" x1="1078.75" x2="1078.75" y1="754.1714" y2="789.1714"/><polygon fill="#181818" points="1074.75,779.1714,1078.75,789.1714,1082.75,779.1714,1078.75,783.1714" style="stroke:#181818;stroke-width:1.0;"/><line style="stroke:#181818;stroke-width:1.0;" x1="271.25" x2="271.25" y1="606.9058" y2="663.2026"/><polygon fill="#181818" points="267.25,653.2026,271.25,663.2026,275.25,653.2026,271.25,657.2026" style="stroke:#181818;stroke-width:1.0;"/><line style="stroke:#181818;stroke-width:1.0;" x1="656.25" x2="656.25" y1="606.9058" y2="663.2026"/><polygon fill="#181818" points="652.25,653.2026,656.25,663.2026,660.25,653.2026,656.25,657.2026" style="stroke:#181818;stroke-width:1.0;"/><line style="stroke:#181818;stroke-width:1.0;" x1="1078.75" x2="1078.75" y1="606.9058" y2="663.2026"/><polygon fill="#181818" points="1074.75,653.2026,1078.75,663.2026,1082.75,653.2026,1078.75,657.2026" style="stroke:#181818;stroke-width:1.0;"/><line style="stroke:#181818;stroke-width:1.0;" x1="271.25" x2="271.25" y1="1052.9136" y2="1092.9136"/><polygon fill="#181818" points="267.25,1082.9136,271.25,1092.9136,275.25,1082.9136,271.25,1086.9136" style="stroke:#181818;stroke-width:1.0;"/><line style="stroke:#181818;stroke-width:1.0;" x1="656.25" x2="656.25" y1="1052.9136" y2="1092.9136"/><polygon fill="#181818" points="652.25,1082.9136,656.25,1092.9136,660.25,1082.9136,656.25,1086.9136" style="stroke:#181818;stroke-width:1.0;"/><line style="stroke:#181818;stroke-width:1.0;" x1="1078.75" x2="1078.75" y1="1052.9136" y2="1092.9136"/><polygon fill="#181818" points="1074.75,1082.9136,1078.75,1092.9136,1082.75,1082.9136,1078.75,1086.9136" style="stroke:#181818;stroke-width:1.0;"/><line style="stroke:#181818;stroke-width:1.0;" x1="666.75" x2="666.75" y1="570.4058" y2="605.4058"/><polygon fill="#181818" points="662.75,595.4058,666.75,605.4058,670.75,595.4058,666.75,599.4058" style="stroke:#181818;stroke-width:1.0;"/><line style="stroke:#181818;stroke-width:1.0;" x1="666.75" x2="666.75" y1="1094.4136" y2="1129.4136"/><polygon fill="#181818" points="662.75,1119.4136,666.75,1129.4136,670.75,1119.4136,666.75,1123.4136" style="stroke:#181818;stroke-width:1.0;"/><line style="stroke:#181818;stroke-width:1.0;" x1="666.75" x2="666.75" y1="1214.3823" y2="1238.7847"/><polygon fill="#181818" points="662.75,1228.7847,666.75,1238.7847,670.75,1228.7847,666.75,1232.7847" style="stroke:#181818;stroke-width:1.0;"/><line style="stroke:#181818;stroke-width:1.0;" x1="739.25" x2="751.25" y1="1202.3823" y2="1202.3823"/><polygon fill="#181818" points="747.25,1245.769,751.25,1255.769,755.25,1245.769,751.25,1249.769" style="stroke:#181818;stroke-width:1.0;"/><line style="stroke:#181818;stroke-width:1.0;" x1="751.25" x2="751.25" y1="1202.3823" y2="1304.7534"/><line style="stroke:#181818;stroke-width:1.0;" x1="751.25" x2="678.75" y1="1304.7534" y2="1304.7534"/><polygon fill="#181818" points="688.75,1300.7534,678.75,1304.7534,688.75,1308.7534,684.75,1304.7534" style="stroke:#181818;stroke-width:1.0;"/><line style="stroke:#181818;stroke-width:1.0;" x1="666.75" x2="666.75" y1="1272.7534" y2="1292.7534"/><polygon fill="#181818" points="662.75,1282.7534,666.75,1292.7534,670.75,1282.7534,666.75,1286.7534" style="stroke:#181818;stroke-width:1.0;"/><line style="stroke:#181818;stroke-width:1.0;" x1="666.75" x2="666.75" y1="1163.3823" y2="1190.3823"/><polygon fill="#181818" points="662.75,1180.3823,666.75,1190.3823,670.75,1180.3823,666.75,1184.3823" style="stroke:#181818;stroke-width:1.0;"/><line style="stroke:#181818;stroke-width:1.0;" x1="666.75" x2="666.75" y1="465.1401" y2="536.437"/><polygon fill="#181818" points="662.75,526.437,666.75,536.437,670.75,526.437,666.75,530.437" style="stroke:#181818;stroke-width:1.0;"/><line style="stroke:#181818;stroke-width:1.0;" x1="666.75" x2="666.75" y1="220.9922" y2="252.7026"/><polygon fill="#181818" points="662.75,242.7026,666.75,252.7026,670.75,242.7026,666.75,246.7026" style="stroke:#181818;stroke-width:1.0;"/><line style="stroke:#181818;stroke-width:1.0;" x1="666.75" x2="666.75" y1="1316.7534" y2="1338.7534"/><line style="stroke:#181818;stroke-width:1.0;" x1="666.75" x2="1300.75" y1="1338.7534" y2="1338.7534"/><polygon fill="#181818" points="1296.75,769.2925,1300.75,759.2925,1304.75,769.2925,1300.75,765.2925" style="stroke:#181818;stroke-width:1.0;"/><line style="stroke:#181818;stroke-width:1.0;" x1="1300.75" x2="1300.75" y1="208.9922" y2="1338.7534"/><line style="stroke:#181818;stroke-width:1.0;" x1="1300.75" x2="728.25" y1="208.9922" y2="208.9922"/><polygon fill="#181818" points="738.25,204.9922,728.25,208.9922,738.25,212.9922,734.25,208.9922" style="stroke:#181818;stroke-width:1.0;"/><line style="stroke:#181818;stroke-width:1.0;" x1="605.25" x2="49" y1="208.9922" y2="208.9922"/><polygon fill="#181818" points="45,755.2925,49,765.2925,53,755.2925,49,759.2925" style="stroke:#181818;stroke-width:1.0;"/><line style="stroke:#181818;stroke-width:1.0;" x1="49" x2="49" y1="208.9922" y2="1350.7534"/><line style="stroke:#181818;stroke-width:1.0;" x1="49" x2="666.75" y1="1350.7534" y2="1350.7534"/><line style="stroke:#181818;stroke-width:1.0;" x1="666.75" x2="666.75" y1="1350.7534" y2="1382.7534"/><polygon fill="#181818" points="662.75,1372.7534,666.75,1382.7534,670.75,1372.7534,666.75,1376.7534" style="stroke:#181818;stroke-width:1.0;"/><line style="stroke:#181818;stroke-width:1.0;" x1="1563" x2="1563" y1="625.1714" y2="660.1714"/><polygon fill="#181818" points="1559,650.1714,1563,660.1714,1567,650.1714,1563,654.1714" style="stroke:#181818;stroke-width:1.0;"/><line style="stroke:#181818;stroke-width:1.0;" x1="1467.25" x2="1467.25" y1="844.1401" y2="868.5425"/><polygon fill="#181818" points="1463.25,858.5425,1467.25,868.5425,1471.25,858.5425,1467.25,862.5425" style="stroke:#181818;stroke-width:1.0;"/><line style="stroke:#181818;stroke-width:1.0;" x1="1557.75" x2="1569.75" y1="832.1401" y2="832.1401"/><polygon fill="#181818" points="1565.75,875.5269,1569.75,885.5269,1573.75,875.5269,1569.75,879.5269" style="stroke:#181818;stroke-width:1.0;"/><line style="stroke:#181818;stroke-width:1.0;" x1="1569.75" x2="1569.75" y1="832.1401" y2="938.9136"/><line style="stroke:#181818;stroke-width:1.0;" x1="1569.75" x2="1479.25" y1="938.9136" y2="938.9136"/><polygon fill="#181818" points="1489.25,934.9136,1479.25,938.9136,1489.25,942.9136,1485.25,938.9136" style="stroke:#181818;stroke-width:1.0;"/><line style="stroke:#181818;stroke-width:1.0;" x1="1467.25" x2="1467.25" y1="902.5112" y2="926.9136"/><polygon fill="#181818" points="1463.25,916.9136,1467.25,926.9136,1471.25,916.9136,1467.25,920.9136" style="stroke:#181818;stroke-width:1.0;"/><line style="stroke:#181818;stroke-width:1.0;" x1="1467.25" x2="1467.25" y1="785.1401" y2="820.1401"/><polygon fill="#181818" points="1463.25,810.1401,1467.25,820.1401,1471.25,810.1401,1467.25,814.1401" style="stroke:#181818;stroke-width:1.0;"/><line style="stroke:#181818;stroke-width:1.0;" x1="1492" x2="1467.25" y1="729.1714" y2="729.1714"/><line style="stroke:#181818;stroke-width:1.0;" x1="1467.25" x2="1467.25" y1="729.1714" y2="751.1714"/><polygon fill="#181818" points="1463.25,741.1714,1467.25,751.1714,1471.25,741.1714,1467.25,745.1714" style="stroke:#181818;stroke-width:1.0;"/><line style="stroke:#181818;stroke-width:1.0;" x1="1634" x2="1658.75" y1="729.1714" y2="729.1714"/><line style="stroke:#181818;stroke-width:1.0;" x1="1658.75" x2="1658.75" y1="729.1714" y2="751.1714"/><polygon fill="#181818" points="1654.75,741.1714,1658.75,751.1714,1662.75,741.1714,1658.75,745.1714" style="stroke:#181818;stroke-width:1.0;"/><line style="stroke:#181818;stroke-width:1.0;" x1="1467.25" x2="1467.25" y1="950.9136" y2="968.9136"/><line style="stroke:#181818;stroke-width:1.0;" x1="1467.25" x2="1551" y1="968.9136" y2="968.9136"/><polygon fill="#181818" points="1541,964.9136,1551,968.9136,1541,972.9136,1545,968.9136" style="stroke:#181818;stroke-width:1.0;"/><line style="stroke:#181818;stroke-width:1.0;" x1="1658.75" x2="1658.75" y1="785.1401" y2="968.9136"/><line style="stroke:#181818;stroke-width:1.0;" x1="1658.75" x2="1575" y1="968.9136" y2="968.9136"/><polygon fill="#181818" points="1585,964.9136,1575,968.9136,1585,972.9136,1581,968.9136" style="stroke:#181818;stroke-width:1.0;"/><line style="stroke:#181818;stroke-width:1.0;" x1="1563" x2="1563" y1="694.1401" y2="717.1714"/><polygon fill="#181818" points="1559,707.1714,1563,717.1714,1567,707.1714,1563,711.1714" style="stroke:#181818;stroke-width:1.0;"/><line style="stroke:#181818;stroke-width:1.0;" x1="1563" x2="1563" y1="519.9058" y2="591.2026"/><polygon fill="#181818" points="1559,581.2026,1563,591.2026,1567,581.2026,1563,585.2026" style="stroke:#181818;stroke-width:1.0;"/><line style="stroke:#181818;stroke-width:1.0;" x1="1563" x2="1563" y1="1059.9136" y2="1084.3159"/><polygon fill="#181818" points="1559,1074.3159,1563,1084.3159,1567,1074.3159,1563,1078.3159" style="stroke:#181818;stroke-width:1.0;"/><line style="stroke:#181818;stroke-width:1.0;" x1="1621.5" x2="1633.5" y1="1047.9136" y2="1047.9136"/><polygon fill="#181818" points="1629.5,1091.3003,1633.5,1101.3003,1637.5,1091.3003,1633.5,1095.3003" style="stroke:#181818;stroke-width:1.0;"/><line style="stroke:#181818;stroke-width:1.0;" x1="1633.5" x2="1633.5" y1="1047.9136" y2="1154.687"/><line style="stroke:#181818;stroke-width:1.0;" x1="1633.5" x2="1575" y1="1154.687" y2="1154.687"/><polygon fill="#181818" points="1585,1150.687,1575,1154.687,1585,1158.687,1581,1154.687" style="stroke:#181818;stroke-width:1.0;"/><line style="stroke:#181818;stroke-width:1.0;" x1="1563" x2="1563" y1="1118.2847" y2="1142.687"/><polygon fill="#181818" points="1559,1132.687,1563,1142.687,1567,1132.687,1563,1136.687" style="stroke:#181818;stroke-width:1.0;"/><line style="stroke:#181818;stroke-width:1.0;" x1="1563" x2="1563" y1="980.9136" y2="1035.9136"/><polygon fill="#181818" points="1559,1025.9136,1563,1035.9136,1567,1025.9136,1563,1029.9136" style="stroke:#181818;stroke-width:1.0;"/><line style="stroke:#181818;stroke-width:1.0;" x1="1563" x2="1563" y1="421.1401" y2="485.937"/><polygon fill="#181818" points="1559,475.937,1563,485.937,1567,475.937,1563,479.937" style="stroke:#181818;stroke-width:1.0;"/><line style="stroke:#181818;stroke-width:1.0;" x1="1563" x2="1563" y1="350.3667" y2="387.1714"/><polygon fill="#181818" points="1559,377.1714,1563,387.1714,1567,377.1714,1563,381.1714" style="stroke:#181818;stroke-width:1.0;"/><line style="stroke:#181818;stroke-width:1.0;" x1="1563" x2="1563" y1="1166.687" y2="1190.687"/><line style="stroke:#181818;stroke-width:1.0;" x1="1563" x2="1761.75" y1="1190.687" y2="1190.687"/><polygon fill="#181818" points="1757.75,769.2925,1761.75,759.2925,1765.75,769.2925,1761.75,765.2925" style="stroke:#181818;stroke-width:1.0;"/><line style="stroke:#181818;stroke-width:1.0;" x1="1761.75" x2="1761.75" y1="338.3667" y2="1190.687"/><line style="stroke:#181818;stroke-width:1.0;" x1="1761.75" x2="1624" y1="338.3667" y2="338.3667"/><polygon fill="#181818" points="1634,334.3667,1624,338.3667,1634,342.3667,1630,338.3667" style="stroke:#181818;stroke-width:1.0;"/><line style="stroke:#181818;stroke-width:1.0;" x1="1502" x2="1342.75" y1="338.3667" y2="338.3667"/><polygon fill="#181818" points="1338.75,755.2925,1342.75,765.2925,1346.75,755.2925,1342.75,759.2925" style="stroke:#181818;stroke-width:1.0;"/><line style="stroke:#181818;stroke-width:1.0;" x1="1342.75" x2="1342.75" y1="338.3667" y2="1202.687"/><line style="stroke:#181818;stroke-width:1.0;" x1="1342.75" x2="1563" y1="1202.687" y2="1202.687"/><line style="stroke:#181818;stroke-width:1.0;" x1="1563" x2="1563" y1="1202.687" y2="1382.7534"/><polygon fill="#181818" points="1559,1372.7534,1563,1382.7534,1567,1372.7534,1563,1376.7534" style="stroke:#181818;stroke-width:1.0;"/><line style="stroke:#181818;stroke-width:1.0;" x1="666.75" x2="666.75" y1="150.6953" y2="196.9922"/><polygon fill="#181818" points="662.75,186.9922,666.75,196.9922,670.75,186.9922,666.75,190.9922" style="stroke:#181818;stroke-width:1.0;"/><line style="stroke:#181818;stroke-width:1.0;" x1="1563" x2="1563" y1="150.6953" y2="326.3667"/><polygon fill="#181818" points="1559,316.3667,1563,326.3667,1567,316.3667,1563,320.3667" style="stroke:#181818;stroke-width:1.0;"/><line style="stroke:#181818;stroke-width:1.0;" x1="899.5" x2="899.5" y1="113.9805" y2="144.6953"/><polygon fill="#181818" points="895.5,134.6953,899.5,144.6953,903.5,134.6953,899.5,138.6953" style="stroke:#181818;stroke-width:1.0;"/><line style="stroke:#181818;stroke-width:1.0;" x1="899.5" x2="899.5" y1="30" y2="80.0117"/><polygon fill="#181818" points="895.5,70.0117,899.5,80.0117,903.5,70.0117,899.5,74.0117" style="stroke:#181818;stroke-width:1.0;"/><line style="stroke:#181818;stroke-width:1.0;" x1="899.5" x2="899.5" y1="1388.7534" y2="1420.7534"/><polygon fill="#181818" points="895.5,1410.7534,899.5,1420.7534,903.5,1410.7534,899.5,1414.7534" style="stroke:#181818;stroke-width:1.0;"/><!--SRC=[xLTTRvim57tdLrnrBsb-Gf0seQwf9gLRbKIP9lN5XPl4gx6HRSRIQVzzDW4I0YOGLPesrGyecFlbw-FZ4wM9r9wNc2VLL72u6e_5qtSCzNWCSmo5Z51UmIyFp3Wy9WlhLnXGll7pMIuqWgIRhPx0ta1d0lHM8edK8ryB2IiQeG328mZIY8f7NeN88nYJvqCMEmwLlMCsyZTaJ6IrClEOfxMMe_QIRIb365KvzwuVhe4g6ErGNTUixP2O8D6DwSdSBAbOp5II6FscoOs8azGqP4f2X9bPSapai_8TAShQSkkfI7bKbCL5iwh6HFl-VKHjVeX6JweIImE_zNFhf4eOrQrVEkgWIaiIsdbNAISb7RlutGv1ah0TpAY-NQzfI97hpwZXNaJ8G3jtvtZGDOoEyXLjGxi1UelSWOn68PzuA34s-M59OuGRiuSQfN_MqQO_ze3ti3H7Hcq56rZ2_cIQrGUCoFXyPcGAsm7MiEGHNNkl4ykS7OL3cjIT_BVdnYcG3Q5yA5gbo1Jbg5Hli5OUPx1QKiBj3Y5GYVMT4rD03tnMATxW-O_1SnYrNWJPcH3FvZeBChBhYzaxyeA6PINsuTWIjy4Fb6I3U-U5kKHxCEjNASn5Mq_tXk7_0CF6fqCDE0I791ay2CgroaNW4dzgC7WmEz1rKzlz-y9nttIhYipgUgDdyi383fRBHTUUTVUslJtrjXYRGi8THobk9wjhYvFjDJfqAd7l96BzVETQsQLm6w8sj-uIjNlrcfkvkluN5QQBujBet9rSSbjfwyPynMZp-mMi24ixYCo2hunu0N5TH5glHrXzoQeVkNJpHByOWyZ9dR15zzck3QQ8oOggb33wWguskPSrd1TEYS4hcJJ_v-kPMQL5yWS0]--></g></svg>