<?xml version="1.0" encoding="us-ascii" standalone="no"?><svg xmlns="http://www.w3.org/2000/svg" xmlns:xlink="http://www.w3.org/1999/xlink" contentStyleType="text/css" height="902px" preserveAspectRatio="none" style="width:473px;height:902px;background:#FFFFFF;" version="1.1" viewBox="0 0 473 902" width="473px" zoomAndPan="magnify"><defs/><g><ellipse cx="247.25" cy="20" fill="#222222" rx="10" ry="10" style="stroke:#222222;stroke-width:1.0;"/><rect fill="none" height="851.187" style="stroke:#000000;stroke-width:1.5;" width="451" x="11" y="40"/><path d="M182,40 L182,49.2969 L172,59.2969 L11,59.2969 " fill="none" style="stroke:#000000;stroke-width:1.5;"/><text fill="#000000" font-family="sans-serif" font-size="14" font-weight="bold" lengthAdjust="spacing" textLength="51" x="14" y="53.9951">object</text><text fill="#000000" font-family="sans-serif" font-size="14" lengthAdjust="spacing" textLength="106" x="69" y="53.9951">AudioRecorder</text><rect fill="#F1F1F1" height="33.9688" rx="12.5" ry="12.5" style="stroke:#181818;stroke-width:0.5;" width="130" x="182.25" y="132.0073"/><text fill="#000000" font-family="sans-serif" font-size="12" lengthAdjust="spacing" textLength="110" x="192.25" y="153.146">Read Audio Frame</text><rect fill="none" height="639.2109" style="stroke:#000000;stroke-width:1.5;" width="395" x="39" y="175.9761"/><path d="M170,175.9761 L170,185.2729 L160,195.2729 L39,195.2729 " fill="none" style="stroke:#000000;stroke-width:1.5;"/><text fill="#000000" font-family="sans-serif" font-size="14" font-weight="bold" lengthAdjust="spacing" textLength="51" x="42" y="189.9712">object</text><text fill="#000000" font-family="sans-serif" font-size="14" lengthAdjust="spacing" textLength="66" x="97" y="189.9712">Detector</text><rect fill="#F1F1F1" height="33.9688" rx="12.5" ry="12.5" style="stroke:#181818;stroke-width:0.5;" width="73" x="210.75" y="212.2729"/><text fill="#000000" font-family="sans-serif" font-size="12" lengthAdjust="spacing" textLength="53" x="220.75" y="233.4116">Detector</text><rect fill="none" height="400.5742" style="stroke:#000000;stroke-width:1.5;" width="375" x="49" y="256.2417"/><path d="M180,256.2417 L180,265.5386 L170,275.5386 L49,275.5386 " fill="none" style="stroke:#000000;stroke-width:1.5;"/><text fill="#000000" font-family="sans-serif" font-size="14" font-weight="bold" lengthAdjust="spacing" textLength="51" x="52" y="270.2368">object</text><text fill="#000000" font-family="sans-serif" font-size="14" lengthAdjust="spacing" textLength="66" x="107" y="270.2368">Loudness</text><rect fill="#F1F1F1" height="33.9688" rx="12.5" ry="12.5" style="stroke:#181818;stroke-width:0.5;" width="122" x="186.25" y="292.5386"/><text fill="#000000" font-family="sans-serif" font-size="12" lengthAdjust="spacing" textLength="102" x="196.25" y="313.6772">Detect Loudness</text><rect fill="#F1F1F1" height="33.9688" rx="12.5" ry="12.5" style="stroke:#181818;stroke-width:0.5;" width="140" x="177.25" y="346.5073"/><text fill="#000000" font-family="sans-serif" font-size="12" lengthAdjust="spacing" textLength="120" x="187.25" y="367.646">Compute RMS Value</text><polygon fill="#F1F1F1" points="188.25,400.4761,306.25,400.4761,318.25,412.4761,306.25,424.4761,188.25,424.4761,176.25,412.4761,188.25,400.4761" style="stroke:#181818;stroke-width:0.5;"/><text fill="#000000" font-family="sans-serif" font-size="11" lengthAdjust="spacing" textLength="118" x="188.25" y="416.2842">Loudness Detected?</text><text fill="#000000" font-family="sans-serif" font-size="11" lengthAdjust="spacing" textLength="21" x="155.25" y="409.8818">yes</text><text fill="#000000" font-family="sans-serif" font-size="11" lengthAdjust="spacing" textLength="14" x="318.25" y="409.8818">no</text><rect fill="#F1F1F1" height="33.9688" rx="12.5" ry="12.5" style="stroke:#181818;stroke-width:0.5;" width="164" x="69.5" y="434.4761"/><text fill="#000000" font-family="sans-serif" font-size="12" lengthAdjust="spacing" textLength="144" x="79.5" y="455.6147">Increment Time Counter</text><rect fill="#F1F1F1" height="33.9688" rx="12.5" ry="12.5" style="stroke:#181818;stroke-width:0.5;" width="78" x="112.5" y="536.8472"/><text fill="#000000" font-family="sans-serif" font-size="12" lengthAdjust="spacing" textLength="58" x="122.5" y="557.9858">Set Alarm</text><polygon fill="#F1F1F1" points="73,488.4448,230,488.4448,242,500.4448,230,512.4448,73,512.4448,61,500.4448,73,488.4448" style="stroke:#181818;stroke-width:0.5;"/><text fill="#000000" font-family="sans-serif" font-size="11" lengthAdjust="spacing" textLength="21" x="155.5" y="522.6553">yes</text><text fill="#000000" font-family="sans-serif" font-size="11" lengthAdjust="spacing" textLength="157" x="73" y="504.2529">Time Counter &gt; Threshold?</text><text fill="#000000" font-family="sans-serif" font-size="11" lengthAdjust="spacing" textLength="14" x="242" y="497.8506">no</text><polygon fill="#F1F1F1" points="151.5,590.8159,163.5,602.8159,151.5,614.8159,139.5,602.8159,151.5,590.8159" style="stroke:#181818;stroke-width:0.5;"/><rect fill="#F1F1F1" height="33.9688" rx="12.5" ry="12.5" style="stroke:#181818;stroke-width:0.5;" width="138" x="274" y="434.4761"/><text fill="#000000" font-family="sans-serif" font-size="12" lengthAdjust="spacing" textLength="118" x="284" y="455.6147">Reset Time Counter</text><polygon fill="#F1F1F1" points="247.25,620.8159,259.25,632.8159,247.25,644.8159,235.25,632.8159,247.25,620.8159" style="stroke:#181818;stroke-width:0.5;"/><rect fill="#F1F1F1" height="33.9688" rx="12.5" ry="12.5" style="stroke:#181818;stroke-width:0.5;" width="111" x="191.75" y="725.2183"/><text fill="#000000" font-family="sans-serif" font-size="12" lengthAdjust="spacing" textLength="91" x="201.75" y="746.3569">Visualize Alarm</text><polygon fill="#F1F1F1" points="200.75,676.8159,293.75,676.8159,305.75,688.8159,293.75,700.8159,200.75,700.8159,188.75,688.8159,200.75,676.8159" style="stroke:#181818;stroke-width:0.5;"/><text fill="#000000" font-family="sans-serif" font-size="11" lengthAdjust="spacing" textLength="21" x="251.25" y="711.0264">yes</text><text fill="#000000" font-family="sans-serif" font-size="11" lengthAdjust="spacing" textLength="93" x="200.75" y="692.624">Alarm is setted?</text><text fill="#000000" font-family="sans-serif" font-size="11" lengthAdjust="spacing" textLength="14" x="305.75" y="686.2217">no</text><polygon fill="#F1F1F1" points="247.25,779.187,259.25,791.187,247.25,803.187,235.25,791.187,247.25,779.187" style="stroke:#181818;stroke-width:0.5;"/><polygon fill="#F1F1F1" points="216.25,76.2969,278.25,76.2969,290.25,88.2969,278.25,100.2969,216.25,100.2969,204.25,88.2969,216.25,76.2969" style="stroke:#181818;stroke-width:0.5;"/><text fill="#000000" font-family="sans-serif" font-size="11" lengthAdjust="spacing" textLength="21" x="251.25" y="110.5073">yes</text><text fill="#000000" font-family="sans-serif" font-size="11" lengthAdjust="spacing" textLength="62" x="216.25" y="92.105">Recording?</text><text fill="#000000" font-family="sans-serif" font-size="11" lengthAdjust="spacing" textLength="14" x="190.25" y="85.7026">no</text><ellipse cx="247.25" cy="868.187" fill="none" rx="11" ry="11" style="stroke:#222222;stroke-width:1.0;"/><ellipse cx="247.25" cy="868.187" fill="#222222" rx="6" ry="6" style="stroke:#111111;stroke-width:1.0;"/><line style="stroke:#181818;stroke-width:1.0;" x1="247.25" x2="247.25" y1="326.5073" y2="346.5073"/><polygon fill="#181818" points="243.25,336.5073,247.25,346.5073,251.25,336.5073,247.25,340.5073" style="stroke:#181818;stroke-width:1.0;"/><line style="stroke:#181818;stroke-width:1.0;" x1="151.5" x2="151.5" y1="512.4448" y2="536.8472"/><polygon fill="#181818" points="147.5,526.8472,151.5,536.8472,155.5,526.8472,151.5,530.8472" style="stroke:#181818;stroke-width:1.0;"/><line style="stroke:#181818;stroke-width:1.0;" x1="242" x2="254" y1="500.4448" y2="500.4448"/><polygon fill="#181818" points="250,543.8315,254,553.8315,258,543.8315,254,547.8315" style="stroke:#181818;stroke-width:1.0;"/><line style="stroke:#181818;stroke-width:1.0;" x1="254" x2="254" y1="500.4448" y2="602.8159"/><line style="stroke:#181818;stroke-width:1.0;" x1="254" x2="163.5" y1="602.8159" y2="602.8159"/><polygon fill="#181818" points="173.5,598.8159,163.5,602.8159,173.5,606.8159,169.5,602.8159" style="stroke:#181818;stroke-width:1.0;"/><line style="stroke:#181818;stroke-width:1.0;" x1="151.5" x2="151.5" y1="570.8159" y2="590.8159"/><polygon fill="#181818" points="147.5,580.8159,151.5,590.8159,155.5,580.8159,151.5,584.8159" style="stroke:#181818;stroke-width:1.0;"/><line style="stroke:#181818;stroke-width:1.0;" x1="151.5" x2="151.5" y1="468.4448" y2="488.4448"/><polygon fill="#181818" points="147.5,478.4448,151.5,488.4448,155.5,478.4448,151.5,482.4448" style="stroke:#181818;stroke-width:1.0;"/><line style="stroke:#181818;stroke-width:1.0;" x1="176.25" x2="151.5" y1="412.4761" y2="412.4761"/><line style="stroke:#181818;stroke-width:1.0;" x1="151.5" x2="151.5" y1="412.4761" y2="434.4761"/><polygon fill="#181818" points="147.5,424.4761,151.5,434.4761,155.5,424.4761,151.5,428.4761" style="stroke:#181818;stroke-width:1.0;"/><line style="stroke:#181818;stroke-width:1.0;" x1="318.25" x2="343" y1="412.4761" y2="412.4761"/><line style="stroke:#181818;stroke-width:1.0;" x1="343" x2="343" y1="412.4761" y2="434.4761"/><polygon fill="#181818" points="339,424.4761,343,434.4761,347,424.4761,343,428.4761" style="stroke:#181818;stroke-width:1.0;"/><line style="stroke:#181818;stroke-width:1.0;" x1="151.5" x2="151.5" y1="614.8159" y2="632.8159"/><line style="stroke:#181818;stroke-width:1.0;" x1="151.5" x2="235.25" y1="632.8159" y2="632.8159"/><polygon fill="#181818" points="225.25,628.8159,235.25,632.8159,225.25,636.8159,229.25,632.8159" style="stroke:#181818;stroke-width:1.0;"/><line style="stroke:#181818;stroke-width:1.0;" x1="343" x2="343" y1="468.4448" y2="632.8159"/><line style="stroke:#181818;stroke-width:1.0;" x1="343" x2="259.25" y1="632.8159" y2="632.8159"/><polygon fill="#181818" points="269.25,628.8159,259.25,632.8159,269.25,636.8159,265.25,632.8159" style="stroke:#181818;stroke-width:1.0;"/><line style="stroke:#181818;stroke-width:1.0;" x1="247.25" x2="247.25" y1="380.4761" y2="400.4761"/><polygon fill="#181818" points="243.25,390.4761,247.25,400.4761,251.25,390.4761,247.25,394.4761" style="stroke:#181818;stroke-width:1.0;"/><line style="stroke:#181818;stroke-width:1.0;" x1="247.25" x2="247.25" y1="246.2417" y2="292.5386"/><polygon fill="#181818" points="243.25,282.5386,247.25,292.5386,251.25,282.5386,247.25,286.5386" style="stroke:#181818;stroke-width:1.0;"/><line style="stroke:#181818;stroke-width:1.0;" x1="247.25" x2="247.25" y1="700.8159" y2="725.2183"/><polygon fill="#181818" points="243.25,715.2183,247.25,725.2183,251.25,715.2183,247.25,719.2183" style="stroke:#181818;stroke-width:1.0;"/><line style="stroke:#181818;stroke-width:1.0;" x1="305.75" x2="317.75" y1="688.8159" y2="688.8159"/><polygon fill="#181818" points="313.75,732.2026,317.75,742.2026,321.75,732.2026,317.75,736.2026" style="stroke:#181818;stroke-width:1.0;"/><line style="stroke:#181818;stroke-width:1.0;" x1="317.75" x2="317.75" y1="688.8159" y2="791.187"/><line style="stroke:#181818;stroke-width:1.0;" x1="317.75" x2="259.25" y1="791.187" y2="791.187"/><polygon fill="#181818" points="269.25,787.187,259.25,791.187,269.25,795.187,265.25,791.187" style="stroke:#181818;stroke-width:1.0;"/><line style="stroke:#181818;stroke-width:1.0;" x1="247.25" x2="247.25" y1="759.187" y2="779.187"/><polygon fill="#181818" points="243.25,769.187,247.25,779.187,251.25,769.187,247.25,773.187" style="stroke:#181818;stroke-width:1.0;"/><line style="stroke:#181818;stroke-width:1.0;" x1="247.25" x2="247.25" y1="644.8159" y2="676.8159"/><polygon fill="#181818" points="243.25,666.8159,247.25,676.8159,251.25,666.8159,247.25,670.8159" style="stroke:#181818;stroke-width:1.0;"/><line style="stroke:#181818;stroke-width:1.0;" x1="247.25" x2="247.25" y1="165.9761" y2="212.2729"/><polygon fill="#181818" points="243.25,202.2729,247.25,212.2729,251.25,202.2729,247.25,206.2729" style="stroke:#181818;stroke-width:1.0;"/><line style="stroke:#181818;stroke-width:1.0;" x1="247.25" x2="247.25" y1="100.2969" y2="132.0073"/><polygon fill="#181818" points="243.25,122.0073,247.25,132.0073,251.25,122.0073,247.25,126.0073" style="stroke:#181818;stroke-width:1.0;"/><line style="stroke:#181818;stroke-width:1.0;" x1="247.25" x2="247.25" y1="803.187" y2="825.187"/><line style="stroke:#181818;stroke-width:1.0;" x1="247.25" x2="446" y1="825.187" y2="825.187"/><polygon fill="#181818" points="442,452.5972,446,442.5972,450,452.5972,446,448.5972" style="stroke:#181818;stroke-width:1.0;"/><line style="stroke:#181818;stroke-width:1.0;" x1="446" x2="446" y1="88.2969" y2="825.187"/><line style="stroke:#181818;stroke-width:1.0;" x1="446" x2="290.25" y1="88.2969" y2="88.2969"/><polygon fill="#181818" points="300.25,84.2969,290.25,88.2969,300.25,92.2969,296.25,88.2969" style="stroke:#181818;stroke-width:1.0;"/><line style="stroke:#181818;stroke-width:1.0;" x1="204.25" x2="27" y1="88.2969" y2="88.2969"/><polygon fill="#181818" points="23,438.5972,27,448.5972,31,438.5972,27,442.5972" style="stroke:#181818;stroke-width:1.0;"/><line style="stroke:#181818;stroke-width:1.0;" x1="27" x2="27" y1="88.2969" y2="837.187"/><line style="stroke:#181818;stroke-width:1.0;" x1="27" x2="247.25" y1="837.187" y2="837.187"/><line style="stroke:#181818;stroke-width:1.0;" x1="247.25" x2="247.25" y1="837.187" y2="857.187"/><polygon fill="#181818" points="243.25,847.187,247.25,857.187,251.25,847.187,247.25,851.187" style="stroke:#181818;stroke-width:1.0;"/><line style="stroke:#181818;stroke-width:1.0;" x1="247.25" x2="247.25" y1="30" y2="76.2969"/><polygon fill="#181818" points="243.25,66.2969,247.25,76.2969,251.25,66.2969,247.25,70.2969" style="stroke:#181818;stroke-width:1.0;"/><!--SRC=[bPBBQiCm44Nt-eeXAyUV44DBI2aKqeqJibUjcrf5bemUbBRutoixZh5ZquSMHfgvEbSp7kUvzQoE7-cbqRHAK_FoXiAdAMs3a2P7OQo0NT4NexZUIwb0oIKizUlzcgIZv0DktUNRjSd1nUKwFLfU8HjImsRPyW4-RipWDX2lYMmIdXoMYNiJX8PpjyGHTT1aSyNEL7NmeFpvG2Uk0kOQUQRaIkWBW8XjyINqJMCcw2TTM5JGdewo0krCq1usMnIt7cCLtT6nj72bKN-mwkmEyBHLt5RB3b0k_bPjbWdGGfxP_-x4AN3uhRWvk65iN7Ntv7R48kl7lcvEqWMkv2Tkovm_S-hQi3xMptQhx4BEcvertm00]--></g></svg>