<?xml version="1.0" encoding="us-ascii" standalone="no"?><svg xmlns="http://www.w3.org/2000/svg" xmlns:xlink="http://www.w3.org/1999/xlink" contentStyleType="text/css" height="1160px" preserveAspectRatio="none" style="width:1289px;height:1160px;background:#FFFFFF;" version="1.1" viewBox="0 0 1289 1160" width="1289px" zoomAndPan="magnify"><defs/><g><ellipse cx="644.75" cy="20" fill="#222222" rx="10" ry="10" style="stroke:#222222;stroke-width:1.0;"/><rect fill="none" height="1109.6245" style="stroke:#000000;stroke-width:1.5;" width="1267.5" x="11" y="40"/><path d="M183,40 L183,49.2969 L173,59.2969 L11,59.2969 " fill="none" style="stroke:#000000;stroke-width:1.5;"/><text fill="#000000" font-family="sans-serif" font-size="14" font-weight="bold" lengthAdjust="spacing" textLength="51" x="14" y="53.9951">object</text><text fill="#000000" font-family="sans-serif" font-size="14" lengthAdjust="spacing" textLength="107" x="69" y="53.9951">VideoRecorder</text><rect fill="#F1F1F1" height="33.9688" rx="12.5" ry="12.5" style="stroke:#181818;stroke-width:0.5;" width="131" x="579.25" y="176.0073"/><text fill="#000000" font-family="sans-serif" font-size="12" lengthAdjust="spacing" textLength="111" x="589.25" y="197.146">Read Video Frame</text><rect fill="#F1F1F1" height="33.9688" rx="12.5" ry="12.5" style="stroke:#181818;stroke-width:0.5;" width="176" x="556.75" y="237.4761"/><text fill="#000000" font-family="sans-serif" font-size="12" lengthAdjust="spacing" textLength="156" x="566.75" y="258.6147">Compute Face Landmarks</text><polygon fill="#F1F1F1" points="644.75,132.0073,656.75,144.0073,644.75,156.0073,632.75,144.0073,644.75,132.0073" style="stroke:#181818;stroke-width:0.5;"/><polygon fill="#F1F1F1" points="609.25,291.4448,680.25,291.4448,692.25,303.4448,680.25,315.4448,609.25,315.4448,597.25,303.4448,609.25,291.4448" style="stroke:#181818;stroke-width:0.5;"/><text fill="#000000" font-family="sans-serif" font-size="11" lengthAdjust="spacing" textLength="71" x="609.25" y="307.2529">Face Found?</text><text fill="#000000" font-family="sans-serif" font-size="11" lengthAdjust="spacing" textLength="14" x="692.25" y="300.8506">no</text><rect fill="none" height="748.1797" style="stroke:#000000;stroke-width:1.5;" width="1211.5" x="39" y="325.4448"/><path d="M170,325.4448 L170,334.7417 L160,344.7417 L39,344.7417 " fill="none" style="stroke:#000000;stroke-width:1.5;"/><text fill="#000000" font-family="sans-serif" font-size="14" font-weight="bold" lengthAdjust="spacing" textLength="51" x="42" y="339.4399">object</text><text fill="#000000" font-family="sans-serif" font-size="14" lengthAdjust="spacing" textLength="66" x="97" y="339.4399">Detector</text><rect fill="#F1F1F1" height="33.9688" rx="12.5" ry="12.5" style="stroke:#181818;stroke-width:0.5;" width="73" x="608.25" y="361.7417"/><text fill="#000000" font-family="sans-serif" font-size="12" lengthAdjust="spacing" textLength="53" x="618.25" y="382.8804">Detector</text><line style="stroke:#181818;stroke-width:1.5;" x1="249.25" x2="1040.5" y1="415.7104" y2="415.7104"/><rect fill="none" height="415.5742" style="stroke:#000000;stroke-width:1.5;" width="375" x="51" y="425.7104"/><path d="M196,425.7104 L196,435.0073 L186,445.0073 L51,445.0073 " fill="none" style="stroke:#000000;stroke-width:1.5;"/><text fill="#000000" font-family="sans-serif" font-size="14" font-weight="bold" lengthAdjust="spacing" textLength="51" x="54" y="439.7056">object</text><text fill="#000000" font-family="sans-serif" font-size="14" lengthAdjust="spacing" textLength="80" x="109" y="439.7056">Distraction</text><rect fill="#F1F1F1" height="33.9688" rx="12.5" ry="12.5" style="stroke:#181818;stroke-width:0.5;" width="128" x="185.25" y="462.0073"/><text fill="#000000" font-family="sans-serif" font-size="12" lengthAdjust="spacing" textLength="108" x="195.25" y="483.146">Detect Distraction</text><rect fill="#F1F1F1" height="33.9688" rx="12.5" ry="12.5" style="stroke:#181818;stroke-width:0.5;" width="237" x="130.75" y="515.9761"/><text fill="#000000" font-family="sans-serif" font-size="12" lengthAdjust="spacing" textLength="217" x="140.75" y="537.1147">Apply LitEfficientNet Model to Frame</text><polygon fill="#F1F1F1" points="187.25,584.9448,311.25,584.9448,323.25,596.9448,311.25,608.9448,187.25,608.9448,175.25,596.9448,187.25,584.9448" style="stroke:#181818;stroke-width:0.5;"/><text fill="#000000" font-family="sans-serif" font-size="11" lengthAdjust="spacing" textLength="124" x="187.25" y="600.7529">Distraction Detected?</text><text fill="#000000" font-family="sans-serif" font-size="11" lengthAdjust="spacing" textLength="21" x="154.25" y="594.3506">yes</text><text fill="#000000" font-family="sans-serif" font-size="11" lengthAdjust="spacing" textLength="14" x="323.25" y="594.3506">no</text><rect fill="#F1F1F1" height="33.9688" rx="12.5" ry="12.5" style="stroke:#181818;stroke-width:0.5;" width="164" x="71.5" y="618.9448"/><text fill="#000000" font-family="sans-serif" font-size="12" lengthAdjust="spacing" textLength="144" x="81.5" y="640.0835">Increment Time Counter</text><rect fill="#F1F1F1" height="33.9688" rx="12.5" ry="12.5" style="stroke:#181818;stroke-width:0.5;" width="78" x="114.5" y="721.3159"/><text fill="#000000" font-family="sans-serif" font-size="12" lengthAdjust="spacing" textLength="58" x="124.5" y="742.4546">Set Alarm</text><polygon fill="#F1F1F1" points="75,672.9136,232,672.9136,244,684.9136,232,696.9136,75,696.9136,63,684.9136,75,672.9136" style="stroke:#181818;stroke-width:0.5;"/><text fill="#000000" font-family="sans-serif" font-size="11" lengthAdjust="spacing" textLength="21" x="157.5" y="707.124">yes</text><text fill="#000000" font-family="sans-serif" font-size="11" lengthAdjust="spacing" textLength="157" x="75" y="688.7217">Time Counter &gt; Threshold?</text><text fill="#000000" font-family="sans-serif" font-size="11" lengthAdjust="spacing" textLength="14" x="244" y="682.3193">no</text><polygon fill="#F1F1F1" points="153.5,775.2847,165.5,787.2847,153.5,799.2847,141.5,787.2847,153.5,775.2847" style="stroke:#181818;stroke-width:0.5;"/><rect fill="#F1F1F1" height="33.9688" rx="12.5" ry="12.5" style="stroke:#181818;stroke-width:0.5;" width="138" x="276" y="618.9448"/><text fill="#000000" font-family="sans-serif" font-size="12" lengthAdjust="spacing" textLength="118" x="286" y="640.0835">Reset Time Counter</text><polygon fill="#F1F1F1" points="249.25,805.2847,261.25,817.2847,249.25,829.2847,237.25,817.2847,249.25,805.2847" style="stroke:#181818;stroke-width:0.5;"/><rect fill="none" height="415.5742" style="stroke:#000000;stroke-width:1.5;" width="375" x="436" y="425.7104"/><path d="M581,425.7104 L581,435.0073 L571,445.0073 L436,445.0073 " fill="none" style="stroke:#000000;stroke-width:1.5;"/><text fill="#000000" font-family="sans-serif" font-size="14" font-weight="bold" lengthAdjust="spacing" textLength="51" x="439" y="439.7056">object</text><text fill="#000000" font-family="sans-serif" font-size="14" lengthAdjust="spacing" textLength="80" x="494" y="439.7056">Drowsiness</text><rect fill="#F1F1F1" height="33.9688" rx="12.5" ry="12.5" style="stroke:#181818;stroke-width:0.5;" width="135" x="566.75" y="462.0073"/><text fill="#000000" font-family="sans-serif" font-size="12" lengthAdjust="spacing" textLength="115" x="576.75" y="483.146">Detect Drowsiness</text><rect fill="#F1F1F1" height="33.9688" rx="12.5" ry="12.5" style="stroke:#181818;stroke-width:0.5;" width="179" x="544.75" y="515.9761"/><text fill="#000000" font-family="sans-serif" font-size="12" lengthAdjust="spacing" textLength="159" x="554.75" y="537.1147">Compute Eye Aspect Ratio</text><polygon fill="#F1F1F1" points="569.75,584.9448,698.75,584.9448,710.75,596.9448,698.75,608.9448,569.75,608.9448,557.75,596.9448,569.75,584.9448" style="stroke:#181818;stroke-width:0.5;"/><text fill="#000000" font-family="sans-serif" font-size="11" lengthAdjust="spacing" textLength="129" x="569.75" y="600.7529">Drowsiness Detected?</text><text fill="#000000" font-family="sans-serif" font-size="11" lengthAdjust="spacing" textLength="21" x="536.75" y="594.3506">yes</text><text fill="#000000" font-family="sans-serif" font-size="11" lengthAdjust="spacing" textLength="14" x="710.75" y="594.3506">no</text><rect fill="#F1F1F1" height="33.9688" rx="12.5" ry="12.5" style="stroke:#181818;stroke-width:0.5;" width="164" x="456.5" y="618.9448"/><text fill="#000000" font-family="sans-serif" font-size="12" lengthAdjust="spacing" textLength="144" x="466.5" y="640.0835">Increment Time Counter</text><rect fill="#F1F1F1" height="33.9688" rx="12.5" ry="12.5" style="stroke:#181818;stroke-width:0.5;" width="78" x="499.5" y="721.3159"/><text fill="#000000" font-family="sans-serif" font-size="12" lengthAdjust="spacing" textLength="58" x="509.5" y="742.4546">Set Alarm</text><polygon fill="#F1F1F1" points="460,672.9136,617,672.9136,629,684.9136,617,696.9136,460,696.9136,448,684.9136,460,672.9136" style="stroke:#181818;stroke-width:0.5;"/><text fill="#000000" font-family="sans-serif" font-size="11" lengthAdjust="spacing" textLength="21" x="542.5" y="707.124">yes</text><text fill="#000000" font-family="sans-serif" font-size="11" lengthAdjust="spacing" textLength="157" x="460" y="688.7217">Time Counter &gt; Threshold?</text><text fill="#000000" font-family="sans-serif" font-size="11" lengthAdjust="spacing" textLength="14" x="629" y="682.3193">no</text><polygon fill="#F1F1F1" points="538.5,775.2847,550.5,787.2847,538.5,799.2847,526.5,787.2847,538.5,775.2847" style="stroke:#181818;stroke-width:0.5;"/><rect fill="#F1F1F1" height="33.9688" rx="12.5" ry="12.5" style="stroke:#181818;stroke-width:0.5;" width="138" x="661" y="618.9448"/><text fill="#000000" font-family="sans-serif" font-size="12" lengthAdjust="spacing" textLength="118" x="671" y="640.0835">Reset Time Counter</text><polygon fill="#F1F1F1" points="634.25,805.2847,646.25,817.2847,634.25,829.2847,622.25,817.2847,634.25,805.2847" style="stroke:#181818;stroke-width:0.5;"/><rect fill="none" height="415.5742" style="stroke:#000000;stroke-width:1.5;" width="417.5" x="821" y="425.7104"/><path d="M980,425.7104 L980,435.0073 L970,445.0073 L821,445.0073 " fill="none" style="stroke:#000000;stroke-width:1.5;"/><text fill="#000000" font-family="sans-serif" font-size="14" font-weight="bold" lengthAdjust="spacing" textLength="51" x="824" y="439.7056">object</text><text fill="#000000" font-family="sans-serif" font-size="14" lengthAdjust="spacing" textLength="94" x="879" y="439.7056">LookingAway</text><rect fill="#F1F1F1" height="33.9688" rx="12.5" ry="12.5" style="stroke:#181818;stroke-width:0.5;" width="153" x="964" y="462.0073"/><text fill="#000000" font-family="sans-serif" font-size="12" lengthAdjust="spacing" textLength="133" x="974" y="483.146">Detect Gaze Direction</text><rect fill="#F1F1F1" height="33.9688" rx="12.5" ry="12.5" style="stroke:#181818;stroke-width:0.5;" width="204" x="938.5" y="515.9761"/><text fill="#000000" font-family="sans-serif" font-size="12" lengthAdjust="spacing" textLength="184" x="948.5" y="537.1147">Compute Average Gaze Score</text><polygon fill="#F1F1F1" points="945.5,584.9448,1135.5,584.9448,1147.5,596.9448,1135.5,608.9448,945.5,608.9448,933.5,596.9448,945.5,584.9448" style="stroke:#181818;stroke-width:0.5;"/><text fill="#000000" font-family="sans-serif" font-size="11" lengthAdjust="spacing" textLength="190" x="945.5" y="600.7529">Wrong Gaze Direction Detected?</text><text fill="#000000" font-family="sans-serif" font-size="11" lengthAdjust="spacing" textLength="21" x="912.5" y="594.3506">yes</text><text fill="#000000" font-family="sans-serif" font-size="11" lengthAdjust="spacing" textLength="14" x="1147.5" y="594.3506">no</text><rect fill="#F1F1F1" height="33.9688" rx="12.5" ry="12.5" style="stroke:#181818;stroke-width:0.5;" width="164" x="841.5" y="618.9448"/><text fill="#000000" font-family="sans-serif" font-size="12" lengthAdjust="spacing" textLength="144" x="851.5" y="640.0835">Increment Time Counter</text><rect fill="#F1F1F1" height="33.9688" rx="12.5" ry="12.5" style="stroke:#181818;stroke-width:0.5;" width="78" x="884.5" y="721.3159"/><text fill="#000000" font-family="sans-serif" font-size="12" lengthAdjust="spacing" textLength="58" x="894.5" y="742.4546">Set Alarm</text><polygon fill="#F1F1F1" points="845,672.9136,1002,672.9136,1014,684.9136,1002,696.9136,845,696.9136,833,684.9136,845,672.9136" style="stroke:#181818;stroke-width:0.5;"/><text fill="#000000" font-family="sans-serif" font-size="11" lengthAdjust="spacing" textLength="21" x="927.5" y="707.124">yes</text><text fill="#000000" font-family="sans-serif" font-size="11" lengthAdjust="spacing" textLength="157" x="845" y="688.7217">Time Counter &gt; Threshold?</text><text fill="#000000" font-family="sans-serif" font-size="11" lengthAdjust="spacing" textLength="14" x="1014" y="682.3193">no</text><polygon fill="#F1F1F1" points="923.5,775.2847,935.5,787.2847,923.5,799.2847,911.5,787.2847,923.5,775.2847" style="stroke:#181818;stroke-width:0.5;"/><rect fill="#F1F1F1" height="33.9688" rx="12.5" ry="12.5" style="stroke:#181818;stroke-width:0.5;" width="138" x="1088.5" y="618.9448"/><text fill="#000000" font-family="sans-serif" font-size="12" lengthAdjust="spacing" textLength="118" x="1098.5" y="640.0835">Reset Time Counter</text><polygon fill="#F1F1F1" points="1040.5,805.2847,1052.5,817.2847,1040.5,829.2847,1028.5,817.2847,1040.5,805.2847" style="stroke:#181818;stroke-width:0.5;"/><line style="stroke:#181818;stroke-width:1.5;" x1="249.25" x2="1040.5" y1="861.2847" y2="861.2847"/><rect fill="#F1F1F1" height="33.9688" rx="12.5" ry="12.5" style="stroke:#181818;stroke-width:0.5;" width="230" x="529.75" y="881.2847"/><text fill="#000000" font-family="sans-serif" font-size="12" lengthAdjust="spacing" textLength="210" x="539.75" y="902.4233">Draw Points and Text on the Frame</text><rect fill="#F1F1F1" height="33.9688" rx="12.5" ry="12.5" style="stroke:#181818;stroke-width:0.5;" width="107" x="591.25" y="983.6558"/><text fill="#000000" font-family="sans-serif" font-size="12" lengthAdjust="spacing" textLength="87" x="601.25" y="1004.7944">Play TTS Alarm</text><polygon fill="#F1F1F1" points="584.25,935.2534,705.25,935.2534,717.25,947.2534,705.25,959.2534,584.25,959.2534,572.25,947.2534,584.25,935.2534" style="stroke:#181818;stroke-width:0.5;"/><text fill="#000000" font-family="sans-serif" font-size="11" lengthAdjust="spacing" textLength="21" x="648.75" y="969.4639">yes</text><text fill="#000000" font-family="sans-serif" font-size="11" lengthAdjust="spacing" textLength="121" x="584.25" y="951.0615">One Alarm is setted?</text><text fill="#000000" font-family="sans-serif" font-size="11" lengthAdjust="spacing" textLength="14" x="717.25" y="944.6592">no</text><polygon fill="#F1F1F1" points="644.75,1037.6245,656.75,1049.6245,644.75,1061.6245,632.75,1049.6245,644.75,1037.6245" style="stroke:#181818;stroke-width:0.5;"/><polygon fill="#F1F1F1" points="613.75,76.2969,675.75,76.2969,687.75,88.2969,675.75,100.2969,613.75,100.2969,601.75,88.2969,613.75,76.2969" style="stroke:#181818;stroke-width:0.5;"/><text fill="#000000" font-family="sans-serif" font-size="11" lengthAdjust="spacing" textLength="21" x="648.75" y="110.5073">yes</text><text fill="#000000" font-family="sans-serif" font-size="11" lengthAdjust="spacing" textLength="62" x="613.75" y="92.105">Recording?</text><text fill="#000000" font-family="sans-serif" font-size="11" lengthAdjust="spacing" textLength="14" x="587.75" y="85.7026">no</text><ellipse cx="644.75" cy="1126.6245" fill="none" rx="11" ry="11" style="stroke:#222222;stroke-width:1.0;"/><ellipse cx="644.75" cy="1126.6245" fill="#222222" rx="6" ry="6" style="stroke:#111111;stroke-width:1.0;"/><line style="stroke:#181818;stroke-width:1.0;" x1="644.75" x2="644.75" y1="209.9761" y2="237.4761"/><polygon fill="#181818" points="640.75,227.4761,644.75,237.4761,648.75,227.4761,644.75,231.4761" style="stroke:#181818;stroke-width:1.0;"/><line style="stroke:#181818;stroke-width:1.0;" x1="644.75" x2="644.75" y1="156.0073" y2="176.0073"/><polygon fill="#181818" points="640.75,166.0073,644.75,176.0073,648.75,166.0073,644.75,170.0073" style="stroke:#181818;stroke-width:1.0;"/><line style="stroke:#181818;stroke-width:1.0;" x1="692.25" x2="744.75" y1="303.4448" y2="303.4448"/><polygon fill="#181818" points="740.75,229.9761,744.75,219.9761,748.75,229.9761,744.75,225.9761" style="stroke:#181818;stroke-width:1.0;"/><line style="stroke:#181818;stroke-width:1.0;" x1="744.75" x2="744.75" y1="144.0073" y2="303.4448"/><line style="stroke:#181818;stroke-width:1.0;" x1="744.75" x2="656.75" y1="144.0073" y2="144.0073"/><polygon fill="#181818" points="666.75,140.0073,656.75,144.0073,666.75,148.0073,662.75,144.0073" style="stroke:#181818;stroke-width:1.0;"/><line style="stroke:#181818;stroke-width:1.0;" x1="644.75" x2="644.75" y1="271.4448" y2="291.4448"/><polygon fill="#181818" points="640.75,281.4448,644.75,291.4448,648.75,281.4448,644.75,285.4448" style="stroke:#181818;stroke-width:1.0;"/><line style="stroke:#181818;stroke-width:1.0;" x1="249.25" x2="249.25" y1="495.9761" y2="515.9761"/><polygon fill="#181818" points="245.25,505.9761,249.25,515.9761,253.25,505.9761,249.25,509.9761" style="stroke:#181818;stroke-width:1.0;"/><line style="stroke:#181818;stroke-width:1.0;" x1="153.5" x2="153.5" y1="696.9136" y2="721.3159"/><polygon fill="#181818" points="149.5,711.3159,153.5,721.3159,157.5,711.3159,153.5,715.3159" style="stroke:#181818;stroke-width:1.0;"/><line style="stroke:#181818;stroke-width:1.0;" x1="244" x2="256" y1="684.9136" y2="684.9136"/><polygon fill="#181818" points="252,728.3003,256,738.3003,260,728.3003,256,732.3003" style="stroke:#181818;stroke-width:1.0;"/><line style="stroke:#181818;stroke-width:1.0;" x1="256" x2="256" y1="684.9136" y2="787.2847"/><line style="stroke:#181818;stroke-width:1.0;" x1="256" x2="165.5" y1="787.2847" y2="787.2847"/><polygon fill="#181818" points="175.5,783.2847,165.5,787.2847,175.5,791.2847,171.5,787.2847" style="stroke:#181818;stroke-width:1.0;"/><line style="stroke:#181818;stroke-width:1.0;" x1="153.5" x2="153.5" y1="755.2847" y2="775.2847"/><polygon fill="#181818" points="149.5,765.2847,153.5,775.2847,157.5,765.2847,153.5,769.2847" style="stroke:#181818;stroke-width:1.0;"/><line style="stroke:#181818;stroke-width:1.0;" x1="153.5" x2="153.5" y1="652.9136" y2="672.9136"/><polygon fill="#181818" points="149.5,662.9136,153.5,672.9136,157.5,662.9136,153.5,666.9136" style="stroke:#181818;stroke-width:1.0;"/><line style="stroke:#181818;stroke-width:1.0;" x1="175.25" x2="153.5" y1="596.9448" y2="596.9448"/><line style="stroke:#181818;stroke-width:1.0;" x1="153.5" x2="153.5" y1="596.9448" y2="618.9448"/><polygon fill="#181818" points="149.5,608.9448,153.5,618.9448,157.5,608.9448,153.5,612.9448" style="stroke:#181818;stroke-width:1.0;"/><line style="stroke:#181818;stroke-width:1.0;" x1="323.25" x2="345" y1="596.9448" y2="596.9448"/><line style="stroke:#181818;stroke-width:1.0;" x1="345" x2="345" y1="596.9448" y2="618.9448"/><polygon fill="#181818" points="341,608.9448,345,618.9448,349,608.9448,345,612.9448" style="stroke:#181818;stroke-width:1.0;"/><line style="stroke:#181818;stroke-width:1.0;" x1="153.5" x2="153.5" y1="799.2847" y2="817.2847"/><line style="stroke:#181818;stroke-width:1.0;" x1="153.5" x2="237.25" y1="817.2847" y2="817.2847"/><polygon fill="#181818" points="227.25,813.2847,237.25,817.2847,227.25,821.2847,231.25,817.2847" style="stroke:#181818;stroke-width:1.0;"/><line style="stroke:#181818;stroke-width:1.0;" x1="345" x2="345" y1="652.9136" y2="817.2847"/><line style="stroke:#181818;stroke-width:1.0;" x1="345" x2="261.25" y1="817.2847" y2="817.2847"/><polygon fill="#181818" points="271.25,813.2847,261.25,817.2847,271.25,821.2847,267.25,817.2847" style="stroke:#181818;stroke-width:1.0;"/><line style="stroke:#181818;stroke-width:1.0;" x1="249.25" x2="249.25" y1="549.9448" y2="584.9448"/><polygon fill="#181818" points="245.25,574.9448,249.25,584.9448,253.25,574.9448,249.25,578.9448" style="stroke:#181818;stroke-width:1.0;"/><line style="stroke:#181818;stroke-width:1.0;" x1="634.25" x2="634.25" y1="495.9761" y2="515.9761"/><polygon fill="#181818" points="630.25,505.9761,634.25,515.9761,638.25,505.9761,634.25,509.9761" style="stroke:#181818;stroke-width:1.0;"/><line style="stroke:#181818;stroke-width:1.0;" x1="538.5" x2="538.5" y1="696.9136" y2="721.3159"/><polygon fill="#181818" points="534.5,711.3159,538.5,721.3159,542.5,711.3159,538.5,715.3159" style="stroke:#181818;stroke-width:1.0;"/><line style="stroke:#181818;stroke-width:1.0;" x1="629" x2="641" y1="684.9136" y2="684.9136"/><polygon fill="#181818" points="637,728.3003,641,738.3003,645,728.3003,641,732.3003" style="stroke:#181818;stroke-width:1.0;"/><line style="stroke:#181818;stroke-width:1.0;" x1="641" x2="641" y1="684.9136" y2="787.2847"/><line style="stroke:#181818;stroke-width:1.0;" x1="641" x2="550.5" y1="787.2847" y2="787.2847"/><polygon fill="#181818" points="560.5,783.2847,550.5,787.2847,560.5,791.2847,556.5,787.2847" style="stroke:#181818;stroke-width:1.0;"/><line style="stroke:#181818;stroke-width:1.0;" x1="538.5" x2="538.5" y1="755.2847" y2="775.2847"/><polygon fill="#181818" points="534.5,765.2847,538.5,775.2847,542.5,765.2847,538.5,769.2847" style="stroke:#181818;stroke-width:1.0;"/><line style="stroke:#181818;stroke-width:1.0;" x1="538.5" x2="538.5" y1="652.9136" y2="672.9136"/><polygon fill="#181818" points="534.5,662.9136,538.5,672.9136,542.5,662.9136,538.5,666.9136" style="stroke:#181818;stroke-width:1.0;"/><line style="stroke:#181818;stroke-width:1.0;" x1="557.75" x2="538.5" y1="596.9448" y2="596.9448"/><line style="stroke:#181818;stroke-width:1.0;" x1="538.5" x2="538.5" y1="596.9448" y2="618.9448"/><polygon fill="#181818" points="534.5,608.9448,538.5,618.9448,542.5,608.9448,538.5,612.9448" style="stroke:#181818;stroke-width:1.0;"/><line style="stroke:#181818;stroke-width:1.0;" x1="710.75" x2="730" y1="596.9448" y2="596.9448"/><line style="stroke:#181818;stroke-width:1.0;" x1="730" x2="730" y1="596.9448" y2="618.9448"/><polygon fill="#181818" points="726,608.9448,730,618.9448,734,608.9448,730,612.9448" style="stroke:#181818;stroke-width:1.0;"/><line style="stroke:#181818;stroke-width:1.0;" x1="538.5" x2="538.5" y1="799.2847" y2="817.2847"/><line style="stroke:#181818;stroke-width:1.0;" x1="538.5" x2="622.25" y1="817.2847" y2="817.2847"/><polygon fill="#181818" points="612.25,813.2847,622.25,817.2847,612.25,821.2847,616.25,817.2847" style="stroke:#181818;stroke-width:1.0;"/><line style="stroke:#181818;stroke-width:1.0;" x1="730" x2="730" y1="652.9136" y2="817.2847"/><line style="stroke:#181818;stroke-width:1.0;" x1="730" x2="646.25" y1="817.2847" y2="817.2847"/><polygon fill="#181818" points="656.25,813.2847,646.25,817.2847,656.25,821.2847,652.25,817.2847" style="stroke:#181818;stroke-width:1.0;"/><line style="stroke:#181818;stroke-width:1.0;" x1="634.25" x2="634.25" y1="549.9448" y2="584.9448"/><polygon fill="#181818" points="630.25,574.9448,634.25,584.9448,638.25,574.9448,634.25,578.9448" style="stroke:#181818;stroke-width:1.0;"/><line style="stroke:#181818;stroke-width:1.0;" x1="1040.5" x2="1040.5" y1="495.9761" y2="515.9761"/><polygon fill="#181818" points="1036.5,505.9761,1040.5,515.9761,1044.5,505.9761,1040.5,509.9761" style="stroke:#181818;stroke-width:1.0;"/><line style="stroke:#181818;stroke-width:1.0;" x1="923.5" x2="923.5" y1="696.9136" y2="721.3159"/><polygon fill="#181818" points="919.5,711.3159,923.5,721.3159,927.5,711.3159,923.5,715.3159" style="stroke:#181818;stroke-width:1.0;"/><line style="stroke:#181818;stroke-width:1.0;" x1="1014" x2="1026" y1="684.9136" y2="684.9136"/><polygon fill="#181818" points="1022,728.3003,1026,738.3003,1030,728.3003,1026,732.3003" style="stroke:#181818;stroke-width:1.0;"/><line style="stroke:#181818;stroke-width:1.0;" x1="1026" x2="1026" y1="684.9136" y2="787.2847"/><line style="stroke:#181818;stroke-width:1.0;" x1="1026" x2="935.5" y1="787.2847" y2="787.2847"/><polygon fill="#181818" points="945.5,783.2847,935.5,787.2847,945.5,791.2847,941.5,787.2847" style="stroke:#181818;stroke-width:1.0;"/><line style="stroke:#181818;stroke-width:1.0;" x1="923.5" x2="923.5" y1="755.2847" y2="775.2847"/><polygon fill="#181818" points="919.5,765.2847,923.5,775.2847,927.5,765.2847,923.5,769.2847" style="stroke:#181818;stroke-width:1.0;"/><line style="stroke:#181818;stroke-width:1.0;" x1="923.5" x2="923.5" y1="652.9136" y2="672.9136"/><polygon fill="#181818" points="919.5,662.9136,923.5,672.9136,927.5,662.9136,923.5,666.9136" style="stroke:#181818;stroke-width:1.0;"/><line style="stroke:#181818;stroke-width:1.0;" x1="933.5" x2="923.5" y1="596.9448" y2="596.9448"/><line style="stroke:#181818;stroke-width:1.0;" x1="923.5" x2="923.5" y1="596.9448" y2="618.9448"/><polygon fill="#181818" points="919.5,608.9448,923.5,618.9448,927.5,608.9448,923.5,612.9448" style="stroke:#181818;stroke-width:1.0;"/><line style="stroke:#181818;stroke-width:1.0;" x1="1147.5" x2="1157.5" y1="596.9448" y2="596.9448"/><line style="stroke:#181818;stroke-width:1.0;" x1="1157.5" x2="1157.5" y1="596.9448" y2="618.9448"/><polygon fill="#181818" points="1153.5,608.9448,1157.5,618.9448,1161.5,608.9448,1157.5,612.9448" style="stroke:#181818;stroke-width:1.0;"/><line style="stroke:#181818;stroke-width:1.0;" x1="923.5" x2="923.5" y1="799.2847" y2="817.2847"/><line style="stroke:#181818;stroke-width:1.0;" x1="923.5" x2="1028.5" y1="817.2847" y2="817.2847"/><polygon fill="#181818" points="1018.5,813.2847,1028.5,817.2847,1018.5,821.2847,1022.5,817.2847" style="stroke:#181818;stroke-width:1.0;"/><line style="stroke:#181818;stroke-width:1.0;" x1="1157.5" x2="1157.5" y1="652.9136" y2="817.2847"/><line style="stroke:#181818;stroke-width:1.0;" x1="1157.5" x2="1052.5" y1="817.2847" y2="817.2847"/><polygon fill="#181818" points="1062.5,813.2847,1052.5,817.2847,1062.5,821.2847,1058.5,817.2847" style="stroke:#181818;stroke-width:1.0;"/><line style="stroke:#181818;stroke-width:1.0;" x1="1040.5" x2="1040.5" y1="549.9448" y2="584.9448"/><polygon fill="#181818" points="1036.5,574.9448,1040.5,584.9448,1044.5,574.9448,1040.5,578.9448" style="stroke:#181818;stroke-width:1.0;"/><line style="stroke:#181818;stroke-width:1.0;" x1="249.25" x2="249.25" y1="417.2104" y2="462.0073"/><polygon fill="#181818" points="245.25,452.0073,249.25,462.0073,253.25,452.0073,249.25,456.0073" style="stroke:#181818;stroke-width:1.0;"/><line style="stroke:#181818;stroke-width:1.0;" x1="634.25" x2="634.25" y1="417.2104" y2="462.0073"/><polygon fill="#181818" points="630.25,452.0073,634.25,462.0073,638.25,452.0073,634.25,456.0073" style="stroke:#181818;stroke-width:1.0;"/><line style="stroke:#181818;stroke-width:1.0;" x1="1040.5" x2="1040.5" y1="417.2104" y2="462.0073"/><polygon fill="#181818" points="1036.5,452.0073,1040.5,462.0073,1044.5,452.0073,1040.5,456.0073" style="stroke:#181818;stroke-width:1.0;"/><line style="stroke:#181818;stroke-width:1.0;" x1="249.25" x2="249.25" y1="829.2847" y2="861.2847"/><polygon fill="#181818" points="245.25,851.2847,249.25,861.2847,253.25,851.2847,249.25,855.2847" style="stroke:#181818;stroke-width:1.0;"/><line style="stroke:#181818;stroke-width:1.0;" x1="634.25" x2="634.25" y1="829.2847" y2="861.2847"/><polygon fill="#181818" points="630.25,851.2847,634.25,861.2847,638.25,851.2847,634.25,855.2847" style="stroke:#181818;stroke-width:1.0;"/><line style="stroke:#181818;stroke-width:1.0;" x1="1040.5" x2="1040.5" y1="829.2847" y2="861.2847"/><polygon fill="#181818" points="1036.5,851.2847,1040.5,861.2847,1044.5,851.2847,1040.5,855.2847" style="stroke:#181818;stroke-width:1.0;"/><line style="stroke:#181818;stroke-width:1.0;" x1="644.75" x2="644.75" y1="395.7104" y2="415.7104"/><polygon fill="#181818" points="640.75,405.7104,644.75,415.7104,648.75,405.7104,644.75,409.7104" style="stroke:#181818;stroke-width:1.0;"/><line style="stroke:#181818;stroke-width:1.0;" x1="644.75" x2="644.75" y1="862.7847" y2="881.2847"/><polygon fill="#181818" points="640.75,871.2847,644.75,881.2847,648.75,871.2847,644.75,875.2847" style="stroke:#181818;stroke-width:1.0;"/><line style="stroke:#181818;stroke-width:1.0;" x1="644.75" x2="644.75" y1="959.2534" y2="983.6558"/><polygon fill="#181818" points="640.75,973.6558,644.75,983.6558,648.75,973.6558,644.75,977.6558" style="stroke:#181818;stroke-width:1.0;"/><line style="stroke:#181818;stroke-width:1.0;" x1="717.25" x2="729.25" y1="947.2534" y2="947.2534"/><polygon fill="#181818" points="725.25,990.6401,729.25,1000.6401,733.25,990.6401,729.25,994.6401" style="stroke:#181818;stroke-width:1.0;"/><line style="stroke:#181818;stroke-width:1.0;" x1="729.25" x2="729.25" y1="947.2534" y2="1049.6245"/><line style="stroke:#181818;stroke-width:1.0;" x1="729.25" x2="656.75" y1="1049.6245" y2="1049.6245"/><polygon fill="#181818" points="666.75,1045.6245,656.75,1049.6245,666.75,1053.6245,662.75,1049.6245" style="stroke:#181818;stroke-width:1.0;"/><line style="stroke:#181818;stroke-width:1.0;" x1="644.75" x2="644.75" y1="1017.6245" y2="1037.6245"/><polygon fill="#181818" points="640.75,1027.6245,644.75,1037.6245,648.75,1027.6245,644.75,1031.6245" style="stroke:#181818;stroke-width:1.0;"/><line style="stroke:#181818;stroke-width:1.0;" x1="644.75" x2="644.75" y1="915.2534" y2="935.2534"/><polygon fill="#181818" points="640.75,925.2534,644.75,935.2534,648.75,925.2534,644.75,929.2534" style="stroke:#181818;stroke-width:1.0;"/><line style="stroke:#181818;stroke-width:1.0;" x1="644.75" x2="644.75" y1="315.4448" y2="361.7417"/><polygon fill="#181818" points="640.75,351.7417,644.75,361.7417,648.75,351.7417,644.75,355.7417" style="stroke:#181818;stroke-width:1.0;"/><line style="stroke:#181818;stroke-width:1.0;" x1="644.75" x2="644.75" y1="100.2969" y2="132.0073"/><polygon fill="#181818" points="640.75,122.0073,644.75,132.0073,648.75,122.0073,644.75,126.0073" style="stroke:#181818;stroke-width:1.0;"/><line style="stroke:#181818;stroke-width:1.0;" x1="644.75" x2="644.75" y1="1061.6245" y2="1083.6245"/><line style="stroke:#181818;stroke-width:1.0;" x1="644.75" x2="1262.5" y1="1083.6245" y2="1083.6245"/><polygon fill="#181818" points="1258.5,565.0659,1262.5,555.0659,1266.5,565.0659,1262.5,561.0659" style="stroke:#181818;stroke-width:1.0;"/><line style="stroke:#181818;stroke-width:1.0;" x1="1262.5" x2="1262.5" y1="88.2969" y2="1083.6245"/><line style="stroke:#181818;stroke-width:1.0;" x1="1262.5" x2="687.75" y1="88.2969" y2="88.2969"/><polygon fill="#181818" points="697.75,84.2969,687.75,88.2969,697.75,92.2969,693.75,88.2969" style="stroke:#181818;stroke-width:1.0;"/><line style="stroke:#181818;stroke-width:1.0;" x1="601.75" x2="27" y1="88.2969" y2="88.2969"/><polygon fill="#181818" points="23,551.0659,27,561.0659,31,551.0659,27,555.0659" style="stroke:#181818;stroke-width:1.0;"/><line style="stroke:#181818;stroke-width:1.0;" x1="27" x2="27" y1="88.2969" y2="1095.6245"/><line style="stroke:#181818;stroke-width:1.0;" x1="27" x2="644.75" y1="1095.6245" y2="1095.6245"/><line style="stroke:#181818;stroke-width:1.0;" x1="644.75" x2="644.75" y1="1095.6245" y2="1115.6245"/><polygon fill="#181818" points="640.75,1105.6245,644.75,1115.6245,648.75,1105.6245,644.75,1109.6245" style="stroke:#181818;stroke-width:1.0;"/><line style="stroke:#181818;stroke-width:1.0;" x1="644.75" x2="644.75" y1="30" y2="76.2969"/><polygon fill="#181818" points="640.75,66.2969,644.75,76.2969,648.75,66.2969,644.75,70.2969" style="stroke:#181818;stroke-width:1.0;"/><!--SRC=[xLPHRvj037xdLrXzIlCJYhGATKqrALsh16tF7ZY9LxX3T-uoDlM_puI41a98jeVrfVU0E9_jxsn_s7X19q6X3nQs1Yx6O_ljEoKo7iCNJidEAB4k9NS1lmFGjLvnHZ2gnMoMrvV07aOb-SlDURKS5OJIRAzcX6dj3IOESmfVZsviNZmBmGGJWYcQD4VtvCEEgntgHcjYdqswXJNs5RLvwO_c8uc-s2QGvWgxWx0bRcryaR6q90CuxCLXKicxK1t8VTMmNp4gYgo4ASljOi49av7F971lKyf03hAvltW1ept_s_2fIfoio7GgTW3yoIIESiM3c7E26ysva0kF6bHm-vhm0UAL8x-osPcG6zYvHXTbwFBZI9HvQXV-GCEal0Z-pLQvwkcSeFj1Ne93tW0kaSsvx75sxTcGzoV9qsWUuSxkqxej2I9VL3OpLC01lZGkt-dod-Wot7B-YZfJQv-q8KThB4znvmv_aNOVHqEzPyUVw0SvN59jDDUsFz1nlZfhbXttxrnw0owfJi_KwWm-Xsjuj6p4WqvUYEcdWDPBCzOtMQeyFnYgarHDNxtjoQfUFMPOGXpF-tBRdvDsU7LOAjl-0bJQ6v4NMmGlVm00]--></g></svg>